<svg xmlns="http://www.w3.org/2000/svg" xmlns:xlink="http://www.w3.org/1999/xlink" width="177" height="208" viewBox="0 0 177 208">
  <defs>
    <linearGradient id="linear-gradient" x1="0.5" x2="0.5" y2="1" gradientUnits="objectBoundingBox">
      <stop offset="0" stop-color="#372fc1"/>
      <stop offset="0.005" stop-color="#ff1300"/>
      <stop offset="0.343" stop-color="#e22d1e"/>
      <stop offset="1" stop-color="#8d3129"/>
    </linearGradient>
    <radialGradient id="radial-gradient" cx="-1.207" cy="-0.257" r="3.564" gradientTransform="translate(-0.148) scale(1.296 1)" xlink:href="#linear-gradient"/>
    <linearGradient id="linear-gradient-2" x1="-0.295" y1="1.983" x2="1.165" y2="-0.895" gradientUnits="objectBoundingBox">
      <stop offset="0" stop-color="#d8e0ef"/>
      <stop offset="0.104" stop-color="#d4def0"/>
      <stop offset="0.207" stop-color="#c8d7f1"/>
      <stop offset="0.31" stop-color="#b4ccf4"/>
      <stop offset="0.413" stop-color="#98bcf8"/>
      <stop offset="0.515" stop-color="#75a8fd"/>
      <stop offset="0.532" stop-color="#6ea4fe"/>
      <stop offset="0.582" stop-color="#80aefc"/>
      <stop offset="0.707" stop-color="#a6c4f6"/>
      <stop offset="0.822" stop-color="#c1d3f2"/>
      <stop offset="0.924" stop-color="#d2ddf0"/>
      <stop offset="1" stop-color="#d8e0ef"/>
    </linearGradient>
    <linearGradient id="linear-gradient-3" x1="-0.295" y1="2.03" x2="1.169" y2="-0.899" xlink:href="#linear-gradient-2"/>
    <clipPath id="clip-Mesa_de_trabajo_3">
      <rect width="177" height="208"/>
    </clipPath>
  </defs>
  <g id="Mesa_de_trabajo_3" data-name="Mesa de trabajo – 3" clip-path="url(#clip-Mesa_de_trabajo_3)">
    <rect width="177" height="208" fill="#fff"/>
    <g id="Grupo_768" data-name="Grupo 768" transform="translate(0 34.318)">
      <g id="Grupo_82" data-name="Grupo 82" transform="translate(0)">
        <g id="deliveryman-deliver-parcel-or-package-on-a-scooter-2117415-0" style="isolation: isolate">
          <g id="Layer_1" data-name="Layer 1">
            <path id="Trazado_184" data-name="Trazado 184" d="M562.925,492.323l19.342,2.508s4.967-1.447,3.963-9.3-2.634-12.289,4.673-13.363,16.443-6.323,8.506-6.066-11.667,4.589-13.116.505c-1.476-4.159,8.913-12.963,2.253-13.126-6.782-.165-13.779,7.036-10.97,10.893s-2.732,4.057-3.907-1.058-2.658-12.108-4.948-5.788,2.665,10.639,2.661,16.336S562.925,492.323,562.925,492.323Z" transform="translate(-464.275 -394.426)" fill="#b1c2cc"/>
            <path id="Trazado_185" data-name="Trazado 185" d="M584.618,503.892a31.206,31.206,0,0,0,3.273.322,1.947,1.947,0,0,0,1.13-.335c.645-.5.6-1.467.731-2.274.405-2.476,2.825-4.025,5.012-5.255a2.806,2.806,0,0,1,1.968-.527c.983.244,1.372,1.4,1.65,2.374s.827,2.114,1.839,2.159,1.672-1.065,1.8-2.06c.139-1.128-.114-2.277.018-3.406a2.586,2.586,0,0,1,1.981-2.447c1.346-.121,2.251,1.294,2.882,2.489s1.717,2.548,3.022,2.2a2.153,2.153,0,0,0,1.407-1.674,7.184,7.184,0,0,0-.019-2.29,1.827,1.827,0,0,1,.165-1.228,1.559,1.559,0,0,1,.988-.557,4.547,4.547,0,0,1,3.012,8.51c-.746.371-1.768.8-1.657,1.626.145,1.084,1.839.832,2.741,1.449a1.876,1.876,0,0,1,.342,2.47,4,4,0,0,1-2.223,1.525,28.363,28.363,0,0,1-5.209.9,1.517,1.517,0,0,0-.79.268,1.276,1.276,0,0,0-.248,1.313,9.868,9.868,0,0,0,1.614,2.725,3.261,3.261,0,0,1,.605,2.991,2.933,2.933,0,0,1-2.894,1.428c-1.144-.049-2.246-.451-3.388-.54a1.417,1.417,0,0,0-.966.184,1.613,1.613,0,0,0-.393,1.436q.249,4.185.5,8.369a1.576,1.576,0,0,1-.211,1.108,1.326,1.326,0,0,1-.46.326,6.022,6.022,0,0,1-5.732-.71,22.155,22.155,0,0,1-4.317-4.191,4.482,4.482,0,0,0-1.255-1.089,4.759,4.759,0,0,0-2.3-.312q-2.55.068-5.1.014a3.539,3.539,0,0,1-2.476-.7,1.462,1.462,0,0,1-.236-1.621c.067-.048.13-.1.193-.154l-.181.129a.844.844,0,0,1,.479-.411,5.482,5.482,0,0,0,1.107-4.515c-.3-1.912-1.221-3.668-1.73-5.535a3.892,3.892,0,0,1,.329-3.471A3.531,3.531,0,0,1,584.618,503.892Z" transform="translate(-477.949 -422.964)" fill="#002c42"/>
            <path id="Trazado_186" data-name="Trazado 186" d="M587.554,545.405a5.35,5.35,0,0,1,2.248,3.906c1.685-1,3.438-1.83,5.2-2.691a.154.154,0,0,1-.009-.037,53.425,53.425,0,0,1,.108-5.811c.016-.211.346-.214.33,0a53.339,53.339,0,0,0-.111,5.692c.179-.088.358-.176.537-.265a31.4,31.4,0,0,0,5.637-3.9.174.174,0,0,1,0-.041,22.221,22.221,0,0,1,1.1-5.02c.069-.2.388-.115.319.086a21.844,21.844,0,0,0-1.062,4.686l.363-.3q3.2-2.6,6.308-5.3c.16-.138.4.093.234.232q-2.131,1.853-4.307,3.651l1.323.594c.42.188,1.477.867,1.914.588.18-.114.346.171.168.285-.416.266-.827.051-1.236-.133l-2.452-1.1c-.573.473-1.142.951-1.719,1.42-1.218.989-2.435,2-3.725,2.909l3.99,2.7c.175.119.011.405-.165.286l-4.095-2.774c-.008,0-.011-.012-.017-.018a20.128,20.128,0,0,1-1.974,1.2c-1.49.784-3.009,1.474-4.5,2.237a12.635,12.635,0,0,1,5.224,3.211c.149.151-.083.386-.233.234a12.282,12.282,0,0,0-5.321-3.207.166.166,0,0,1-.062-.034c-.671.352-1.335.722-1.985,1.127-2.247,1.4-4.376,2.982-6.5,4.559-.17.127-.337-.159-.167-.284,2.061-1.53,4.125-3.062,6.3-4.431.092-.058.186-.113.28-.17l0-.01a5,5,0,0,0-2.1-3.8C587.217,545.569,587.38,545.281,587.554,545.405Z" transform="translate(-479.31 -456.998)" fill="#2e745c" opacity="0.3"/>
            <path id="Trazado_187" data-name="Trazado 187" d="M298.816,521.589,279.474,524.1s-4.967-1.447-3.962-9.3,2.634-12.289-4.673-13.363-16.443-6.323-8.506-6.066,11.667,4.589,13.116.505c1.476-4.159-8.913-12.963-2.253-13.126,6.782-.165,13.779,7.036,10.97,10.893s2.732,4.057,3.907-1.058,2.658-12.108,4.948-5.788-2.664,10.638-2.661,16.336S298.816,521.589,298.816,521.589Z" transform="translate(-235.046 -416.519)" fill="#b1c2cc"/>
            <path id="Trazado_188" data-name="Trazado 188" d="M285.2,533.158a31.226,31.226,0,0,1-3.273.322,1.947,1.947,0,0,1-1.13-.335c-.645-.5-.6-1.467-.731-2.274-.405-2.476-2.825-4.025-5.012-5.255a2.806,2.806,0,0,0-1.968-.527c-.983.244-1.373,1.4-1.65,2.374s-.827,2.114-1.839,2.159-1.672-1.065-1.8-2.06c-.139-1.128.114-2.277-.018-3.406a2.586,2.586,0,0,0-1.981-2.447c-1.346-.121-2.251,1.294-2.882,2.49s-1.717,2.548-3.022,2.2a2.153,2.153,0,0,1-1.407-1.674,7.184,7.184,0,0,1,.019-2.29,1.826,1.826,0,0,0-.165-1.228,1.558,1.558,0,0,0-.988-.557,4.548,4.548,0,0,0-3.012,8.51c.746.371,1.768.8,1.657,1.626-.145,1.084-1.839.832-2.741,1.449a1.876,1.876,0,0,0-.342,2.47,4,4,0,0,0,2.223,1.525,28.355,28.355,0,0,0,5.209.9,1.519,1.519,0,0,1,.79.268,1.277,1.277,0,0,1,.248,1.313,9.869,9.869,0,0,1-1.614,2.725,3.261,3.261,0,0,0-.605,2.991,2.933,2.933,0,0,0,2.894,1.428c1.144-.049,2.246-.451,3.388-.54a1.417,1.417,0,0,1,.966.184,1.613,1.613,0,0,1,.393,1.436q-.249,4.185-.5,8.369a1.576,1.576,0,0,0,.211,1.108,1.325,1.325,0,0,0,.46.326,6.022,6.022,0,0,0,5.732-.71,22.162,22.162,0,0,0,4.317-4.191,4.481,4.481,0,0,1,1.255-1.089,4.759,4.759,0,0,1,2.3-.312q2.55.068,5.1.014a3.539,3.539,0,0,0,2.476-.7,1.462,1.462,0,0,0,.236-1.621c-.067-.049-.13-.1-.193-.154l.181.129a.845.845,0,0,0-.479-.411,5.482,5.482,0,0,1-1.107-4.515c.3-1.912,1.221-3.668,1.73-5.536a3.892,3.892,0,0,0-.329-3.47A3.532,3.532,0,0,0,285.2,533.158Z" transform="translate(-229.449 -445.056)" fill="#002c42"/>
            <path id="Trazado_189" data-name="Trazado 189" d="M316.04,574.672a5.35,5.35,0,0,0-2.248,3.906c-1.685-1-3.438-1.83-5.2-2.691a.162.162,0,0,0,.009-.037,53.44,53.44,0,0,0-.108-5.811c-.016-.211-.346-.214-.33,0a53.361,53.361,0,0,1,.111,5.692c-.179-.088-.358-.176-.537-.265a31.4,31.4,0,0,1-5.637-3.9.177.177,0,0,0,0-.041,22.228,22.228,0,0,0-1.1-5.02c-.069-.2-.388-.115-.319.086a21.844,21.844,0,0,1,1.062,4.686l-.363-.3q-3.2-2.6-6.308-5.3c-.16-.139-.395.093-.234.232q2.131,1.853,4.307,3.651l-1.323.594c-.42.188-1.477.867-1.915.588-.18-.115-.346.17-.168.285.416.266.826.051,1.236-.133q1.227-.549,2.452-1.1c.573.473,1.142.951,1.719,1.42,1.218.989,2.435,2,3.725,2.91l-3.99,2.7c-.175.119-.011.405.165.286l4.095-2.774c.008-.005.011-.012.017-.018a20.107,20.107,0,0,0,1.974,1.2c1.49.784,3.009,1.474,4.5,2.237a12.636,12.636,0,0,0-5.224,3.21c-.149.152.083.386.233.234A12.28,12.28,0,0,1,311.965,578a.165.165,0,0,0,.062-.033c.671.352,1.335.722,1.985,1.127,2.247,1.4,4.376,2.982,6.5,4.559.17.127.337-.159.167-.284-2.061-1.53-4.125-3.062-6.3-4.431-.092-.058-.186-.113-.28-.17l0-.01a5,5,0,0,1,2.1-3.8C316.377,574.835,316.213,574.548,316.04,574.672Z" transform="translate(-261.864 -479.091)" fill="#2e745c" opacity="0.3"/>
            <path id="Trazado_191" data-name="Trazado 191" d="M654.121,349.385a1.307,1.307,0,0,0,1.311,1.311h25.8a1.311,1.311,0,0,0,1.311-1.311,1.325,1.325,0,0,0-.383-.929,1.307,1.307,0,0,0-.929-.388H673.8a1.311,1.311,0,1,1,0-2.622h.434a1.311,1.311,0,1,0,0-2.623H666.8a1.311,1.311,0,1,0,0,2.623,1.311,1.311,0,0,1,0,2.622H655.432A1.315,1.315,0,0,0,654.121,349.385Z" transform="translate(-533.117 -310.893)" fill="#a3cff8" opacity="0.3"/>
            <path id="Trazado_192" data-name="Trazado 192" d="M231.4,327.85a3.477,3.477,0,0,0,.177-.854,3.423,3.423,0,0,0-.841-2.506,3.466,3.466,0,0,0-4.121-.772,3.352,3.352,0,0,0-2.9-1.951,4.384,4.384,0,0,0-1.174.161,2.568,2.568,0,0,0-2.239-1.545,2.793,2.793,0,0,0-2.9,2.329l-.625.034A2.922,2.922,0,0,0,214.4,325.4c0,.021,0,.041,0,.061a3.013,3.013,0,0,0-1.009-.263l-.778.042a2.994,2.994,0,0,0-2.427,2.612Z" transform="translate(-197.996 -293.951)" fill="#fff" opacity="0.533"/>
            <path id="Trazado_193" data-name="Trazado 193" d="M453.388,222.473a4.618,4.618,0,0,1-.235-1.134,4.546,4.546,0,0,1,1.116-3.329,4.6,4.6,0,0,1,5.473-1.025,4.452,4.452,0,0,1,3.851-2.592,5.825,5.825,0,0,1,1.559.213,3.411,3.411,0,0,1,2.973-2.052,3.709,3.709,0,0,1,3.858,3.093l.83.045a3.88,3.88,0,0,1,3.156,3.523c0,.027,0,.054,0,.081a4,4,0,0,1,1.34-.349l1.033.056a3.977,3.977,0,0,1,3.224,3.469Z" transform="translate(-381.4 -212.554)" fill="#fff" opacity="0.52"/>
            <path id="Trazado_194" data-name="Trazado 194" d="M679.86,265.633a4.1,4.1,0,0,1-.209-1.007,4.037,4.037,0,0,1,.991-2.956,4.087,4.087,0,0,1,4.86-.91,3.954,3.954,0,0,1,3.419-2.3,5.17,5.17,0,0,1,1.384.189,3.029,3.029,0,0,1,2.64-1.822,3.293,3.293,0,0,1,3.425,2.747l.737.04a3.446,3.446,0,0,1,2.8,3.129c0,.024,0,.048,0,.072a3.553,3.553,0,0,1,1.19-.31l.917.05a3.531,3.531,0,0,1,2.863,3.08Z" transform="translate(-552.381 -245.974)" fill="#fff" opacity="0.533"/>
            <path id="Trazado_197" data-name="Trazado 197" d="M436.736,337.128l-26.7,2.009,1.374,38.469,28.163-3.3Z" transform="translate(-348.864 -306.593)" fill="#e0a779"/>
            <path id="Trazado_198" data-name="Trazado 198" d="M359.776,345.323,343.455,349.5l5.691,32.983,12,1.309Z" transform="translate(-298.6 -312.779)" fill="#c68458"/>
            <path id="Trazado_199" data-name="Trazado 199" d="M342.808,355.68c.407-.485,16.035-2.245,16.035-2.245l-.29-8.113-16.718,4.14Z" transform="translate(-297.378 -312.779)" fill="#ce9065"/>
            <path id="Trazado_200" data-name="Trazado 200" d="M410.329,347.249l26.9-2.294-.491-7.827-26.7,2.009Z" transform="translate(-348.864 -306.593)" fill="#ce9065"/>
            <path id="Trazado_201" data-name="Trazado 201" d="M347.692,369.763s11.012-1.236,12.179.777,4.478,27.5,4.478,27.5-.623-27.972,1.94-28.781c0,0-1.459,5,0,6.886s.84,20.5,4.8,20.421,4.8-32.37,4.8-32.37Z" transform="translate(-301.799 -327.023)" fill="#231f20" opacity="0.55" style="mix-blend-mode: soft-light;isolation: isolate"/>
            <path id="Trazado_209" data-name="Trazado 209" d="M511.666,367.01l8.318,9,14.362,7.578-2.017,2.347-15.038-4.5-9.747-12.5Z" transform="translate(-422.468 -329.15)" fill="#f5b297"/>
            <path id="Trazado_210" data-name="Trazado 210" d="M504.36,328.469s11.672,12.371,9.951,13.985-5.661,2.909-5.8,2.415S504.36,328.469,504.36,328.469Z" transform="translate(-420.065 -300.057)" fill="url(#linear-gradient)"/>
            <path id="Trazado_211" data-name="Trazado 211" d="M529.288,591.555a84.583,84.583,0,0,0-3.98,11.455l-.049.193s-.373.623-1.9.171c-1.488-.441-1.012-1.173-1.064-1.2.019-.068.038-.136.055-.207.832-3.115,1.637-7.258,2.571-11.751C526.674,590.7,527.58,590.929,529.288,591.555Z" transform="translate(-433.578 -497.645)" fill="#f5b297"/>
            <path id="Trazado_212" data-name="Trazado 212" d="M454.57,470.246l13.586-4.089s11.942,12.236,14.4,17.994-6.886,25.711-6.886,25.711-5.058-2.809-5.181-3.281,4.34-19.492,4.34-19.492S454.626,478.529,454.57,470.246Z" transform="translate(-382.479 -403.995)" fill="#7e1911"/>
            <path id="Trazado_213" data-name="Trazado 213" d="M445.535,322.751c3.536.164,5.654.712,6.969,8.077s6.64,20.348,1.8,27.48c-3.39,5-16.482,13.326-20.457,2.484-2.989-8.153-1.467-26.337,1.032-32.255S442.507,322.611,445.535,322.751Z" transform="translate(-365.594 -295.714)" fill="#cfe5f2"/>
            <path id="Trazado_214" data-name="Trazado 214" d="M447.686,321.811a27.543,27.543,0,0,0,3.555,7.639c2.54,3.731.005,15.715-3.74,20.448s-8.575,10.211-8.575,10.211,4.4-11.412,4.673-11.884S451.384,340.869,447.686,321.811Z" transform="translate(-370.67 -295.03)" fill="#231f20" opacity="0.82" style="mix-blend-mode: soft-light;isolation: isolate"/>
            <path id="Trazado_215" data-name="Trazado 215" d="M479.335,309.662c-1.169.815-4.558-.814-5.337-2.008-.226-.347.039-.7.1-1.652.113-1.984.29-5.053.29-5.134l4.909,2.477.021,3.269S479.96,309.226,479.335,309.662Z" transform="translate(-397.078 -279.221)" fill="#f5b297"/>
            <path id="Trazado_216" data-name="Trazado 216" d="M479.885,306.614l-.021.06a5.593,5.593,0,0,0-1.664-.852c-1.112-.385-3.5.382-3.5.382l-.033-.2c.113-1.984.29-5.053.29-5.134l4.909,2.477Z" transform="translate(-397.649 -279.221)" fill="#ec9480"/>
            <path id="Trazado_217" data-name="Trazado 217" d="M464.469,240.919s2.5,3.778.7,6.723-12.23.96-12.23.96-5.815-4.553-.512-8.281c0,0,1.707-3.543,4.418-3.18A13.818,13.818,0,0,1,464.469,240.919Z" transform="translate(-379.181 -231.095)" fill="#603d52"/>
            <path id="Trazado_218" data-name="Trazado 218" d="M472.35,269.036c-1.33.908-8.8-4.491-10.073-6.146s-.341-8.922-.341-8.922c.368-2.588,11.107-2.588,11.474,0a54.525,54.525,0,0,1,.744,5.991c.045.678.075,1.375.081,2.065C474.268,265.047,473.865,268,472.35,269.036Z" transform="translate(-387.789 -242.351)" fill="#f5b297"/>
            <path id="Trazado_219" data-name="Trazado 219" d="M455.169,275.705s-1.721-1.328-2.51.21,1.031,3.843,2.518,3.693Z" transform="translate(-380.893 -259.824)" fill="#f5b297"/>
            <path id="Trazado_220" data-name="Trazado 220" d="M457.631,281.321a1.781,1.781,0,0,1-1.28-2.223.85.85,0,0,1,1.276-.276Z" transform="translate(-383.737 -262.448)" fill="#ec9480"/>
            <path id="Trazado_221" data-name="Trazado 221" d="M482.194,288.548a1.04,1.04,0,1,1-1.04-1.04,1.04,1.04,0,0,1,1.04,1.04Z" transform="translate(-401.761 -269.135)" fill="#ec9480" opacity="0.2"/>
            <path id="Trazado_222" data-name="Trazado 222" d="M509.5,286.442a.725.725,0,0,1-.14.012,1.04,1.04,0,1,1,0-2.08.4.4,0,0,1,.06,0C509.468,285.055,509.5,285.751,509.5,286.442Z" transform="translate(-423.057 -266.77)" fill="#ec9480" opacity="0.2"/>
            <path id="Trazado_223" data-name="Trazado 223" d="M460.434,249.964a5.906,5.906,0,0,1,1.046,2.23c.085.939,1.451.427,1.451-2.561s-.939-2.134,3.244-1.964,6.022-1.885,6.278-4.874-9.266.519-9.266.519a1.931,1.931,0,0,0-2.391,1.878A41.127,41.127,0,0,0,460.434,249.964Z" transform="translate(-386.906 -234.473)" fill="#603d52"/>
            <path id="Trazado_224" data-name="Trazado 224" d="M496.222,275.883s2.5,4.1,1.921,4.418-1.153.6-1.473-.107A25.138,25.138,0,0,1,496.222,275.883Z" transform="translate(-413.921 -260.36)" fill="#ec9480"/>
            <path id="Trazado_225" data-name="Trazado 225" d="M433.124,320.836a5.235,5.235,0,0,1,3.488-.007c1.436.721,5,12.371,2.664,17.745s-11.424,20.553-11.424,20.553l1.533,5.082s-3.744,1.438-4.547.618c-1.994-2.037,1.776-11.265,1.776-11.265s9.361-16,8.645-21.654S431.552,321.147,433.124,320.836Z" transform="translate(-359.596 -294.049)" fill="#021c41"/>
            <path id="Trazado_226" data-name="Trazado 226" d="M495.962,323.368s5.59,10.873,7.445,19.327c0,0,.322.613-.325-3.532s-3.6-13.806-3.6-13.806S498.806,322.063,495.962,323.368Z" transform="translate(-413.726 -295.975)" fill="#021c41"/>
            <path id="Trazado_227" data-name="Trazado 227" d="M495.962,324.31s2.161,5.7,2.839,8,3.094,11.312,4.606,11.33l-1.3-5.53S496.923,324.809,495.962,324.31Z" transform="translate(-413.726 -296.917)" fill="#231f20" opacity="0.82" style="mix-blend-mode: soft-light;isolation: isolate"/>
            <path id="Trazado_228" data-name="Trazado 228" d="M429.372,360.161s-4.264,8.254-2.794,10.553c2.19,3.424,15.978,5.072,15.978,5.072l2.434-1.729-9.59-6.186-.626-5.673Z" transform="translate(-361.116 -323.98)" fill="#f5b297"/>
            <path id="Trazado_229" data-name="Trazado 229" d="M611.35,377.63a2.33,2.33,0,0,1-3.014,1.314,1.981,1.981,0,0,1-.672-.5,2.456,2.456,0,0,1-.314-2.637,2.333,2.333,0,0,1,3.014-1.314c.038.017.073.034.108.052A2.35,2.35,0,0,1,611.35,377.63Z" transform="translate(-497.624 -334.664)" fill="#021c41"/>
            <path id="Trazado_230" data-name="Trazado 230" d="M610.786,377.182a2.333,2.333,0,0,1-3.014,1.314c-.038-.017-.073-.034-.108-.052a2.456,2.456,0,0,1-.315-2.637,2.333,2.333,0,0,1,3.014-1.314c.038.017.073.034.108.052A2.461,2.461,0,0,1,610.786,377.182Z" transform="translate(-497.624 -334.664)" fill="#092a51"/>
            <path id="Trazado_231" data-name="Trazado 231" d="M612.182,398.012a.254.254,0,0,1-.179-.043.458.458,0,0,1-.183-.285l3.6-5.869-1.961-5.18.174-.057.2-.069,1.969,5.23Z" transform="translate(-501.185 -343.869)" fill="#021c41"/>
            <path id="Trazado_232" data-name="Trazado 232" d="M612,398.18a.458.458,0,0,1-.183-.285l3.6-5.869-1.961-5.18.174-.057,1.951,5.191Z" transform="translate(-501.185 -344.081)" fill="#092a51"/>
            <path id="Trazado_233" data-name="Trazado 233" d="M611.375,429.761l-.44.615a1.2,1.2,0,0,0,.788.457l.286-.731A.569.569,0,0,0,611.375,429.761Z" transform="translate(-500.516 -376.505)" fill="#021c41"/>
            <path id="Trazado_234" data-name="Trazado 234" d="M618.33,386.354a.489.489,0,1,1-.033-.691.489.489,0,0,1,.033.691Z" transform="translate(-505.457 -343.135)" fill="#021c41"/>
            <path id="Trazado_235" data-name="Trazado 235" d="M397.577,507.855l-3.956.357-4.516.406-23.8,2.144s-5.169-5.9-2.235-8.277a2.991,2.991,0,0,1,.582-.345,18.481,18.481,0,0,1,3-.983c1.961-.506,4.533-1.022,7.372-1.5,1.433-.24,2.932-.472,4.455-.69,7.083-1,14.651-1.665,18.182-1.389a6.559,6.559,0,0,1,1.513.254,1.156,1.156,0,0,1,.11.039C402.049,499.412,397.577,507.855,397.577,507.855Z" transform="translate(-312.725 -427.669)" fill="#021c41"/>
            <path id="Trazado_236" data-name="Trazado 236" d="M402.145,507.855l-3.956.357-2.484-2.093s4.553-2.416,2.668-6.176c-1.032-2.056-9.964-1.205-17.842-.012,0,0,0,0,0,0-.861.13-1.709.264-2.536.4-5.411.888-9.773,1.807-9.773,1.807,1.66-.79,5.648-1.687,10.367-2.482,1.433-.24,2.932-.472,4.455-.69,7.083-1,14.651-1.665,18.181-1.389.531.081,1.037.164,1.514.254a1.153,1.153,0,0,1,.11.039C406.617,499.412,402.145,507.855,402.145,507.855Z" transform="translate(-317.293 -427.669)" fill="#fff" opacity="0.31" style="mix-blend-mode: soft-light;isolation: isolate"/>
            <path id="Trazado_237" data-name="Trazado 237" d="M412.886,503.573a10.754,10.754,0,0,0-2.34.829s0,0,0,0c-.22.1-.357.169-.357.169l1.934,8.11-1.734.484-2.406-8.237a.292.292,0,0,1,.027-.125,1.635,1.635,0,0,1,.594-.675c1.433-.24,2.932-.472,4.455-.689C413.125,503.495,413.081,503.546,412.886,503.573Z" transform="translate(-347.308 -432.14)" fill="#231f20" opacity="0.55" style="mix-blend-mode: soft-light;isolation: isolate"/>
            <path id="Trazado_238" data-name="Trazado 238" d="M409.127,511.893l-1.934-8.111a12.829,12.829,0,0,1,2.7-1c.961-.138-1.767-.8-3.362,0s-1.545,1.358-1.545,1.358l2.405,8.236Z" transform="translate(-345.052 -431.35)" fill="#0a335b"/>
            <path id="Trazado_239" data-name="Trazado 239" d="M389.105,519.829l-23.8,2.144s-5.169-5.9-2.235-8.277a2.989,2.989,0,0,1,.582-.345,18.484,18.484,0,0,1,3-.983c.017.391-.24.868-.873,1.445,0,0-3.2,3.3-1,4.506s5.083-.425,6.758-1.13,5.4,2.02,8.646.919,10.428-1.289,11.423-.421C391.983,518.022,390.812,518.882,389.105,519.829Z" transform="translate(-312.725 -438.879)" fill="#231f20" opacity="0.68" style="mix-blend-mode: soft-light;isolation: isolate"/>
            <rect id="Rectángulo_67" data-name="Rectángulo 67" width="6.287" height="7.313" transform="translate(99.825 55.088) rotate(-14.669)" fill="#092a51"/>
            <path id="Trazado_240" data-name="Trazado 240" d="M573.744,437.875l-6.082,1.592-.328-7.9,4.559-.764Z" transform="translate(-467.602 -377.305)" fill="#021c41"/>
            <path id="Trazado_241" data-name="Trazado 241" d="M623.988,449.249c-.431.631-.477,1.351-.1,1.607s1.029-.048,1.46-.679.477-1.351.1-1.607S624.42,448.618,623.988,449.249Z" transform="translate(-510.102 -390.65)" fill="#092a51"/>
            <path id="Trazado_242" data-name="Trazado 242" d="M625.116,450.259a1.5,1.5,0,0,1-.812.633.538.538,0,0,1-.149.022.458.458,0,0,1-.291-.076.54.54,0,0,1-.21-.4,1.509,1.509,0,0,1,.3-.98,1.733,1.733,0,0,1,.548-.526c.036-.022.073-.039.107-.056a.856.856,0,0,1,.2-.066.566.566,0,0,1,.24,0,.455.455,0,0,1,.159.066.488.488,0,0,1,.2.31,1.443,1.443,0,0,1-.284,1.069Z" transform="translate(-510.116 -390.893)" fill="#021c41"/>
            <path id="Trazado_243" data-name="Trazado 243" d="M612.485,443.083a1.9,1.9,0,0,1-.809.694,1.122,1.122,0,0,1-.137.046l-.76-.526-1.694-1.174-1.756-1.218-.208-.144.758-.611.509-.411.21-.171.276-.223,1.01.638,2.24,1.413,0,0,.44.276.249.159A1.682,1.682,0,0,1,612.485,443.083Z" transform="translate(-497.637 -383.757)" fill="#021c41"/>
            <path id="Trazado_244" data-name="Trazado 244" d="M606.994,437.616s4.224.541,4.575-.291-2.042-4.08-2.609-3.9S605.378,436.682,606.994,437.616Z" transform="translate(-497.186 -379.281)" fill="#f5b297"/>
            <path id="Trazado_245" data-name="Trazado 245" d="M596.584,430.633l-2.912.716-.179.044-1.257.707-4.677-1.311,2.844-1.91,2.147-1.443a6.352,6.352,0,0,0,2.2,2.122A9.316,9.316,0,0,1,596.584,430.633Z" transform="translate(-482.871 -374.766)" fill="#0f88c1"/>
            <path id="Trazado_246" data-name="Trazado 246" d="M605.342,430.633l-2.912.716c-1.1-.181-2.653-1.79-3.269-2.469l2.147-1.443a6.353,6.353,0,0,0,2.2,2.122A9.318,9.318,0,0,1,605.342,430.633Z" transform="translate(-491.628 -374.766)" fill="#fff" opacity="0.56" style="mix-blend-mode: soft-light;isolation: isolate"/>
            <path id="Trazado_247" data-name="Trazado 247" d="M603.9,429.571s-.329,1.286.431,1.915a9.676,9.676,0,0,0,1.86,1.125s-2.425-.4-3.146-1.52S603.9,429.571,603.9,429.571Z" transform="translate(-494.422 -376.377)" fill="#fff" opacity="0.56" style="mix-blend-mode: soft-light;isolation: isolate"/>
            <path id="Trazado_248" data-name="Trazado 248" d="M610,434.6a.892.892,0,1,1-.606-.889A.776.776,0,0,1,610,434.6Z" transform="translate(-498.562 -379.456)" fill="#231f20" opacity="0.55" style="mix-blend-mode: soft-light;isolation: isolate"/>
            <path id="Trazado_249" data-name="Trazado 249" d="M541.523,421.925l-3.073,1.651-.21.112s-5.291-.523-6.286-.523-1.416-1.939-1.416-1.939l-4.242-.9-3.983-.851,11.868-1.44Z" transform="translate(-433.617 -367.665)" fill="#1595d1"/>
            <path id="Trazado_250" data-name="Trazado 250" d="M577.5,388.1s-6.322.943-7.161,3.406-.157,5.449,1.153,6.025,6.008,1.8,6.008,1.8Z" transform="translate(-469.596 -345.073)" fill="#0f88c1"/>
            <ellipse id="Elipse_555" data-name="Elipse 555" cx="3.283" cy="5.615" rx="3.283" ry="5.615" transform="translate(104.624 43.03)" fill="#eae2e1"/>
            <ellipse id="Elipse_556" data-name="Elipse 556" cx="2.894" cy="4.949" rx="2.894" ry="4.949" transform="translate(105.013 43.696)" fill="#d61c0d"/>
            <path id="Trazado_251" data-name="Trazado 251" d="M535.5,401.615l-14.465,3.27v2.62l14.8-1.476a1.062,1.062,0,0,0,.956-1.057v-2.321a1.062,1.062,0,0,0-1.3-1.036Z" transform="translate(-432.65 -355.253)" fill="#0f88c1"/>
            <path id="Trazado_252" data-name="Trazado 252" d="M597.9,393.423a4.02,4.02,0,0,1,1.263,3.353c-.355,1.886-3.219,3.653-1.752,4.446s2.94-.343,2.832-3.489A5.022,5.022,0,0,0,597.9,393.423Z" transform="translate(-489.994 -349.089)" fill="#fff" opacity="0.656" style="mix-blend-mode: soft-light;isolation: isolate"/>
            <path id="Trazado_253" data-name="Trazado 253" d="M577.322,390.822l-1.048,1.686s-4.089,1.1-3.844.953A12.35,12.35,0,0,1,577.322,390.822Z" transform="translate(-471.442 -347.125)" fill="#fff" opacity="0.56" style="mix-blend-mode: soft-light;isolation: isolate"/>
            <path id="Trazado_254" data-name="Trazado 254" d="M534.56,405.909s6.357-1.66,7.265-1.656.873,1.5-.279,1.816-10.514.489-12.26.733S534.56,405.909,534.56,405.909Z" transform="translate(-438.67 -357.265)" fill="#fff" opacity="0.56" style="mix-blend-mode: soft-light;isolation: isolate"/>
            <path id="Trazado_255" data-name="Trazado 255" d="M550.716,427.378l-.21.112s-5.291-.523-6.286-.523-1.416-1.939-1.416-1.939l-4.242-.9a1.516,1.516,0,0,1,.631-.279l7.069-.778s.848,2.386,3.051,2.215C550.65,425.178,550.8,426.4,550.716,427.378Z" transform="translate(-445.883 -371.467)" fill="#231f20" opacity="0.55" style="mix-blend-mode: soft-light;isolation: isolate"/>
            <path id="Trazado_256" data-name="Trazado 256" d="M516.8,411.562a.509.509,0,0,1,0,.059,5.083,5.083,0,0,1-.154,1.23c-.242.939-.738,1.582-1.313,1.582-.543,0-1.015-.572-1.269-1.425a4.593,4.593,0,0,1-.183-1.034c-.012-.135-.017-.271-.017-.411,0-1.584.658-2.868,1.469-2.868S516.8,409.977,516.8,411.562Z" transform="translate(-427.239 -360.616)" fill="#021c41"/>
            <path id="Trazado_257" data-name="Trazado 257" d="M517.4,413.311c0,1.271-.528,2.3-1.179,2.3s-1.179-1.03-1.179-2.3.528-2.3,1.179-2.3S517.4,412.04,517.4,413.311Z" transform="translate(-428.132 -362.365)" fill="#092a51"/>
            <path id="Trazado_258" data-name="Trazado 258" d="M515.222,414.992c0,.969-.422,1.755-.943,1.755s-.943-.786-.943-1.755.422-1.755.943-1.755S515.222,414.022,515.222,414.992Z" transform="translate(-426.841 -364.046)" fill="#021c41"/>
            <path id="Trazado_259" data-name="Trazado 259" d="M475.892,418.5c0,.969-.422,1.755-.943,1.755s-.943-.786-.943-1.755.422-1.755.943-1.755S475.892,417.531,475.892,418.5Z" transform="translate(-397.151 -366.695)" fill="#021c41"/>
            <path id="Trazado_260" data-name="Trazado 260" d="M487.494,413.237l-9.641.86v3.51l9.641-.86Z" transform="translate(-400.055 -364.046)" fill="#021c41"/>
            <path id="Trazado_261" data-name="Trazado 261" d="M477.04,415.625l4.978-.364-3.825.91s1.493.112,1.205.177-.917.2-.838.291a14.533,14.533,0,0,0,1.781.3l-1.991.771,2.332.118-1.31.45,2.251.261-5.079.373S475.312,415.824,477.04,415.625Z" transform="translate(-398.746 -365.575)" fill="#fff" opacity="0.56" style="mix-blend-mode: soft-light;isolation: isolate"/>
            <path id="Trazado_262" data-name="Trazado 262" d="M488.043,415.4s-2.446-3.186-.775-3.954,5.464-.962,5.452-.379-1.76.583-1.76.583,3.873,2.772,2.014,3.31S490.178,417.28,488.043,415.4Z" transform="translate(-406.722 -362.149)" fill="#f5b297"/>
            <path id="Trazado_263" data-name="Trazado 263" d="M503.546,420.634a5.084,5.084,0,0,1-.154,1.23c-.814.059-1.719.11-2.582.156-1.159.064-2.242.115-2.924.144a.985.985,0,0,1-.67.254.776.776,0,1,1,0-1.528.96.96,0,0,1,.763.352c.663-.061,1.643-.154,2.648-.257C501.693,420.873,502.784,420.749,503.546,420.634Z" transform="translate(-413.986 -369.63)" fill="#231f20" opacity="0.55" style="mix-blend-mode: soft-light;isolation: isolate"/>
            <ellipse id="Elipse_557" data-name="Elipse 557" cx="0.821" cy="1.529" rx="0.821" ry="1.529" transform="translate(76.976 50.277)" fill="#092a51"/>
            <ellipse id="Elipse_558" data-name="Elipse 558" cx="1.664" cy="1.024" rx="1.664" ry="1.024" transform="translate(90.685 49.573)" fill="#231f20" opacity="0.55" style="mix-blend-mode: soft-light;isolation: isolate"/>
            <path id="Trazado_264" data-name="Trazado 264" d="M508.945,416.657c-.485-.282-1.08-.071-2.232.237-.887.237-4.762.436-6.467.593a.959.959,0,0,0-.764-.352.775.775,0,1,0,0,1.527.986.986,0,0,0,.672-.253c1.9-.086,6.868-.327,8.006-.539C509.574,417.606,509.258,416.839,508.945,416.657Z" transform="translate(-415.696 -366.529)" fill="#092a51"/>
            <path id="Trazado_265" data-name="Trazado 265" d="M501.518,419.7s.76.079.629.734-1.022.389-1.022.389-.1-.31.486-.284S502.095,419.88,501.518,419.7Z" transform="translate(-417.618 -368.923)" fill="#231f20" opacity="0.55" style="mix-blend-mode: soft-light;isolation: isolate"/>
            <path id="Trazado_266" data-name="Trazado 266" d="M617.36,437.609a.815.815,0,0,0-.466.143c-.674-.374-2.955-1.637-3.4-1.86s-2.141-.963-2.663-1.191a.421.421,0,0,0-.352.764l.71.348,4.977,2.279.524.327a.735.735,0,0,0,.67.371.6.6,0,1,0,0-1.182Z" transform="translate(-499.995 -380.223)" fill="#092a51"/>
            <path id="Trazado_267" data-name="Trazado 267" d="M637.284,447.253s-.568.175-.3.541-.157.314-.2.07S636.6,447.384,637.284,447.253Z" transform="translate(-520 -389.725)" fill="#021c41"/>
            <path id="Trazado_268" data-name="Trazado 268" d="M618.683,448.491a1.5,1.5,0,0,1-.812.633.538.538,0,0,1-.149.022,1.137,1.137,0,0,1-.137.046l-.76-.526-1.694-1.174,1.717.751-.819-.983.988.433-.694-.839,1.178.707-1.034-1.1s1.139.523,1.6.709a1.293,1.293,0,0,0,.183.066c.044,0,0-.049-.076-.122-.127-.125-.345-.306-.386-.362-.064-.093.406.235.462.2.019-.01-.02-.088-.078-.183l.44.276a.458.458,0,0,1,.159.066.489.489,0,0,1,.2.311A1.444,1.444,0,0,1,618.683,448.491Z" transform="translate(-503.684 -389.125)" fill="#fff" opacity="0.21" style="mix-blend-mode: soft-light;isolation: isolate"/>
            <path id="Trazado_269" data-name="Trazado 269" d="M380.681,644.121c-.6-5.8-4.609-10.135-8.954-9.685a5.86,5.86,0,0,0-.973.183c-2.8.768-4.919,3.523-5.624,7.054a13.618,13.618,0,0,0-.181,4.076,14.126,14.126,0,0,0,.394,2.152c.993,3.746,3.45,6.57,6.335,7.35a6.073,6.073,0,0,0,2.225.183C378.246,654.984,381.28,649.918,380.681,644.121Zm-10.947-4.259c1.922-.2,3.7,1.719,3.963,4.286s-1.078,4.812-3,5.01-3.7-1.719-3.963-4.286S367.81,640.059,369.734,639.861Z" transform="translate(-314.768 -531.001)" fill="#021c41"/>
            <path id="Trazado_270" data-name="Trazado 270" d="M408.66,558.142s-13.448,9.5-24.346,9.92l-38.422-6.147a34.987,34.987,0,0,0,1.956-12.3c-.11-5.455-.3-9.849,1.411-12.524a5.426,5.426,0,0,1,1.941-1.834c3.022-1.7,19.749-3.746,26.294-4.492l.024,0c1.616-.181,2.6-.286,2.6-.286a.3.3,0,0,1,.044-.012,14.946,14.946,0,0,1,1.685-.357c1.976-.3,4.932-.325,4.836,2.245-.139,3.853-5.868,17.265-1.257,23.272,2.208,2.875,7.621,3.575,12.668,3.523A68.5,68.5,0,0,0,408.66,558.142Z" transform="translate(-300.441 -452.167)" fill="#026ea0"/>
            <path id="Trazado_271" data-name="Trazado 271" d="M367.635,644.121c-.5-4.79-3.315-8.58-6.729-9.5a6.075,6.075,0,0,0-2.225-.183c-4.342.45-7.379,5.516-6.778,11.313s4.609,10.135,8.954,9.685a5.858,5.858,0,0,0,.973-.183C365.642,654.2,368.188,649.476,367.635,644.121Zm-10.751.751c-.266-2.57,1.078-4.812,3-5.01s3.7,1.719,3.963,4.286-1.078,4.812-3,5.01S357.151,647.439,356.884,644.872Z" transform="translate(-304.921 -531.002)" fill="#062449"/>
            <path id="Trazado_272" data-name="Trazado 272" d="M373.355,657.449q-.011-.176-.029-.352a8.168,8.168,0,0,0-.67-2.516,5.741,5.741,0,0,0-2.883-3.027,3.712,3.712,0,0,0-1.829-.279,4.559,4.559,0,0,0-3.6,3.12,7.446,7.446,0,0,0-.5,2.276,8.361,8.361,0,0,0,.709,3.951c.968,2.117,2.78,3.474,4.7,3.274C371.775,663.637,373.563,660.784,373.355,657.449Zm-7.423-1.054c.186-2.034,1.4-3.646,3.012-3.812,1.922-.2,3.7,1.719,3.964,4.286,0,.042.007.083.01.125.213,2.518-1.12,4.69-3.012,4.885-1.922.2-3.7-1.719-3.963-4.286A6.346,6.346,0,0,1,365.932,656.395Z" transform="translate(-313.978 -543.723)" fill="#4dbcfb"/>
            <path id="Trazado_273" data-name="Trazado 273" d="M373.315,652.715c-.362-3.487-2.77-6.093-5.382-5.822a4.56,4.56,0,0,0-3.6,3.12,7.73,7.73,0,0,0-.5,3.35c0,.11.015.22.027.33a8.184,8.184,0,0,0,.682,2.548c.968,2.118,2.78,3.474,4.7,3.274,2.247-.232,3.912-2.518,4.1-5.374A8.462,8.462,0,0,0,373.315,652.715Zm-3.421,5.856c-1.922.2-3.7-1.719-3.963-4.286a6.35,6.35,0,0,1-.01-1.2c-.213-2.518,1.12-4.69,3.012-4.885a2.689,2.689,0,0,1,.829.044,4.209,4.209,0,0,1,2.883,3.027,6.018,6.018,0,0,1,.252,1.215,6.341,6.341,0,0,1,.01,1.2C373.12,656.2,371.787,658.376,369.895,658.571Z" transform="translate(-313.968 -540.415)" fill="#231f20" opacity="0.24" style="mix-blend-mode: soft-light;isolation: isolate"/>
            <path id="Trazado_274" data-name="Trazado 274" d="M381.241,661.824c.157,1.862-.828,3.468-2.228,3.613-1.421.148-2.734-1.271-2.931-3.17a4.691,4.691,0,0,1-.007-.886c-.157-1.862.828-3.468,2.228-3.613a1.984,1.984,0,0,1,.613.033,3.112,3.112,0,0,1,2.132,2.239,4.444,4.444,0,0,1,.186.9A4.686,4.686,0,0,1,381.241,661.824Z" transform="translate(-323.211 -548.631)" fill="#021c41"/>
            <path id="Trazado_275" data-name="Trazado 275" d="M358.48,656.982s-.858,5.113-6.726,4.653c-.112-.01-.222-.02-.33-.032-5.57-.552-6.35-3.724-4.91-6.14.9-1.518,5.247-.587,8.44.352C356.939,656.4,358.48,656.982,358.48,656.982Z" transform="translate(-300.433 -546.292)" fill="#1595d1"/>
            <path id="Trazado_276" data-name="Trazado 276" d="M350.807,587.057s-2.267.038-5.389-.028c-5.784-.122-14.495-.6-17.088-2.348-3.99-2.682-.081-17.752,7.427-21.411a13.991,13.991,0,0,1,1.359-.577c7.758-2.876,20.586-1.012,22.212,6.615C361.049,577.4,350.807,587.057,350.807,587.057Z" transform="translate(-285.983 -475.901)" fill="#231f20" opacity="0.24" style="mix-blend-mode: soft-light;isolation: isolate"/>
            <path id="Trazado_277" data-name="Trazado 277" d="M354.954,655.815c-.318,1.091-1.44,4.431-3.531,5.787-5.57-.552-6.35-3.724-4.91-6.14C347.418,653.945,351.76,654.877,354.954,655.815Z" transform="translate(-300.433 -546.292)" fill="#17a6e9"/>
            <path id="Trazado_278" data-name="Trazado 278" d="M341.481,589.347s-2.267.037-5.389-.029a86.409,86.409,0,0,1-13.494-1.125A10.69,10.69,0,0,1,319,586.971c-3.99-2.682-.081-17.751,7.428-21.412a14.575,14.575,0,0,1,1.359-.577c5.819-2.156,14.492-1.648,19.147,1.963l.213.166a8.289,8.289,0,0,1,2.328,2.922,6.82,6.82,0,0,1,.4,1.063c.049.164.09.33.127.5a9.027,9.027,0,0,1,.147.922C350.965,580.4,341.481,589.347,341.481,589.347Z" transform="translate(-278.943 -477.629)" fill="#208bbe"/>
            <path id="Trazado_279" data-name="Trazado 279" d="M459.031,615.371s-4.865,6.091-1.789,9.63,16.773,2.489,16.773,2.489Z" transform="translate(-383.727 -516.634)" fill="#231f20" opacity="0.24" style="mix-blend-mode: soft-light;isolation: isolate"/>
            <path id="Trazado_280" data-name="Trazado 280" d="M426.345,664.909l-25.521-4.388-7.212,1.885,26.725,4.572Z" transform="translate(-336.463 -550.717)" fill="#002c42"/>
            <path id="Trazado_281" data-name="Trazado 281" d="M488.863,559.149l-2.33,4.707s-10.167-1.521-15.983-3.193c-.147-.042-.291-.086-.433-.127a5.332,5.332,0,0,1-2.125-1.188,6.027,6.027,0,0,1-1.753-3.624,15.217,15.217,0,0,1,.782-6.709A23.893,23.893,0,0,1,469,544.542c3.425-5.978,1.885-14.064,1.885-14.064a.3.3,0,0,1,.044-.012c.577-.161,6.656-1.782,6.521,1.888a33.578,33.578,0,0,1-1.139,5.335c-1.45,5.66-3.394,13.668-.117,17.937a7.728,7.728,0,0,0,3.7,2.408A27.8,27.8,0,0,0,488.863,559.149Z" transform="translate(-391.204 -452.167)" fill="#026ea0"/>
            <path id="Trazado_282" data-name="Trazado 282" d="M472.959,633.968c-.822,1.049-3.027,1.68-4.624,1.7a6.026,6.026,0,0,1-1.753-3.624,2.431,2.431,0,0,1,.54-.108c2.726-.274,4.23,2.149,5.259,1.3a1.827,1.827,0,0,0,.369-2.166A2.07,2.07,0,0,1,472.959,633.968Z" transform="translate(-391.547 -528.487)" fill="#fff" opacity="0.31" style="mix-blend-mode: soft-light;isolation: isolate"/>
            <path id="Trazado_283" data-name="Trazado 283" d="M480.205,532.354a33.555,33.555,0,0,1-1.139,5.335c-1.851-1.186-2.1,1.616-4.369,4.729-2.853,3.91-4.919,6.6-4.919,6.6l0,0a23.9,23.9,0,0,1,1.981-4.472c3.425-5.978,1.885-14.064,1.885-14.064a.3.3,0,0,1,.044-.012C474.261,530.3,480.34,528.684,480.205,532.354Z" transform="translate(-393.957 -452.167)" fill="#231f20" opacity="0.55" style="mix-blend-mode: soft-light;isolation: isolate"/>
            <path id="Trazado_284" data-name="Trazado 284" d="M502.482,645.575l-2.33,4.707s-10.167-1.521-15.983-3.193a19.382,19.382,0,0,1,6.2-.127c4.051.511,2.934-.164,2.724-1.707a.85.85,0,0,1,.416-.795A27.791,27.791,0,0,0,502.482,645.575Z" transform="translate(-404.823 -538.593)" fill="#231f20" opacity="0.55" style="mix-blend-mode: soft-light;isolation: isolate"/>
            <g id="Grupo_75" data-name="Grupo 75" transform="translate(79.944 96.156)" opacity="0.55" style="mix-blend-mode: soft-light;isolation: isolate">
              <path id="Trazado_285" data-name="Trazado 285" d="M486.935,605.963c.22.033.435-.191.482-.5s-.095-.585-.315-.618-.436.191-.482.5S486.715,605.93,486.935,605.963Z" transform="translate(-486.611 -604.842)" fill="#231f20"/>
              <path id="Trazado_286" data-name="Trazado 286" d="M488.273,614.065a.214.214,0,0,0-.2.118.9.9,0,0,1-.649.1c.009-.271-.123-.5-.322-.529-.22-.033-.436.191-.482.5s.095.585.315.618a.374.374,0,0,0,.341-.165.982.982,0,0,0,.907-.035c.119.018.235-.1.26-.269S488.392,614.082,488.273,614.065Z" transform="translate(-486.611 -611.564)" fill="#231f20"/>
            </g>
            <path id="Trazado_287" data-name="Trazado 287" d="M487.375,602.664c0,.312-.18.565-.4.565s-.4-.253-.4-.565.18-.565.4-.565S487.375,602.352,487.375,602.664Z" transform="translate(-406.636 -506.615)" fill="#021c41"/>
            <path id="Trazado_288" data-name="Trazado 288" d="M487.375,611.992c0,.312-.18.565-.4.565s-.4-.253-.4-.565.18-.565.4-.565S487.375,611.68,487.375,611.992Z" transform="translate(-406.636 -513.657)" fill="#021c41"/>
            <path id="Trazado_289" data-name="Trazado 289" d="M488.184,612.19s.474.426,1.145-.2v.61a.935.935,0,0,1-1.093.063S487.957,612.522,488.184,612.19Z" transform="translate(-407.787 -514.081)" fill="#0a335b"/>
            <ellipse id="Elipse_559" data-name="Elipse 559" cx="0.217" cy="0.305" rx="0.217" ry="0.305" transform="translate(81.325 97.908)" fill="#021c41"/>
            <path id="Trazado_290" data-name="Trazado 290" d="M615.882,469.849q-.538-1.484-1.036-2.865c-3.951-10.935-5.616-15.391-7.145-15.872-.43-.135-1.141-.333-1.947-.55a6.844,6.844,0,0,1-.016.756c.726.2,1.356.372,1.743.494,1.244.391,3.522,6.7,6.675,15.422q.5,1.38,1.036,2.865a32.4,32.4,0,0,1,1.429,12.4,7.341,7.341,0,0,1,.753.332A33.461,33.461,0,0,0,615.882,469.849Z" transform="translate(-496.593 -392.223)" fill="#002c42"/>
            <path id="Trazado_291" data-name="Trazado 291" d="M531.145,499.68c-6.008,3.213-28.5,3.912-28.5,3.912s4.472-1.257,10.34-11.6a26.9,26.9,0,0,0,2.988-9.643,47.879,47.879,0,0,0,.377-7.572c-.178-6.966-1.638-13.375-2.875-16.037-2.306-4.959-2.795-12.433.418-13.639a13.84,13.84,0,0,1,5.453-.469.042.042,0,0,1,.017,0,29.289,29.289,0,0,1,3.489.467s5.362,1.345,6.917,1.834c1.274.4,3.071,5.059,5.9,12.866q.943,2.6,2.044,5.646C541.763,476.628,537.152,496.467,531.145,499.68Z" transform="translate(-418.768 -387.698)" fill="#026ea0"/>
            <path id="Trazado_292" data-name="Trazado 292" d="M531.145,546.6c-6.008,3.213-28.5,3.912-28.5,3.912s4.472-1.257,10.34-11.6a26.9,26.9,0,0,0,2.988-9.643c.267-.4.423-.633.452-.672-.093.3-3.071,9.822,0,12.68,3.122,2.9,7.844-3.382,7.944-9.042s12.213-9.883,12.761-10.338.558-1.579-.548-7.88c-.418-2.379-.712-4.981-.915-7.3q.943,2.6,2.044,5.646C541.763,523.547,537.152,543.387,531.145,546.6Z" transform="translate(-418.768 -434.617)" fill="#231f20" opacity="0.55" style="mix-blend-mode: soft-light;isolation: isolate"/>
            <path id="Trazado_293" data-name="Trazado 293" d="M587.8,472.069s2.795,9.523,1.887,12.178a89.123,89.123,0,0,0-2.725,10.592c-.908,4.427.492,5.1-.592,7.591s-.093,6.885-.093,6.885-6.554,10.78-4.611,13.394,10.606-18.064,10.606-18.064l.685-18.093Z" transform="translate(-478.151 -408.458)" fill="#231f20" opacity="0.55" style="mix-blend-mode: soft-light;isolation: isolate"/>
            <path id="Trazado_294" data-name="Trazado 294" d="M620.673,501.98c-.108.291-.809.337-2.264.247-.56-.034-1.232-.09-2.027-.159a7.658,7.658,0,0,0-3.741.787,23.726,23.726,0,0,0-6.4,4.714c-1.308-1.289.577-6.083.24-10.022s2.746-8.232,3.364-11.568-3.575-14.265-3.575-14.265a1.116,1.116,0,0,1,1.384.379v0c2.6,2.677,4.856,15.453,6.521,18.045,1.954,3.039,3.9,8.812,5.616,10.531C620.44,501.322,620.768,501.738,620.673,501.98Z" transform="translate(-496.619 -408.103)" fill="#0f88c1"/>
            <path id="Trazado_295" data-name="Trazado 295" d="M626.265,503.509l-2.264.247-5.768.628-.54.059s.726-5.753.213-7.773-1.13-10.795-1.971-14.2-3.174-7.526-2.69-8.846c2.6,2.677,4.856,15.453,6.521,18.045,1.954,3.039,3.9,8.812,5.616,10.531C626.033,502.851,626.36,503.267,626.265,503.509Z" transform="translate(-502.211 -409.632)" fill="#fff" opacity="0.31" style="mix-blend-mode: soft-light;isolation: isolate"/>
            <path id="Trazado_296" data-name="Trazado 296" d="M632.051,541.994c-.652-1.729-2.138-2.77-3.319-2.325s-1.609,2.208-.957,3.937,2.138,2.77,3.319,2.325S632.7,543.723,632.051,541.994Z" transform="translate(-512.999 -459.41)" fill="#edccc4"/>
            <path id="Trazado_297" data-name="Trazado 297" d="M633.612,543.122c.584,1.548.2,3.126-.857,3.525s-2.387-.533-2.971-2.081-.2-3.126.857-3.525S633.028,541.574,633.612,543.122Z" transform="translate(-514.54 -460.454)" fill="#d61c0d"/>
            <path id="Trazado_298" data-name="Trazado 298" d="M632.456,545.862s1.746-.939,2.532-.69S632.884,545.779,632.456,545.862Z" transform="translate(-516.763 -463.61)" fill="#fff" opacity="0.633" style="mix-blend-mode: soft-light;isolation: isolate"/>
            <path id="Trazado_299" data-name="Trazado 299" d="M635.663,555.374s1.746-.939,2.532-.69S636.09,555.291,635.663,555.374Z" transform="translate(-519.183 -470.79)" fill="#fff" opacity="0.633" style="mix-blend-mode: soft-light;isolation: isolate"/>
            <path id="Trazado_300" data-name="Trazado 300" d="M632.578,550.44s2.153-1.157,3.122-.851S633.106,550.338,632.578,550.44Z" transform="translate(-516.855 -466.938)" fill="#fff" opacity="0.633" style="mix-blend-mode: soft-light;isolation: isolate"/>
            <path id="Trazado_301" data-name="Trazado 301" d="M647.263,639.628a22.4,22.4,0,0,0-2.7-8.634,19.111,19.111,0,0,0-7.43-7.523h0a15.788,15.788,0,0,0-4.809-1.7,14.827,14.827,0,0,0-4.13-.147c-.465.049-.924.117-1.374.208v0h0q-.679.132-1.33.328h-.005a15.983,15.983,0,0,0-7.382,4.792s0,0,0,0h0a19.851,19.851,0,0,0-4.3,8.213,22.533,22.533,0,0,0-.579,7.983c1.093,10.55,9.108,18.433,18.13,18.071l.01,0c.311-.01.621-.034.932-.066C641.691,660.184,648.4,650.546,647.263,639.628Zm-30.089,3.347c-.626-6.034,3.081-11.365,8.279-11.9s9.92,3.917,10.546,9.954-3.083,11.365-8.282,11.9-9.92-3.917-10.543-9.954Z" transform="translate(-502.143 -521.296)" fill="#021c41"/>
            <path id="Trazado_302" data-name="Trazado 302" d="M632.354,642.109a22.42,22.42,0,0,0-2.8-8.819c-3.184-5.567-8.617-9.2-14.568-9.262-.249,0-.5,0-.753.01h0c-.313.012-.626.037-.941.069-5.592.582-10.23,4.225-12.832,9.379a20.3,20.3,0,0,0-1.438,3.7,22.485,22.485,0,0,0-.709,8.453c1.132,10.915,9.67,18.976,19.074,18a14.787,14.787,0,0,0,2.711-.54l.01,0C628.036,660.733,633.372,651.941,632.354,642.109ZM616.461,654.8c-5.2.538-9.92-3.917-10.543-9.954s3.081-11.365,8.279-11.9,9.92,3.917,10.546,9.954S621.66,654.264,616.461,654.8Z" transform="translate(-490.887 -523.168)" fill="#062449"/>
            <path id="Trazado_303" data-name="Trazado 303" d="M644.644,663.694c-.743-7.171-6.35-12.465-12.526-11.824s-10.58,6.971-9.836,14.14,6.352,12.465,12.526,11.824S645.388,670.862,644.644,663.694ZM634.6,675.78c-5.2.538-9.92-3.917-10.543-9.954s3.081-11.365,8.279-11.9,9.92,3.917,10.546,9.954S639.793,675.242,634.6,675.78Z" transform="translate(-509.021 -544.146)" fill="#4dbcfb"/>
            <path id="Trazado_304" data-name="Trazado 304" d="M644.556,685.773c-4.369.452-8.338-3.294-8.863-8.367s2.589-9.555,6.961-10.008,8.34,3.294,8.866,8.367S648.927,685.321,644.556,685.773Z" transform="translate(-519.162 -555.881)" fill="#1595d1"/>
            <path id="Trazado_305" data-name="Trazado 305" d="M623.691,623.7c.349.349,8.238,16.7,8.238,16.7l2.66-1.956-6.363-17.395Z" transform="translate(-510.146 -520.919)" fill="#021c41"/>
            <path id="Trazado_306" data-name="Trazado 306" d="M628.838,623.7c.349.349,8.238,16.7,8.238,16.7l2.661-1.956-6.363-17.395Z" transform="translate(-514.031 -520.919)" fill="#081839" opacity="0.38"/>
            <ellipse id="Elipse_560" data-name="Elipse 560" cx="4.509" cy="5.235" rx="4.509" ry="5.235" transform="matrix(0.995, -0.103, 0.103, 0.995, 119.419, 115.962)" fill="#021c41"/>
            <path id="Trazado_307" data-name="Trazado 307" d="M661.413,693.153a3.259,3.259,0,1,1-3.591-3.39A3.512,3.512,0,0,1,661.413,693.153Z" transform="translate(-533.764 -572.78)" fill="#062449"/>
            <path id="Trazado_308" data-name="Trazado 308" d="M639.549,659.31a4.593,4.593,0,0,1-3.054-.893c-5.072-3.684-4.906-17.521-4.9-18.109a.4.4,0,0,1,.8.013c0,.139-.171,14.006,4.565,17.445a4.1,4.1,0,0,0,3.991.437.4.4,0,1,1,.261.76A6.3,6.3,0,0,1,639.549,659.31Z" transform="translate(-516.113 -535.161)" fill="#062449"/>
            <path id="Trazado_309" data-name="Trazado 309" d="M638.837,664.933a4.592,4.592,0,0,1-3.054-.893c-5.072-3.684-4.906-17.521-4.9-18.109a.4.4,0,0,1,.8.013c0,.139-.171,14.006,4.565,17.445a4.1,4.1,0,0,0,3.991.437.4.4,0,1,1,.261.761A6.31,6.31,0,0,1,638.837,664.933Z" transform="translate(-515.576 -539.405)" fill="#081839" opacity="0.38"/>
            <path id="Trazado_310" data-name="Trazado 310" d="M668.34,684.5a1.293,1.293,0,0,0-2.118-1l-7.172,2.607a2.711,2.711,0,0,0-.37.134h0a2.714,2.714,0,1,0,2.255,4.937h0a2.725,2.725,0,0,0,1.075-.9l5.446-4.548v0a1.3,1.3,0,0,0,.884-1.226Z" transform="translate(-535.361 -567.839)" fill="#4dbcfb"/>
            <circle id="Elipse_561" data-name="Elipse 561" cx="1.893" cy="1.893" r="1.893" transform="translate(121.755 120.879) rotate(-45)" fill="#0f88c1"/>
            <ellipse id="Elipse_562" data-name="Elipse 562" cx="0.818" cy="0.818" rx="0.818" ry="0.818" transform="translate(130.861 115.846)" fill="#0f88c1"/>
            <path id="Trazado_311" data-name="Trazado 311" d="M635.88,628.567a2.736,2.736,0,0,1-1.054.323,13.842,13.842,0,0,1-2.7.1,7.126,7.126,0,0,0-4.484.668c-3.43,1.467-7.983-.35-10.108-.489-1.377-.09-7.991,2.633-12.419,3.577a6.862,6.862,0,0,1-3.526.139,20.277,20.277,0,0,1,1.438-3.7,51.248,51.248,0,0,1,6.386-4.653h0s0,0,0,0c2.934-1.875,6.022-3.641,8.14-4.8.2-.112.394-.218.577-.318h0v0c1.2-.648,1.976-1.047,2.064-1.073a22.366,22.366,0,0,1,3.44,1.012c1.428.482,3.137,1.081,4.809,1.7h0A19.112,19.112,0,0,1,635.88,628.567Z" transform="translate(-493.459 -518.868)" fill="#081839" opacity="0.38"/>
            <path id="Trazado_312" data-name="Trazado 312" d="M623.835,592.616l-3.8.76-3.147.628c-10.482-1.516-17.3.254-21.365,3.157-3.841,2.748-9.108,7.423-11.695,8.13a2.547,2.547,0,0,1-.413.081c-2.4.254,2.528-7.325,5.465-15.409a12.444,12.444,0,0,1,6.648-7.619c3.509-1.6,8.184-1.885,14.159-1.35C620.93,582.007,623.835,592.616,623.835,592.616Z" transform="translate(-479.26 -490.497)" fill="#026ea0"/>
            <path id="Trazado_313" data-name="Trazado 313" d="M663.11,592.615l-3.8.76-3.147.628s-1-4.66-6.719-8.088l0,0A26.119,26.119,0,0,0,638.8,582.6l-.01,0c-1.24-.139-2.567-.227-3.988-.252a16.251,16.251,0,0,1,3.866-1.174c.293-.054.6-.1.9-.147a41.79,41.79,0,0,1,9.392-.029,15.48,15.48,0,0,1,9.619,4.313,17.9,17.9,0,0,1,4.528,7.308Z" transform="translate(-518.535 -490.496)" fill="#026ea0" opacity="0.54"/>
            <path id="Trazado_314" data-name="Trazado 314" d="M608.934,622.76c.577-.633,1.182-1.226,1.8-1.809s1.266-1.139,1.932-1.673a23.177,23.177,0,0,1,4.311-2.8c.191-.1.393-.184.594-.27s.4-.177.6-.25c.412-.141.822-.3,1.247-.4.419-.127.85-.2,1.278-.295.432-.065.865-.138,1.3-.168a15.365,15.365,0,0,1,2.628-.008c.438.037.875.088,1.311.166a10.831,10.831,0,0,1,1.325.307.642.642,0,1,1-.376,1.228l-.027-.009-.026-.009a9.857,9.857,0,0,0-1.133-.316c-.393-.09-.795-.155-1.2-.209a14.235,14.235,0,0,0-2.437-.107c-.408.009-.813.059-1.219.1-.4.067-.808.119-1.2.22-.4.078-.791.206-1.184.32-.2.059-.385.14-.578.209s-.386.139-.573.228a22.512,22.512,0,0,0-4.3,2.522,34.037,34.037,0,0,0-3.84,3.255l0,0a.166.166,0,0,1-.24-.231Z" transform="translate(-498.973 -516.377)" fill="#002c42"/>
            <path id="Trazado_315" data-name="Trazado 315" d="M618.7,599.706c-10.482-1.516-17.3.254-21.365,3.157-3.841,2.748-9.108,7.423-11.695,8.13l-.465-.406c3.012-1.675,8.619-7.966,14.89-11.428s14.688-1.985,14.688-1.985c-.929-5.262-13.039-8.766-13.416-8.873C616.618,590.026,618.7,599.706,618.7,599.706Z" transform="translate(-481.073 -496.199)" fill="#231f20" opacity="0.55" style="mix-blend-mode: soft-light;isolation: isolate"/>
            <path id="Trazado_316" data-name="Trazado 316" d="M583.877,640.906a.489.489,0,0,1-.051-.975c1.575-.165,5.043-2.869,8.1-5.254,1.34-1.044,2.605-2.031,3.773-2.867,3.379-2.417,9.874-4.94,21.637-3.257l6.863-1.371a.489.489,0,0,1,.192.959l-6.945,1.388a.5.5,0,0,1-.166,0c-11.493-1.66-17.771.754-21.011,3.073-1.152.824-2.409,1.8-3.741,2.843-3.47,2.706-6.748,5.261-8.6,5.455Z" transform="translate(-479.723 -525.542)" fill="#002c42"/>
            <path id="Trazado_317" data-name="Trazado 317" d="M661.793,585.8l-.02-.007c-.685-.227-3.558-2.751-13.764-3.267.3-.054.617-.1.933-.147,3.568-.068,10.406.137,13.337,2.521a.521.521,0,0,1-.486.9Z" transform="translate(-528.503 -491.72)" fill="#231f20" opacity="0.55" style="mix-blend-mode: soft-light;isolation: isolate"/>
            <path id="Trazado_318" data-name="Trazado 318" d="M663.9,585.264l-.02-.007c-.663-.227-3.44-2.751-13.308-3.267.293-.054.6-.1.9-.147,3.45-.068,10.061.137,12.9,2.521a.519.519,0,0,1-.469.9Z" transform="translate(-530.44 -491.317)" fill="#231f20" opacity="0.55" style="mix-blend-mode: soft-light;isolation: isolate"/>
            <path id="Trazado_319" data-name="Trazado 319" d="M708.2,606.66l-3.8.76-3.147.628s-1-4.66-6.719-8.088c.176.071,5.866,2.406,7.174,4.333,1.328,1.956,3.073,1.746,2.863,0-.183-1.548-1.792-2.895-.9-4.942A17.9,17.9,0,0,1,708.2,606.66Z" transform="translate(-563.625 -504.542)" fill="#fff" opacity="0.31" style="mix-blend-mode: soft-light;isolation: isolate"/>
            <path id="Trazado_320" data-name="Trazado 320" d="M550.494,456.292c2.423,8.306-2,22.123-6.526,18.487-.178-6.966-1.638-13.375-2.875-16.037-2.306-4.959-2.795-12.433.418-13.639a13.839,13.839,0,0,1,5.453-.469.041.041,0,0,1,.017,0c2.293.271,4.213,1.083,4.739,2.929C553.245,452.937,547.743,446.861,550.494,456.292Z" transform="translate(-446.39 -387.698)" fill="#fff" opacity="0.31" style="mix-blend-mode: soft-light;isolation: isolate"/>
            <path id="Trazado_321" data-name="Trazado 321" d="M529.06,445.832c-.063.193-.373.087-.569.027-1.526-.481-6.811-1.521-6.866-1.534a29.428,29.428,0,0,0-3.425-.457.11.11,0,0,1-.03,0,13.211,13.211,0,0,0-5.285.449,2.743,2.743,0,0,0-1.5,1.657c-1.064,2.6-.5,7.644,1.287,11.482,1.314,2.826,2.734,9.29,2.911,16.185.125,4.975-.365,12.034-3.411,17.4-.354.623-.7,1.211-1.044,1.771-.748,1.224-1.472,2.3-2.16,3.245h0c-4.235,5.81-7.2,6.711-7.355,6.754a.4.4,0,0,1-.1.014.367.367,0,0,1-.1-.721c.038-.011,2.777-.876,6.727-6.169.737-.99,1.518-2.133,2.331-3.455.348-.569.7-1.167,1.064-1.8,2.965-5.226,3.441-12.143,3.316-17.026-.171-6.722-1.591-13.2-2.84-15.891-1.893-4.069-2.451-9.26-1.3-12.072a3.448,3.448,0,0,1,1.923-2.065,13.766,13.766,0,0,1,5.609-.492c.008,0,.019,0,.03.005a29.133,29.133,0,0,1,3.525.473c.231.057,5.405,1.355,6.95,1.842C528.937,445.513,529.12,445.639,529.06,445.832Z" transform="translate(-417.636 -386.564)" fill="#002c42"/>
            <path id="Trazado_322" data-name="Trazado 322" d="M361.57,537.718c3.022-1.7,19.749-3.746,26.294-4.492-8.739,1.281-25.822,6.083-27.2,6.91-.665.4-.936,0-1.032-.584A5.427,5.427,0,0,1,361.57,537.718Z" transform="translate(-310.81 -454.625)" fill="#fff" opacity="0.31" style="mix-blend-mode: soft-light;isolation: isolate"/>
            <path id="Trazado_323" data-name="Trazado 323" d="M485.545,530.9a.3.3,0,0,1,.044-.012,14.97,14.97,0,0,1,1.685-.357C487.481,530.685,487.019,530.817,485.545,530.9Z" transform="translate(-405.862 -452.591)" fill="#231f20"/>
            <path id="Trazado_324" data-name="Trazado 324" d="M418.428,582.084a7.506,7.506,0,0,1-6.946.895c-5.553-1.78-3.059-5.279-3.059-5.279s4.142-1.841,6.795-1.191a8.371,8.371,0,0,1,2.54,3.088h-3.342a12.622,12.622,0,0,0,3.738,1.064c.049.164.09.33.127.5A9.044,9.044,0,0,1,418.428,582.084Z" transform="translate(-347.222 -487.193)" fill="#fff" opacity="0.31" style="mix-blend-mode: soft-light;isolation: isolate"/>
            <path id="Trazado_325" data-name="Trazado 325" d="M336.092,593.046c-.174,0-.347-.007-.526-.012l-.127,0c-4.849-.122-11.4-.5-14.844-1.616l-.081-.027A6.269,6.269,0,0,1,319,590.7c-3.99-2.682-.081-17.751,7.428-21.411a14.531,14.531,0,0,1,1.359-.577c9.142-.626,13.854,2.966,16.353,8.719C346.515,582.892,338.358,590.951,336.092,593.046Z" transform="translate(-278.942 -481.357)" fill="#026ea0"/>
            <path id="Trazado_326" data-name="Trazado 326" d="M345.978,603.774a13.459,13.459,0,0,0-4.774-4.007,13.933,13.933,0,0,0-2.93-1.066,18.288,18.288,0,0,0-3.087-.5c-.26-.03-.521-.042-.782-.053s-.523-.029-.784-.033h-.786c-.265,0-.521,0-.774.022a6.106,6.106,0,0,0-1.495.309,8.333,8.333,0,0,0-1.393.66,12.529,12.529,0,0,0-2.454,1.93,19.223,19.223,0,0,0-2.042,2.41,13.781,13.781,0,0,1,4.3-4.666,7.789,7.789,0,0,1,1.448-.738,6.542,6.542,0,0,1,1.6-.366,7.268,7.268,0,0,1,.81-.033l.8-.006c.267,0,.533.019.8.028s.534.019.8.049a15.613,15.613,0,0,1,6.151,1.714,12.126,12.126,0,0,1,2.6,1.874A12.7,12.7,0,0,1,345.978,603.774Z" transform="translate(-284.425 -503.247)" fill="#021c41"/>
            <path id="Trazado_327" data-name="Trazado 327" d="M336.36,624.477q2.857.427,5.726.753c.956.1,1.913.2,2.87.27a18.488,18.488,0,0,0,2.849.038h.013a.249.249,0,0,1,.252.258.277.277,0,0,1-.225.3h-.005a18.654,18.654,0,0,1-2.923-.112c-.962-.1-1.919-.218-2.875-.347q-2.867-.4-5.718-.9a.126.126,0,0,1-.09-.148A.118.118,0,0,1,336.36,624.477Z" transform="translate(-293.148 -523.508)" fill="#021c41"/>
            <path id="Trazado_328" data-name="Trazado 328" d="M335.745,633.7q2.857.427,5.727.753c.956.1,1.913.2,2.87.27a18.5,18.5,0,0,0,2.849.038h.013a.249.249,0,0,1,.252.258.277.277,0,0,1-.225.3h-.005a18.647,18.647,0,0,1-2.923-.112c-.962-.1-1.919-.218-2.875-.347q-2.867-.4-5.718-.9a.126.126,0,0,1-.09-.148A.118.118,0,0,1,335.745,633.7Z" transform="translate(-292.684 -530.474)" fill="#021c41"/>
            <path id="Trazado_329" data-name="Trazado 329" d="M335.13,642.933q2.857.427,5.726.753c.956.1,1.913.2,2.87.27a18.48,18.48,0,0,0,2.849.038h.013a.249.249,0,0,1,.252.258.277.277,0,0,1-.225.3h-.005a18.655,18.655,0,0,1-2.923-.112c-.962-.1-1.919-.217-2.875-.347q-2.867-.4-5.718-.9a.126.126,0,0,1-.09-.148A.118.118,0,0,1,335.13,642.933Z" transform="translate(-292.219 -537.44)" fill="#021c41"/>
            <path id="Trazado_330" data-name="Trazado 330" d="M370.322,585c0,.444-.248.8-.553.8s-.553-.36-.553-.8.248-.8.553-.8S370.322,584.561,370.322,585Z" transform="translate(-318.046 -493.104)" fill="#231f20" opacity="0.55" style="mix-blend-mode: soft-light;isolation: isolate"/>
            <path id="Trazado_331" data-name="Trazado 331" d="M369.324,584.1c0,.444-.248.8-.554.8s-.553-.36-.553-.8.248-.8.553-.8S369.324,583.655,369.324,584.1Z" transform="translate(-317.293 -492.421)" fill="#021c41"/>
            <path id="Trazado_332" data-name="Trazado 332" d="M346.882,599.093l-1.768,16.93-.127,0,.653-11.538-14.216-1.4L330.143,614.4l-.081-.027c.269-4.269,1-15.284,1-15.284l.215,3.592,14.365,1.125Z" transform="translate(-288.49 -504.346)" fill="#021c41" opacity="0.05"/>
            <path id="Trazado_333" data-name="Trazado 333" d="M342.431,668.378c.1,0,.147-.007.147-.007A.3.3,0,0,1,342.431,668.378Z" transform="translate(-297.828 -556.642)" fill="#021c41"/>
            <path id="Trazado_334" data-name="Trazado 334" d="M347.151,567.112c-.68,3.1-3.232,6.431-5.272,6-3.421-.719-4.213-.2-10.661,1.976s-3.4-5.391-4.934-4.978-5.047,6.435-4.558,13.123a17.855,17.855,0,0,0,.87,4.961A10.69,10.69,0,0,1,319,586.971c-3.99-2.682-.081-17.751,7.428-21.412a14.571,14.571,0,0,1,1.359-.577c5.819-2.156,14.492-1.648,19.147,1.963Z" transform="translate(-278.943 -477.629)" fill="#231f20" opacity="0.28" style="mix-blend-mode: soft-light;isolation: isolate"/>
            <path id="Trazado_335" data-name="Trazado 335" d="M439.651,664.775l-.032.027a24.6,24.6,0,0,1-2.851,1.878c-.487.264-2.765-.047-5.656-.6-5.758-1.105-13.939-3.184-15.181-3.616-1.863-.653,3.073-1.386,3.073-1.386l.032,0,.039.007.061.012Z" transform="translate(-352.994 -551.138)" fill="#153257"/>
            <path id="Trazado_336" data-name="Trazado 336" d="M476.218,674.545a3.151,3.151,0,0,1,.67.266C476.541,674.682,476.289,674.577,476.218,674.545Z" transform="translate(-398.821 -561.303)" fill="#231f20" opacity="0.55" style="mix-blend-mode: soft-light;isolation: isolate"/>
            <path id="Trazado_337" data-name="Trazado 337" d="M450.785,664.878a24.566,24.566,0,0,1-2.851,1.878c-.487.264-2.765-.046-5.655-.6-.863-.306-1.105-.565-.359-.792s.606-.467.308-.643c1.059.4,3,1.01,3.325.355.428-.858-13.722-3.6-15.25-3.9Z" transform="translate(-364.16 -551.213)" fill="#231f20" opacity="0.55" style="mix-blend-mode: soft-light;isolation: isolate"/>
            <path id="Trazado_338" data-name="Trazado 338" d="M522.447,639.753c-.813,1.322-1.594,2.465-2.331,3.455-.392-.057-.919-.131-1.667-.239a1.531,1.531,0,0,1-1.436-1.477,6.048,6.048,0,0,1,.367-2.6,1.4,1.4,0,0,1,1.006-.737c-.016.071-.035.139-.054.207.052.027-.424.759,1.064,1.2,1.529.451,1.9-.172,1.9-.172l.049-.193C521.688,639.372,522.061,639.557,522.447,639.753Z" transform="translate(-429.615 -533.836)" fill="#021c41"/>
            <path id="Trazado_339" data-name="Trazado 339" d="M515.7,363.8a2.33,2.33,0,0,1-2.2,2.445,1.979,1.979,0,0,1-.819-.176,2.456,2.456,0,0,1-1.379-2.269,2.333,2.333,0,0,1,2.2-2.445c.042,0,.081,0,.12,0A2.35,2.35,0,0,1,515.7,363.8Z" transform="translate(-425.309 -324.881)" fill="#021c41"/>
            <path id="Trazado_340" data-name="Trazado 340" d="M515,363.626a2.333,2.333,0,0,1-2.2,2.445c-.042,0-.081,0-.12,0a2.456,2.456,0,0,1-1.379-2.269,2.333,2.333,0,0,1,2.2-2.445c.042,0,.081,0,.12,0A2.462,2.462,0,0,1,515,363.626Z" transform="translate(-425.309 -324.881)" fill="#092a51"/>
            <path id="Trazado_341" data-name="Trazado 341" d="M530.576,380.188a.255.255,0,0,1-.161.088.458.458,0,0,1-.328-.088l-1.284-6.763-4.934-2.516.091-.159.105-.188,4.973,2.548Z" transform="translate(-434.792 -331.832)" fill="#021c41"/>
            <path id="Trazado_342" data-name="Trazado 342" d="M530.415,380.856a.458.458,0,0,1-.328-.088l-1.284-6.763-4.934-2.516.091-.159,4.934,2.531Z" transform="translate(-434.792 -332.412)" fill="#092a51"/>
            <path id="Trazado_343" data-name="Trazado 343" d="M548.38,406.833l.087.751a1.2,1.2,0,0,0,.891-.192l-.279-.734A.569.569,0,0,0,548.38,406.833Z" transform="translate(-453.295 -359.039)" fill="#021c41"/>
            <path id="Trazado_344" data-name="Trazado 344" d="M523.921,370.192a.489.489,0,1,1-.489-.489A.489.489,0,0,1,523.921,370.192Z" transform="translate(-434.093 -331.183)" fill="#021c41"/>
            <path id="Trazado_345" data-name="Trazado 345" d="M436.188,471.484s4.232-7.355,16.289-1.288c3.925,1.975,6.913,12.068,8.479,18.13,1.309,5.069-9.675.3-9.675.3S436.245,479.767,436.188,471.484Z" transform="translate(-368.603 -405.233)" fill="#ac2419"/>
            <path id="Trazado_346" data-name="Trazado 346" d="M437.006,322.6a3.929,3.929,0,0,0-2.931-.057c-5.161,1.6-7.041,12.98-7.041,12.98.642.585,3.446,1.383,5.875,1.993,2.046.511,3.826.892,3.826.892a77.6,77.6,0,0,0,2.67-8.852C439.626,327.931,439.416,323.771,437.006,322.6Z" transform="translate(-361.692 -295.395)" fill="url(#radial-gradient)"/>
            <path id="Trazado_347" data-name="Trazado 347" d="M448.7,235.347l17.212-3.749s-2.944-8.686-11.192-6.686S448.7,235.347,448.7,235.347Z" transform="translate(-377.845 -221.657)" fill="#d61c0d"/>
            <path id="Trazado_348" data-name="Trazado 348" d="M449.954,247.475a22.312,22.312,0,0,0,5.133-1.895c1.738-1.084,7.859-5.491,10.565-4.229s.169,2.319.169,2.319L455.81,246.6Z" transform="translate(-378.995 -234.123)" fill="#231f20" opacity="0.55" style="mix-blend-mode: soft-light;isolation: isolate"/>
            <path id="Trazado_349" data-name="Trazado 349" d="M466.451,228.691s4.7-.836,6.139.608,3.337.767,2.525,0S472.038,226.28,466.451,228.691Z" transform="translate(-391.449 -223.917)" fill="#fff" opacity="0.621" style="mix-blend-mode: soft-light;isolation: isolate"/>
            <path id="Trazado_350" data-name="Trazado 350" d="M487.976,244.024l-.1.024-7.675,1.807-5.822.751-2.046.263c2.54-1.828,4.682-4.718,10.768-5.3S487.976,244.024,487.976,244.024Z" transform="translate(-395.891 -234.397)" fill="#e01303"/>
            <path id="Trazado_351" data-name="Trazado 351" d="M448.864,261.272s-.278.312-.06.422,10.011-1.669,10.731-2.287S448.864,261.272,448.864,261.272Z" transform="translate(-378.064 -247.847)" fill="#860b01"/>
            <path id="Trazado_352" data-name="Trazado 352" d="M494.183,248.288l-7.675,1.807-5.822.751a14.733,14.733,0,0,1,8.722-3.665C492.591,246.876,493.776,247.561,494.183,248.288Z" transform="translate(-402.194 -238.637)" fill="#860b01"/>
            <path id="Trazado_353" data-name="Trazado 353" d="M486.158,640.445l-2.1,6.288-3.437.564,1.833-6.685Z" transform="translate(-402.145 -535.562)" fill="#f6b691"/>
            <path id="Trazado_354" data-name="Trazado 354" d="M485.637,661.493l-1.064-2.461-3.838-.336s-.861,2.118-.139,3.474a1.851,1.851,0,0,0,1.912,1.112Z" transform="translate(-401.908 -549.339)" fill="#0e203a"/>
            <path id="Trazado_355" data-name="Trazado 355" d="M489.284,669.872a2.76,2.76,0,0,1,3.156-2.441c2.97.119,2.381,2.663,2.381,2.663Z" transform="translate(-408.684 -555.93)" fill="#232750"/>
            <path id="Trazado_356" data-name="Trazado 356" d="M482.17,563.266s.535-21.408,5.018-26.5,7.344-1.941,8.479,1.613-4.6,19.777-8.961,25.684C486.016,565,482.17,563.266,482.17,563.266Z" transform="translate(-403.314 -455.284)" fill="#ac2419"/>
            <path id="Trazado_357" data-name="Trazado 357" d="M484.645,577.693s.451-18.071,4.236-22.37,6.2-1.638,7.157,1.361-3.886,16.694-7.564,21.681C487.891,579.155,484.645,577.693,484.645,577.693Z" transform="translate(-405.182 -469.607)" fill="#fff" opacity="0.2" style="mix-blend-mode: soft-light;isolation: isolate"/>
            <path id="Trazado_358" data-name="Trazado 358" d="M465.029,488.227c-3.056-2.186-11.259-9.889-7.552-12.994s10.659-2.221,12.668,1.3,6.389,14.466,3.7,14.838S466.932,489.588,465.029,488.227Z" transform="translate(-383.961 -409.41)" fill="#fff" opacity="0.2" style="mix-blend-mode: soft-light;isolation: isolate"/>
            <g id="Grupo_76" data-name="Grupo 76" transform="translate(85.953 137.208)" opacity="0.5">
              <path id="Trazado_359" data-name="Trazado 359" d="M558.267,774.36s-21.945,7.828-40.9,8.118S525.665,766.791,558.267,774.36Z" transform="translate(-511.126 -772.322)" opacity="0.74" fill="url(#linear-gradient-2)" style="mix-blend-mode: multiply;isolation: isolate"/>
            </g>
            <g id="Grupo_77" data-name="Grupo 77" transform="translate(33.603 122.194)" opacity="0.5">
              <path id="Trazado_360" data-name="Trazado 360" d="M302.211,717.1c14.775-.226,23.779-4.969,23.779-4.969C311.213,707.988,287.436,717.325,302.211,717.1Z" transform="translate(-297.551 -711.069)" opacity="0.74" fill="url(#linear-gradient-3)" style="mix-blend-mode: multiply;isolation: isolate"/>
            </g>
            <g id="Grupo_79" data-name="Grupo 79" transform="translate(0 102.04)">
              <path id="Trazado_377" data-name="Trazado 377" d="M174.816,653.107a1.141,1.141,0,1,0,0,1.611A1.141,1.141,0,0,0,174.816,653.107Zm-.124,1.487a.965.965,0,1,1,0-1.363A.965.965,0,0,1,174.692,654.594Z" transform="translate(-169.827 -646.908)" fill="#fff" opacity="0.5"/>
              <path id="Trazado_378" data-name="Trazado 378" d="M186.54,635.834l.772.773.772-.773.1.1-.772.773.772.772-.1.1-.772-.772-.772.772-.1-.1.772-.772-.772-.772Z" transform="translate(-180.072 -634.121)" fill="#fff" opacity="0.5"/>
              <path id="Trazado_379" data-name="Trazado 379" d="M162.039,628.848v1.394h1.394v.183h-1.394v1.394h-.183v-1.394h-1.394v-.183h1.394v-1.394Z" transform="translate(-160.462 -628.848)" fill="#fff" opacity="0.5"/>
            </g>
            <g id="Grupo_80" data-name="Grupo 80" transform="translate(22.536 120.319)">
              <path id="Trazado_380" data-name="Trazado 380" d="M262.829,727.095a1.386,1.386,0,1,0,0,1.96A1.386,1.386,0,0,0,262.829,727.095Zm-.148,1.808a1.172,1.172,0,1,1,.344-.83A1.172,1.172,0,0,1,262.68,728.9Z" transform="translate(-258.488 -720.985)" fill="#fff" opacity="0.5"/>
              <path id="Trazado_381" data-name="Trazado 381" d="M253.929,703.419v1.348h1.348v.177h-1.348v1.348h-.177v-1.348H252.4v-.177h1.348v-1.348Z" transform="translate(-252.404 -703.419)" fill="#fff" opacity="0.5"/>
            </g>
          </g>
          <g id="Grupo_552" data-name="Grupo 552" transform="translate(50.281 52.882)">
            <g id="Grupo_548" data-name="Grupo 548" transform="translate(0)">
              <path id="Trazado_1063" data-name="Trazado 1063" d="M113.539,491.566a2.134,2.134,0,0,1,0,4.268h-1.882a1.351,1.351,0,0,1-.978-.422l-.5-.514a.226.226,0,0,1-.061-.184l.024-.194-.184-.066a.858.858,0,0,1-.337-.235l-.849-.823a.234.234,0,0,1-.064-.165l0-.206-.2-.036a1.353,1.353,0,0,1-.746-.4l-.352-.626-.01-.018-.013-.016a.224.224,0,0,1,.174-.365h5.979" transform="translate(-107.336 -491.566)" fill="#fff" stroke="#d61c0d" stroke-width="0.5"/>
            </g>
            <g id="Grupo_551" data-name="Grupo 551">
              <g id="Grupo_550" data-name="Grupo 550">
                <g id="Grupo_549" data-name="Grupo 549">
                  <path id="Trazado_1064" data-name="Trazado 1064" d="M115.785,497.513h-2.6a.224.224,0,0,0-.163.378l.863.837a.948.948,0,0,0,.836.286" transform="translate(-111.594 -496.067)" fill="none" stroke="#d61c0d" stroke-linecap="round" stroke-linejoin="round" stroke-width="0.5"/>
                  <path id="Trazado_1065" data-name="Trazado 1065" d="M113.2,494.518h-2.857a.224.224,0,0,0-.163.378l.5.519a1.344,1.344,0,0,0,.976.42h1.882a2.134,2.134,0,0,0,2.134-2.134h0a2.134,2.134,0,0,0-2.134-2.134H107.56a.224.224,0,0,0-.163.378l.364.648a1.343,1.343,0,0,0,.976.42h.8" transform="translate(-107.335 -491.566)" fill="none" stroke="#d61c0d" stroke-linecap="round" stroke-linejoin="round" stroke-width="0.5"/>
                </g>
              </g>
            </g>
          </g>
        </g>
      </g>
    </g>
  </g>
</svg>
