<svg xmlns="http://www.w3.org/2000/svg" xmlns:xlink="http://www.w3.org/1999/xlink" width="552" height="553" viewBox="0 0 552 553">
  <defs>
    <linearGradient id="linear-gradient" x1="0.5" x2="0.5" y2="1" gradientUnits="objectBoundingBox">
      <stop offset="0" stop-color="#372fc1"/>
      <stop offset="0.005" stop-color="#ff1300"/>
      <stop offset="0.343" stop-color="#e22d1e"/>
      <stop offset="1" stop-color="#8d3129"/>
    </linearGradient>
    <radialGradient id="radial-gradient" cx="-1.207" cy="-0.257" r="3.564" gradientTransform="translate(-0.148) scale(1.296 1)" xlink:href="#linear-gradient"/>
    <linearGradient id="linear-gradient-2" x1="-0.295" y1="1.983" x2="1.165" y2="-0.895" gradientUnits="objectBoundingBox">
      <stop offset="0" stop-color="#d8e0ef"/>
      <stop offset="0.104" stop-color="#d4def0"/>
      <stop offset="0.207" stop-color="#c8d7f1"/>
      <stop offset="0.31" stop-color="#b4ccf4"/>
      <stop offset="0.413" stop-color="#98bcf8"/>
      <stop offset="0.515" stop-color="#75a8fd"/>
      <stop offset="0.532" stop-color="#6ea4fe"/>
      <stop offset="0.582" stop-color="#80aefc"/>
      <stop offset="0.707" stop-color="#a6c4f6"/>
      <stop offset="0.822" stop-color="#c1d3f2"/>
      <stop offset="0.924" stop-color="#d2ddf0"/>
      <stop offset="1" stop-color="#d8e0ef"/>
    </linearGradient>
    <linearGradient id="linear-gradient-3" x1="-0.295" y1="2.03" x2="1.169" y2="-0.899" xlink:href="#linear-gradient-2"/>
    <clipPath id="clip-Mesa_de_trabajo_6">
      <rect width="552" height="553"/>
    </clipPath>
  </defs>
  <g id="Mesa_de_trabajo_6" data-name="Mesa de trabajo – 6" clip-path="url(#clip-Mesa_de_trabajo_6)">
    <rect width="552" height="553" fill="#fff"/>
    <g id="Grupo_771" data-name="Grupo 771" transform="translate(29.091 37.901)">
      <g id="Grupo_82" data-name="Grupo 82" transform="translate(0)">
        <g id="deliveryman-deliver-parcel-or-package-on-a-scooter-2117415-0" style="isolation: isolate">
          <g id="Layer_1" data-name="Layer 1">
            <path id="Trazado_184" data-name="Trazado 184" d="M562.925,579.256l62.633,8.12s16.083-4.685,12.831-30.105-8.53-39.793,15.133-43.272,53.246-20.476,27.545-19.641-37.78,14.859-42.471,1.636c-4.778-13.468,28.861-41.977,7.3-42.5-21.96-.536-44.617,22.785-35.523,35.272s-8.846,13.138-12.65-3.426-8.606-39.208-16.021-18.743,8.628,34.449,8.617,52.9S562.925,579.256,562.925,579.256Z" transform="translate(-243.481 -262.252)" fill="#b1c2cc"/>
            <path id="Trazado_185" data-name="Trazado 185" d="M592.626,532.107c3.547.223,7.047,1.194,10.6,1.041a6.3,6.3,0,0,0,3.659-1.083c2.089-1.634,1.938-4.749,2.366-7.364,1.311-8.018,9.148-13.035,16.229-17.017,1.966-1.106,4.182-2.251,6.372-1.707,3.182.791,4.444,4.532,5.344,7.686s2.677,6.845,5.953,6.991c3.246.145,5.413-3.449,5.813-6.672.451-3.653-.369-7.374.06-11.03s2.749-7.592,6.415-7.924c4.358-.393,7.288,4.19,9.332,8.061s5.56,8.251,9.786,7.124c2.4-.637,4.018-3,4.556-5.421a23.259,23.259,0,0,0-.063-7.414,5.916,5.916,0,0,1,.534-3.977,5.048,5.048,0,0,1,3.2-1.8,14.725,14.725,0,0,1,9.754,27.558c-2.417,1.2-5.726,2.592-5.367,5.265.471,3.511,5.956,2.7,8.877,4.694,2.454,1.68,2.666,5.469,1.107,8s-4.383,3.995-7.2,4.938c-5.421,1.814-11.208,2.129-16.868,2.9a4.912,4.912,0,0,0-2.557.867c-1.169.98-1.2,2.779-.8,4.251.891,3.321,3.323,5.96,5.225,8.823s3.334,6.533,1.959,9.684c-1.479,3.4-5.669,4.784-9.372,4.623s-7.274-1.46-10.97-1.748a4.588,4.588,0,0,0-3.128.6c-1.344,1.006-1.372,2.972-1.273,4.649q.805,13.55,1.61,27.1a5.1,5.1,0,0,1-.683,3.586,4.289,4.289,0,0,1-1.488,1.057c-5.863,2.847-13.078,1.225-18.561-2.3s-9.651-8.7-13.978-13.571A14.511,14.511,0,0,0,615,589.048c-2.257-1.146-4.911-1.076-7.441-1.009q-8.258.22-16.521.045c-2.849-.062-5.991-.277-8.019-2.281a4.734,4.734,0,0,1-.764-5.249c.218-.157.422-.327.626-.5l-.586.418a2.735,2.735,0,0,1,1.552-1.329c3.422-3.654,4.4-9.5,3.584-14.62-.986-6.19-3.953-11.876-5.6-17.924-1.028-3.775-1.407-8.205,1.066-11.238C585.143,532.608,589.079,531.884,592.626,532.107Z" transform="translate(-247.217 -270.05)" fill="#002c42"/>
            <path id="Trazado_186" data-name="Trazado 186" d="M598.1,565.626a17.325,17.325,0,0,1,7.278,12.649c5.456-3.254,11.134-5.927,16.827-8.714a.5.5,0,0,1-.03-.121,172.945,172.945,0,0,1,.35-18.817c.052-.684,1.121-.692,1.07,0a172.679,172.679,0,0,0-.36,18.431c.579-.286,1.16-.569,1.739-.859,6.668-3.335,12.492-7.941,18.252-12.618a.557.557,0,0,1-.012-.133,71.976,71.976,0,0,1,3.57-16.254c.224-.646,1.258-.372,1.032.28a70.726,70.726,0,0,0-3.44,15.173c.391-.319.785-.638,1.176-.956q10.361-8.408,20.426-17.175c.517-.449,1.279.3.759.753q-6.9,6-13.946,11.823l4.285,1.924c1.359.609,4.783,2.808,6.2,1.9.582-.371,1.122.552.544.922-1.347.861-2.676.165-4-.429q-3.973-1.779-7.94-3.563c-1.854,1.533-3.7,3.08-5.565,4.6-3.945,3.2-7.886,6.492-12.061,9.422l12.919,8.751c.568.384.037,1.312-.536.925l-13.259-8.981c-.025-.016-.036-.039-.056-.057a65.162,65.162,0,0,1-6.391,3.9c-4.824,2.539-9.745,4.773-14.563,7.245a40.916,40.916,0,0,1,16.916,10.4c.482.49-.269,1.251-.754.759a39.77,39.77,0,0,0-17.232-10.385.543.543,0,0,1-.2-.108c-2.173,1.141-4.324,2.337-6.427,3.648-7.277,4.539-14.169,9.655-21.053,14.761-.551.411-1.09-.514-.542-.92,6.675-4.953,13.356-9.916,20.392-14.35.3-.189.6-.366.906-.551a.286.286,0,0,1-.01-.032,16.2,16.2,0,0,0-6.8-12.306C597.008,566.155,597.538,565.225,598.1,565.626Z" transform="translate(-247.589 -279.35)" fill="#2e745c" opacity="0.3"/>
            <path id="Trazado_187" data-name="Trazado 187" d="M387.339,608.522l-62.633,8.12s-16.082-4.686-12.831-30.105,8.53-39.793-15.133-43.273S243.5,522.789,269.2,523.623s37.78,14.859,42.471,1.636c4.778-13.468-28.861-41.977-7.3-42.5,21.96-.536,44.617,22.785,35.523,35.272s8.846,13.138,12.65-3.426,8.606-39.208,16.021-18.742-8.628,34.449-8.617,52.9S387.339,608.522,387.339,608.522Z" transform="translate(-180.842 -268.289)" fill="#b1c2cc"/>
            <path id="Trazado_188" data-name="Trazado 188" d="M359.845,561.373c-3.547.223-7.047,1.194-10.6,1.041a6.306,6.306,0,0,1-3.659-1.084c-2.089-1.634-1.938-4.749-2.366-7.364-1.312-8.018-9.148-13.035-16.229-17.017-1.966-1.106-4.182-2.251-6.372-1.707-3.182.791-4.444,4.532-5.344,7.687s-2.677,6.844-5.953,6.991c-3.246.145-5.413-3.449-5.813-6.671-.452-3.654.369-7.374-.06-11.03s-2.749-7.592-6.415-7.924c-4.358-.393-7.289,4.19-9.332,8.061s-5.56,8.251-9.786,7.123c-2.4-.637-4.018-3-4.556-5.421a23.262,23.262,0,0,1,.063-7.414,5.915,5.915,0,0,0-.533-3.977,5.047,5.047,0,0,0-3.2-1.8,14.725,14.725,0,0,0-9.754,27.558c2.417,1.2,5.725,2.592,5.367,5.265-.471,3.512-5.956,2.7-8.877,4.694-2.454,1.68-2.666,5.469-1.107,8s4.383,3.995,7.2,4.938c5.421,1.814,11.208,2.129,16.868,2.9a4.917,4.917,0,0,1,2.557.867c1.169.98,1.2,2.779.8,4.251-.891,3.321-3.323,5.961-5.225,8.823s-3.334,6.532-1.959,9.684c1.479,3.4,5.669,4.784,9.372,4.623s7.274-1.46,10.97-1.748a4.588,4.588,0,0,1,3.128.6c1.344,1.006,1.372,2.971,1.273,4.649q-.806,13.55-1.61,27.1a5.1,5.1,0,0,0,.683,3.586,4.29,4.29,0,0,0,1.488,1.057c5.863,2.847,13.078,1.225,18.561-2.3s9.651-8.7,13.978-13.571a14.513,14.513,0,0,1,4.063-3.527c2.257-1.146,4.91-1.076,7.441-1.009q8.258.219,16.521.045c2.849-.062,5.991-.277,8.019-2.281a4.734,4.734,0,0,0,.764-5.249c-.218-.157-.422-.327-.626-.5l.586.418a2.736,2.736,0,0,0-1.552-1.329c-3.422-3.654-4.4-9.5-3.584-14.62.986-6.19,3.953-11.876,5.6-17.925,1.028-3.775,1.407-8.2-1.066-11.238C367.328,561.874,363.392,561.15,359.845,561.373Z" transform="translate(-179.313 -276.087)" fill="#002c42"/>
            <path id="Trazado_189" data-name="Trazado 189" d="M363.6,594.893a17.325,17.325,0,0,0-7.279,12.649c-5.456-3.254-11.134-5.927-16.826-8.714a.521.521,0,0,0,.029-.121,173.063,173.063,0,0,0-.35-18.817c-.052-.684-1.121-.692-1.069,0a172.743,172.743,0,0,1,.36,18.431c-.579-.286-1.16-.569-1.739-.859-6.668-3.336-12.491-7.941-18.252-12.618a.564.564,0,0,0,.012-.133,71.971,71.971,0,0,0-3.57-16.254c-.224-.646-1.258-.372-1.032.28a70.727,70.727,0,0,1,3.44,15.173c-.391-.319-.785-.638-1.176-.955q-10.361-8.408-20.427-17.175c-.517-.449-1.279.3-.758.752q6.9,6,13.947,11.823l-4.285,1.924c-1.359.609-4.783,2.808-6.2,1.9-.582-.371-1.122.552-.544.922,1.348.861,2.676.164,4-.429q3.973-1.779,7.94-3.563c1.854,1.533,3.7,3.08,5.565,4.6,3.945,3.2,7.886,6.492,12.061,9.422l-12.919,8.751c-.568.384-.037,1.312.536.926l13.259-8.981c.025-.016.036-.04.056-.058a65.129,65.129,0,0,0,6.391,3.9c4.824,2.539,9.745,4.774,14.563,7.245a40.916,40.916,0,0,0-16.916,10.4c-.482.491.269,1.251.754.759a39.767,39.767,0,0,1,17.232-10.385.536.536,0,0,0,.2-.108c2.173,1.141,4.324,2.337,6.427,3.648,7.277,4.539,14.169,9.655,21.053,14.761.551.411,1.09-.514.541-.92-6.675-4.954-13.356-9.917-20.392-14.35-.3-.189-.6-.366-.906-.551a.22.22,0,0,0,.01-.032,16.2,16.2,0,0,1,6.8-12.306C364.693,595.422,364.162,594.491,363.6,594.893Z" transform="translate(-188.171 -285.387)" fill="#2e745c" opacity="0.3"/>
            <path id="Trazado_190" data-name="Trazado 190" d="M252.956,481.778a4.231,4.231,0,0,0-4.246-4.246H165.159a4.245,4.245,0,0,0-4.246,4.246,4.289,4.289,0,0,0,1.239,3.007,4.234,4.234,0,0,0,3.007,1.256h24.072a4.246,4.246,0,1,1,0,8.492h-1.4a4.246,4.246,0,1,0,0,8.492H211.9a4.246,4.246,0,1,0,0-8.492,4.246,4.246,0,1,1,0-8.492H248.71A4.259,4.259,0,0,0,252.956,481.778Z" transform="translate(-160.555 -267.213)" fill="#a3cff8" opacity="0.3"/>
            <path id="Trazado_191" data-name="Trazado 191" d="M654.121,364.071a4.231,4.231,0,0,0,4.246,4.246h83.551a4.245,4.245,0,0,0,4.246-4.246,4.288,4.288,0,0,0-1.239-3.007,4.234,4.234,0,0,0-3.007-1.256H717.846a4.246,4.246,0,1,1,0-8.492h1.4a4.246,4.246,0,1,0,0-8.492H695.178a4.246,4.246,0,1,0,0,8.492,4.246,4.246,0,1,1,0,8.492H658.367A4.259,4.259,0,0,0,654.121,364.071Z" transform="translate(-262.293 -239.426)" fill="#a3cff8" opacity="0.3"/>
            <path id="Trazado_192" data-name="Trazado 192" d="M278.885,344.564a11.258,11.258,0,0,0,.573-2.765,11.084,11.084,0,0,0-2.722-8.115,11.222,11.222,0,0,0-13.343-2.5c-1.8-3.561-5.276-6.319-9.388-6.319a14.2,14.2,0,0,0-3.8.52,8.316,8.316,0,0,0-7.249-5c-4.621,0-8.732,2.84-9.405,7.542l-2.023.11a9.46,9.46,0,0,0-7.7,8.59c-.005.066,0,.133-.005.2a9.756,9.756,0,0,0-3.266-.852l-2.518.137a9.7,9.7,0,0,0-7.86,8.456Z" transform="translate(-170.719 -234.796)" fill="#fff" opacity="0.533"/>
            <path id="Trazado_193" data-name="Trazado 193" d="M453.941,244.672A14.95,14.95,0,0,1,453.18,241a14.721,14.721,0,0,1,3.615-10.779,14.905,14.905,0,0,1,17.722-3.319c2.4-4.73,7.007-8.393,12.469-8.393a18.861,18.861,0,0,1,5.048.69c1.789-3.726,5.369-6.646,9.628-6.646,6.138,0,11.6,3.772,12.492,10.017l2.687.146a12.566,12.566,0,0,1,10.221,11.409c.007.088,0,.176.007.264a12.956,12.956,0,0,1,4.338-1.131l3.345.182a12.877,12.877,0,0,1,10.44,11.232Z" transform="translate(-220.835 -212.554)" fill="#fff" opacity="0.52"/>
            <path id="Trazado_194" data-name="Trazado 194" d="M680.351,285.345a13.274,13.274,0,0,1-.676-3.261,13.072,13.072,0,0,1,3.21-9.571,13.234,13.234,0,0,1,15.736-2.947c2.127-4.2,6.222-7.452,11.072-7.452a16.74,16.74,0,0,1,4.482.613c1.589-3.308,4.767-5.9,8.549-5.9,5.45,0,10.3,3.349,11.092,8.894l2.386.13a11.157,11.157,0,0,1,9.075,10.131c.006.078,0,.157.006.234a11.506,11.506,0,0,1,3.852-1l2.97.161a11.433,11.433,0,0,1,9.27,9.973Z" transform="translate(-267.556 -221.686)" fill="#fff" opacity="0.533"/>
            <path id="Trazado_197" data-name="Trazado 197" d="M496.488,337.128l-86.449,6.5,4.45,124.569,91.2-10.7Z" transform="translate(-211.944 -238.251)" fill="#e0a779"/>
            <path id="Trazado_198" data-name="Trazado 198" d="M396.3,345.323,343.455,358.85l18.429,106.8,38.87,4.24Z" transform="translate(-198.209 -239.941)" fill="#c68458"/>
            <path id="Trazado_199" data-name="Trazado 199" d="M344.985,378.861c1.318-1.571,51.924-7.269,51.924-7.269l-.938-26.27-54.134,13.407Z" transform="translate(-197.875 -239.941)" fill="#ce9065"/>
            <path id="Trazado_200" data-name="Trazado 200" d="M410.977,369.9l87.1-7.427-1.591-25.347-86.449,6.5Z" transform="translate(-211.944 -238.251)" fill="#ce9065"/>
            <path id="Trazado_201" data-name="Trazado 201" d="M347.692,382.232s35.658-4,39.436,2.516,14.5,89.036,14.5,89.036-2.018-90.578,6.283-93.2c0,0-4.723,16.2,0,22.3s2.721,66.367,15.53,66.128,15.55-104.82,15.55-104.82Z" transform="translate(-199.083 -243.833)" fill="#231f20" opacity="0.55" style="mix-blend-mode: soft-light;isolation: isolate"/>
            <path id="Trazado_209" data-name="Trazado 209" d="M520.893,367.01l26.933,29.159,46.508,24.54-6.533,7.6-48.695-14.56-31.562-40.474Z" transform="translate(-232.057 -244.415)" fill="#f5b297"/>
            <path id="Trazado_210" data-name="Trazado 210" d="M504.36,328.469s37.795,40.06,32.221,45.286-18.331,9.419-18.779,7.819S504.36,328.469,504.36,328.469Z" transform="translate(-231.4 -236.465)" fill="url(#linear-gradient)"/>
            <path id="Trazado_211" data-name="Trazado 211" d="M545.015,594.55a273.872,273.872,0,0,0-12.887,37.092c-.106.414-.159.625-.159.625s-1.207,2.017-6.157.555c-4.818-1.427-3.277-3.8-3.444-3.885.062-.22.123-.44.176-.669,2.7-10.086,5.3-23.5,8.324-38.053C536.55,591.793,539.483,592.524,545.015,594.55Z" transform="translate(-235.093 -290.457)" fill="#f5b297"/>
            <path id="Trazado_212" data-name="Trazado 212" d="M454.569,479.4l43.995-13.24s38.669,39.621,46.638,58.266-22.3,83.257-22.3,83.257-16.377-9.1-16.778-10.625,14.054-63.118,14.054-63.118S454.753,506.218,454.569,479.4Z" transform="translate(-221.13 -264.866)" fill="#7e1911"/>
            <path id="Trazado_213" data-name="Trazado 213" d="M475.376,322.829c11.449.532,18.307,2.306,22.566,26.154s21.5,65.89,5.84,88.986c-10.976,16.188-53.373,43.15-66.243,8.044-9.678-26.4-4.749-85.282,3.342-104.446S465.573,322.373,475.376,322.829Z" transform="translate(-216.516 -235.278)" fill="#cfe5f2"/>
            <path id="Trazado_214" data-name="Trazado 214" d="M467.293,321.811A89.19,89.19,0,0,0,478.8,346.546c8.225,12.08.018,50.887-12.111,66.214s-27.767,33.066-27.767,33.066,14.252-36.954,15.134-38.483S479.267,383.525,467.293,321.811Z" transform="translate(-217.903 -235.091)" fill="#231f20" opacity="0.82" style="mix-blend-mode: soft-light;isolation: isolate"/>
            <path id="Trazado_215" data-name="Trazado 215" d="M491.481,329.344c-3.786,2.64-14.76-2.636-17.281-6.5-.732-1.122.125-2.274.31-5.351.368-6.425.938-16.362.938-16.623l15.9,8.021.068,10.585S493.5,327.933,491.481,329.344Z" transform="translate(-225.119 -230.771)" fill="#f5b297"/>
            <path id="Trazado_216" data-name="Trazado 216" d="M491.569,319.474l-.068.194a18.115,18.115,0,0,0-5.389-2.758c-3.6-1.248-11.34,1.238-11.34,1.238l-.106-.658c.368-6.425.939-16.362.939-16.623l15.9,8.021Z" transform="translate(-225.275 -230.771)" fill="#ec9480"/>
            <path id="Trazado_217" data-name="Trazado 217" d="M496.4,249.433s8.086,12.233,2.281,21.771-39.6,3.11-39.6,3.11-18.829-14.743-1.659-26.816c0,0,5.529-11.473,14.307-10.3A44.746,44.746,0,0,1,496.4,249.433Z" transform="translate(-220.228 -217.62)" fill="#603d52"/>
            <path id="Trazado_218" data-name="Trazado 218" d="M496.4,307.106c-4.306,2.941-28.5-14.543-32.617-19.9-4.151-5.389-1.1-28.892-1.1-28.892,1.19-8.379,35.965-8.379,37.155,0a176.562,176.562,0,0,1,2.409,19.4c.145,2.2.242,4.451.261,6.686C502.614,294.189,501.308,303.759,496.4,307.106Z" transform="translate(-222.581 -220.696)" fill="#f5b297"/>
            <path id="Trazado_219" data-name="Trazado 219" d="M461.214,276.9s-5.574-4.3-8.128.681,3.339,12.445,8.152,11.959Z" transform="translate(-220.696 -225.471)" fill="#f5b297"/>
            <path id="Trazado_220" data-name="Trazado 220" d="M460.753,287.3c-2.714-.462-5.549-4.449-4.145-7.2,1.076-2.1,3.046-1.469,4.132-.893Z" transform="translate(-221.474 -226.188)" fill="#ec9480"/>
            <path id="Trazado_221" data-name="Trazado 221" d="M486.851,290.876a3.369,3.369,0,1,1-3.369-3.369,3.369,3.369,0,0,1,3.369,3.369Z" transform="translate(-226.399 -228.015)" fill="#ec9480" opacity="0.2"/>
            <path id="Trazado_222" data-name="Trazado 222" d="M512.145,291.07a2.342,2.342,0,0,1-.455.039,3.367,3.367,0,0,1,0-6.734,1.3,1.3,0,0,1,.193.01C512.029,286.58,512.126,288.835,512.145,291.07Z" transform="translate(-232.218 -227.369)" fill="#ec9480" opacity="0.2"/>
            <path id="Trazado_223" data-name="Trazado 223" d="M460.434,268.705s3.11,4.181,3.387,7.222,4.7,1.382,4.7-8.293-3.041-6.911,10.505-6.359,19.5-6.105,20.329-15.781-30,1.682-30,1.682-6.635-1.659-7.741,6.082A133.171,133.171,0,0,0,460.434,268.705Z" transform="translate(-222.339 -218.543)" fill="#603d52"/>
            <path id="Trazado_224" data-name="Trazado 224" d="M496.222,275.883s8.086,13.27,6.22,14.307-3.732,1.935-4.769-.346S496.222,275.883,496.222,275.883Z" transform="translate(-229.722 -225.617)" fill="#ec9480"/>
            <path id="Trazado_225" data-name="Trazado 225" d="M452.971,321.564s6.647-2.357,11.3-.021,16.2,40.058,8.627,57.46S435.9,445.558,435.9,445.558l4.964,16.457s-12.124,4.655-14.722,2c-6.458-6.6,5.752-36.479,5.752-36.479s30.312-51.8,27.992-70.118S447.88,322.572,452.971,321.564Z" transform="translate(-214.877 -234.823)" fill="#021c41"/>
            <path id="Trazado_226" data-name="Trazado 226" d="M495.962,324.053s18.1,35.209,24.108,62.584c0,0,1.042,1.987-1.051-11.438s-11.641-44.7-11.641-44.7S505.172,319.826,495.962,324.053Z" transform="translate(-229.668 -235.349)" fill="#021c41"/>
            <path id="Trazado_227" data-name="Trazado 227" d="M495.962,324.31s7,18.473,9.193,25.9,10.018,36.629,14.916,36.687l-4.21-17.908S499.075,325.927,495.962,324.31Z" transform="translate(-229.668 -235.607)" fill="#231f20" opacity="0.82" style="mix-blend-mode: soft-light;isolation: isolate"/>
            <path id="Trazado_228" data-name="Trazado 228" d="M436.315,360.161s-13.807,26.727-9.046,34.172c7.091,11.089,51.739,16.424,51.739,16.424l7.881-5.6-31.055-20.031-2.028-18.37Z" transform="translate(-215.292 -243.002)" fill="#f5b297"/>
            <path id="Trazado_229" data-name="Trazado 229" d="M620.857,385.052c-1.815,3.984-6.178,5.886-9.759,4.255a6.412,6.412,0,0,1-2.177-1.618,7.953,7.953,0,0,1-1.018-8.538c1.812-3.977,6.186-5.883,9.759-4.255.122.056.238.108.35.168C621.332,376.829,622.61,381.2,620.857,385.052Z" transform="translate(-252.594 -245.921)" fill="#021c41"/>
            <path id="Trazado_230" data-name="Trazado 230" d="M619.03,383.6c-1.812,3.977-6.186,5.883-9.76,4.255-.123-.056-.238-.108-.35-.168a7.954,7.954,0,0,1-1.018-8.538c1.812-3.977,6.186-5.883,9.76-4.255.123.056.238.108.35.168A7.971,7.971,0,0,1,619.03,383.6Z" transform="translate(-252.594 -245.921)" fill="#092a51"/>
            <path id="Trazado_231" data-name="Trazado 231" d="M612.992,423.758a.825.825,0,0,1-.579-.14,1.484,1.484,0,0,1-.594-.924l11.647-19.006-6.349-16.773.563-.184.662-.222,6.374,16.934Z" transform="translate(-253.567 -248.437)" fill="#021c41"/>
            <path id="Trazado_232" data-name="Trazado 232" d="M612.414,423.676a1.484,1.484,0,0,1-.594-.924l11.647-19.006-6.349-16.773.563-.184L624,403.6Z" transform="translate(-253.567 -248.494)" fill="#092a51"/>
            <path id="Trazado_233" data-name="Trazado 233" d="M612.36,429.805l-1.426,1.99a3.89,3.89,0,0,0,2.553,1.479l.927-2.367A1.843,1.843,0,0,0,612.36,429.805Z" transform="translate(-253.384 -257.355)" fill="#021c41"/>
            <path id="Trazado_234" data-name="Trazado 234" d="M620.235,388.184a1.583,1.583,0,1,1-.107-2.237,1.583,1.583,0,0,1,.107,2.237Z" transform="translate(-254.734 -248.236)" fill="#021c41"/>
            <path id="Trazado_235" data-name="Trazado 235" d="M476.832,530.991l-12.81,1.156L449.4,533.462l-77.077,6.943s-16.738-19.1-7.236-26.8a9.675,9.675,0,0,1,1.884-1.116,59.838,59.838,0,0,1,9.7-3.183c6.35-1.639,14.679-3.31,23.871-4.853,4.64-.776,9.493-1.528,14.426-2.233,22.937-3.246,47.442-5.392,58.875-4.5a21.234,21.234,0,0,1,4.9.823,3.7,3.7,0,0,1,.356.127C491.313,503.652,476.832,530.991,476.832,530.991Z" transform="translate(-202.069 -271.335)" fill="#021c41"/>
            <path id="Trazado_236" data-name="Trazado 236" d="M478.081,530.991l-12.81,1.156-8.044-6.778s14.743-7.822,8.638-20c-3.341-6.658-32.264-3.9-57.774-.04-.008,0-.008.008-.016.008-2.787.42-5.534.855-8.211,1.3-17.521,2.874-31.646,5.851-31.646,5.851,5.376-2.557,18.289-5.463,33.57-8.036,4.64-.776,9.493-1.528,14.426-2.233,22.937-3.246,47.442-5.392,58.875-4.5,1.718.261,3.357.531,4.9.823a3.708,3.708,0,0,1,.356.127C492.562,503.652,478.081,530.991,478.081,530.991Z" transform="translate(-203.317 -271.336)" fill="#fff" opacity="0.31" style="mix-blend-mode: soft-light;isolation: isolate"/>
            <path id="Trazado_237" data-name="Trazado 237" d="M423.869,503.869a34.827,34.827,0,0,0-7.577,2.684c-.008,0-.008.008-.016.008-.713.325-1.156.546-1.156.546l6.263,26.263-5.614,1.568-7.791-26.674a.946.946,0,0,1,.087-.4,5.292,5.292,0,0,1,1.924-2.185c4.64-.776,9.493-1.528,14.426-2.233C424.645,503.615,424.5,503.781,423.869,503.869Z" transform="translate(-211.519 -272.557)" fill="#231f20" opacity="0.55" style="mix-blend-mode: soft-light;isolation: isolate"/>
            <path id="Trazado_238" data-name="Trazado 238" d="M418.388,533.153l-6.263-26.263s5.644-2.789,8.755-3.237-5.722-2.595-10.888,0-5,4.4-5,4.4l7.788,26.669Z" transform="translate(-210.902 -272.341)" fill="#0a335b"/>
            <path id="Trazado_239" data-name="Trazado 239" d="M449.4,536.525l-77.077,6.944s-16.738-19.1-7.237-26.8a9.681,9.681,0,0,1,1.884-1.116,59.848,59.848,0,0,1,9.7-3.183c.055,1.267-.776,2.811-2.827,4.679,0,0-10.356,10.689-3.222,14.592s16.46-1.378,21.884-3.658,17.482,6.54,28,2.977,33.768-4.173,36.991-1.362C458.717,530.674,454.925,533.461,449.4,536.525Z" transform="translate(-202.069 -274.399)" fill="#231f20" opacity="0.68" style="mix-blend-mode: soft-light;isolation: isolate"/>
            <rect id="Rectángulo_67" data-name="Rectángulo 67" width="20.359" height="23.679" transform="translate(323.248 178.384) rotate(-14.669)" fill="#092a51"/>
            <path id="Trazado_240" data-name="Trazado 240" d="M588.092,453.709l-19.7,5.156-1.063-25.59L582.1,430.8Z" transform="translate(-244.39 -257.573)" fill="#021c41"/>
            <path id="Trazado_241" data-name="Trazado 241" d="M624.785,450.973c-1.4,2.044-1.545,4.375-.331,5.2s3.332-.154,4.729-2.2,1.546-4.375.331-5.2S626.183,448.928,624.785,450.973Z" transform="translate(-256.004 -261.22)" fill="#092a51"/>
            <path id="Trazado_242" data-name="Trazado 242" d="M628.393,453.522a4.863,4.863,0,0,1-2.629,2.051,1.743,1.743,0,0,1-.483.071,1.483,1.483,0,0,1-.942-.245,1.748,1.748,0,0,1-.681-1.283,4.887,4.887,0,0,1,.966-3.175,5.61,5.61,0,0,1,1.774-1.7c.119-.071.237-.127.348-.182a2.776,2.776,0,0,1,.642-.214,1.83,1.83,0,0,1,.776,0,1.478,1.478,0,0,1,.514.214,1.582,1.582,0,0,1,.633,1.005,4.672,4.672,0,0,1-.918,3.46Z" transform="translate(-256.008 -261.286)" fill="#021c41"/>
            <path id="Trazado_243" data-name="Trazado 243" d="M624.492,451.445a6.148,6.148,0,0,1-2.621,2.249,3.65,3.65,0,0,1-.443.15l-2.462-1.7-5.487-3.8-5.685-3.943-.673-.467,2.454-1.979,1.647-1.33.681-.554.894-.721,3.27,2.067,7.253,4.576.008.008,1.425.895.807.515a5.445,5.445,0,0,1-1.069,4.038Z" transform="translate(-252.597 -259.336)" fill="#021c41"/>
            <path id="Trazado_244" data-name="Trazado 244" d="M608.049,447.008s13.679,1.752,14.815-.943-6.612-13.212-8.449-12.623S602.815,443.985,608.049,447.008Z" transform="translate(-252.474 -258.113)" fill="#f5b297"/>
            <path id="Trazado_245" data-name="Trazado 245" d="M616.783,437.785l-9.43,2.32-.578.143-4.069,2.288-15.146-4.244,9.208-6.183,6.951-4.672c.427.42,2.89,4.83,7.126,6.872A30.177,30.177,0,0,1,616.783,437.785Z" transform="translate(-248.563 -256.879)" fill="#0f88c1"/>
            <path id="Trazado_246" data-name="Trazado 246" d="M619.176,437.785l-9.43,2.32c-3.547-.586-8.59-5.8-10.586-8l6.951-4.672c.428.42,2.89,4.83,7.126,6.872A30.18,30.18,0,0,1,619.176,437.785Z" transform="translate(-250.956 -256.879)" fill="#fff" opacity="0.56" style="mix-blend-mode: soft-light;isolation: isolate"/>
            <path id="Trazado_247" data-name="Trazado 247" d="M606.241,429.572s-1.064,4.166,1.4,6.2a31.322,31.322,0,0,0,6.023,3.642s-7.853-1.291-10.187-4.922S606.241,429.572,606.241,429.572Z" transform="translate(-251.719 -257.32)" fill="#fff" opacity="0.56" style="mix-blend-mode: soft-light;isolation: isolate"/>
            <path id="Trazado_248" data-name="Trazado 248" d="M613.7,436.719c-.371,1.1-1.85,1.592-3.3,1.1s-2.333-1.779-1.962-2.878,1.85-1.592,3.3-1.1S614.067,435.62,613.7,436.719Z" transform="translate(-252.85 -258.161)" fill="#231f20" opacity="0.55" style="mix-blend-mode: soft-light;isolation: isolate"/>
            <path id="Trazado_249" data-name="Trazado 249" d="M584.52,430.643l-9.952,5.344-.681.364s-17.133-1.694-20.356-1.694-4.584-6.279-4.584-6.279l-13.737-2.929-12.9-2.755,38.432-4.664Z" transform="translate(-235.103 -254.939)" fill="#1595d1"/>
            <path id="Trazado_250" data-name="Trazado 250" d="M594.354,388.1s-20.472,3.054-23.187,11.028-.509,17.645,3.733,19.511,19.454,5.825,19.454,5.825Z" transform="translate(-244.935 -248.766)" fill="#0f88c1"/>
            <ellipse id="Elipse_555" data-name="Elipse 555" cx="10.632" cy="18.182" rx="10.632" ry="18.182" transform="translate(338.787 139.337)" fill="#eae2e1"/>
            <ellipse id="Elipse_556" data-name="Elipse 556" cx="9.37" cy="16.024" rx="9.37" ry="16.024" transform="translate(340.049 141.495)" fill="#d61c0d"/>
            <path id="Trazado_251" data-name="Trazado 251" d="M567.872,401.674l-46.841,10.588v8.483l47.94-4.781a3.438,3.438,0,0,0,3.1-3.421v-7.515a3.438,3.438,0,0,0-4.2-3.354Z" transform="translate(-234.839 -251.547)" fill="#0f88c1"/>
            <path id="Trazado_252" data-name="Trazado 252" d="M599.923,393.423s5.241,4.751,4.091,10.858-10.425,11.829-5.675,14.4,9.521-1.111,9.172-11.3S599.923,393.423,599.923,393.423Z" transform="translate(-250.509 -249.863)" fill="#fff" opacity="0.656" style="mix-blend-mode: soft-light;isolation: isolate"/>
            <path id="Trazado_253" data-name="Trazado 253" d="M588.293,390.821,584.9,396.28s-13.242,3.572-12.446,3.087A39.994,39.994,0,0,1,588.293,390.821Z" transform="translate(-245.439 -249.326)" fill="#fff" opacity="0.56" style="mix-blend-mode: soft-light;isolation: isolate"/>
            <path id="Trazado_254" data-name="Trazado 254" d="M546.99,409.616s20.586-5.377,23.526-5.363,2.828,4.864-.9,5.882-34.045,1.583-39.7,2.375S546.99,409.616,546.99,409.616Z" transform="translate(-236.484 -252.097)" fill="#fff" opacity="0.56" style="mix-blend-mode: soft-light;isolation: isolate"/>
            <path id="Trazado_255" data-name="Trazado 255" d="M577.919,437.026l-.681.364S560.1,435.7,556.882,435.7s-4.584-6.278-4.584-6.278l-13.737-2.93a4.909,4.909,0,0,1,2.042-.9l22.89-2.518s2.747,7.727,9.881,7.173C577.706,429.9,578.2,433.867,577.919,437.026Z" transform="translate(-238.455 -255.978)" fill="#231f20" opacity="0.55" style="mix-blend-mode: soft-light;isolation: isolate"/>
            <path id="Trazado_256" data-name="Trazado 256" d="M523.38,417.981a1.605,1.605,0,0,1-.008.19,16.47,16.47,0,0,1-.5,3.982c-.784,3.04-2.391,5.123-4.252,5.123-1.758,0-3.286-1.853-4.109-4.616a14.876,14.876,0,0,1-.594-3.349c-.04-.436-.056-.879-.056-1.33,0-5.131,2.13-9.287,4.758-9.287S523.38,412.85,523.38,417.981Z" transform="translate(-233.361 -253.013)" fill="#021c41"/>
            <path id="Trazado_257" data-name="Trazado 257" d="M522.681,418.461c0,4.115-1.709,7.451-3.817,7.451s-3.817-3.336-3.817-7.451,1.709-7.451,3.817-7.451S522.681,414.346,522.681,418.461Z" transform="translate(-233.604 -253.491)" fill="#092a51"/>
            <path id="Trazado_258" data-name="Trazado 258" d="M519.444,418.92c0,3.139-1.367,5.684-3.054,5.684s-3.054-2.545-3.054-5.684,1.367-5.684,3.054-5.684S519.444,415.781,519.444,418.92Z" transform="translate(-233.252 -253.95)" fill="#021c41"/>
            <path id="Trazado_259" data-name="Trazado 259" d="M480.114,422.429c0,3.139-1.367,5.684-3.054,5.684s-3.054-2.545-3.054-5.684,1.367-5.684,3.054-5.684S480.114,419.29,480.114,422.429Z" transform="translate(-225.139 -254.674)" fill="#021c41"/>
            <path id="Trazado_260" data-name="Trazado 260" d="M509.071,413.237l-31.218,2.785v11.367l31.218-2.785Z" transform="translate(-225.932 -253.95)" fill="#021c41"/>
            <path id="Trazado_261" data-name="Trazado 261" d="M479.1,416.439l16.118-1.178-12.385,2.946s4.835.362,3.9.574-2.969.654-2.715.942,5.768.961,5.768.961l-6.447,2.5,7.55.382-4.241,1.456,7.289.844L477.5,427.073S473.508,417.082,479.1,416.439Z" transform="translate(-225.575 -254.368)" fill="#fff" opacity="0.56" style="mix-blend-mode: soft-light;isolation: isolate"/>
            <path id="Trazado_262" data-name="Trazado 262" d="M491.085,425.853s-7.92-10.317-2.509-12.8,17.692-3.115,17.655-1.227-5.7,1.888-5.7,1.888,12.542,8.977,6.523,10.717S498,431.955,491.085,425.853Z" transform="translate(-227.754 -253.432)" fill="#f5b297"/>
            <path id="Trazado_263" data-name="Trazado 263" d="M519.75,420.634a16.457,16.457,0,0,1-.5,3.982c-2.636.19-5.566.356-8.361.507-3.753.206-7.26.372-9.469.467a3.191,3.191,0,0,1-2.17.823,2.512,2.512,0,1,1,0-4.948,3.108,3.108,0,0,1,2.471,1.14c2.146-.2,5.32-.5,8.575-.831C513.749,421.41,517.28,421.006,519.75,420.634Z" transform="translate(-229.739 -255.476)" fill="#231f20" opacity="0.55" style="mix-blend-mode: soft-light;isolation: isolate"/>
            <ellipse id="Elipse_557" data-name="Elipse 557" cx="2.66" cy="4.95" rx="2.66" ry="4.95" transform="translate(249.261 162.806)" fill="#092a51"/>
            <ellipse id="Elipse_558" data-name="Elipse 558" cx="5.387" cy="3.315" rx="5.387" ry="3.315" transform="translate(293.652 160.524)" fill="#231f20" opacity="0.55" style="mix-blend-mode: soft-light;isolation: isolate"/>
            <path id="Trazado_264" data-name="Trazado 264" d="M532.162,416.953c-1.572-.912-3.5-.231-7.229.766-2.872.767-15.419,1.413-20.943,1.92a3.1,3.1,0,0,0-2.474-1.139,2.51,2.51,0,1,0,0,4.944,3.194,3.194,0,0,0,2.174-.818c6.149-.278,22.24-1.058,25.926-1.746C534.2,420.026,533.174,417.54,532.162,416.953Z" transform="translate(-230.206 -254.628)" fill="#092a51"/>
            <path id="Trazado_265" data-name="Trazado 265" d="M502.413,419.7s2.46.255,2.036,2.375-3.308,1.258-3.308,1.258-.329-1,1.575-.918S504.279,420.291,502.413,419.7Z" transform="translate(-230.732 -255.283)" fill="#231f20" opacity="0.55" style="mix-blend-mode: soft-light;isolation: isolate"/>
            <path id="Trazado_266" data-name="Trazado 266" d="M633.287,444.195a2.638,2.638,0,0,0-1.507.461c-2.183-1.211-9.568-5.3-11.01-6.023s-6.932-3.118-8.623-3.855a1.362,1.362,0,0,0-1.139,2.474l2.3,1.127,16.118,7.38,1.7,1.06a2.38,2.38,0,0,0,2.169,1.2,1.952,1.952,0,1,0,0-3.827Z" transform="translate(-253.242 -258.371)" fill="#092a51"/>
            <path id="Trazado_267" data-name="Trazado 267" d="M638.491,447.253s-1.838.566-.961,1.753-.509,1.018-.65.226S636.286,447.677,638.491,447.253Z" transform="translate(-258.708 -260.967)" fill="#021c41"/>
            <path id="Trazado_268" data-name="Trazado 268" d="M626.635,453.039a4.862,4.862,0,0,1-2.629,2.051,1.742,1.742,0,0,1-.483.071,3.654,3.654,0,0,1-.443.15l-2.462-1.7-5.487-3.8,5.558,2.431-2.653-3.183,3.2,1.4-2.249-2.716,3.816,2.288-3.349-3.571s3.69,1.694,5.186,2.3a4.179,4.179,0,0,0,.594.214c.142.016.008-.158-.246-.4-.412-.4-1.117-.99-1.251-1.172-.206-.3,1.314.76,1.5.657.063-.032-.063-.285-.254-.594l1.425.895a1.482,1.482,0,0,1,.514.214,1.584,1.584,0,0,1,.634,1.005A4.675,4.675,0,0,1,626.635,453.039Z" transform="translate(-254.25 -260.803)" fill="#fff" opacity="0.21" style="mix-blend-mode: soft-light;isolation: isolate"/>
            <path id="Trazado_269" data-name="Trazado 269" d="M416.062,665.869c-1.948-18.78-14.925-32.818-28.994-31.361a18.932,18.932,0,0,0-3.151.594c-9.073,2.486-15.93,11.409-18.21,22.842a44.1,44.1,0,0,0-.586,13.2,45.752,45.752,0,0,0,1.275,6.967c3.215,12.13,11.172,21.274,20.514,23.8a19.665,19.665,0,0,0,7.205.594C408.176,701.046,418,684.641,416.062,665.869Zm-35.447-13.792c6.223-.649,11.971,5.566,12.834,13.88s-3.492,15.582-9.723,16.223-11.971-5.566-12.834-13.88,3.492-15.582,9.723-16.223Z" transform="translate(-202.627 -299.572)" fill="#021c41"/>
            <path id="Trazado_270" data-name="Trazado 270" d="M549.143,621.192s-43.546,30.767-78.835,32.121l-124.416-19.9a113.292,113.292,0,0,0,6.334-39.817c-.357-17.664-.982-31.892,4.568-40.553a17.574,17.574,0,0,1,6.286-5.938c9.786-5.519,63.95-12.13,85.145-14.545.024-.008.048-.008.079-.016,5.234-.586,8.432-.926,8.432-.926a.938.938,0,0,1,.143-.039,48.37,48.37,0,0,1,5.455-1.156c6.4-.974,15.97-1.053,15.661,7.268-.451,12.478-19,55.906-4.07,75.359,7.149,9.311,24.679,11.575,41.021,11.409A221.8,221.8,0,0,0,549.143,621.192Z" transform="translate(-198.712 -278.03)" fill="#026ea0"/>
            <path id="Trazado_271" data-name="Trazado 271" d="M403.015,665.869c-1.607-15.511-10.736-27.783-21.789-30.768a19.668,19.668,0,0,0-7.2-.594c-14.061,1.457-23.9,17.862-21.947,36.634S367,703.96,381.067,702.5a18.978,18.978,0,0,0,3.151-.594C396.562,698.521,404.8,683.208,403.015,665.869ZM368.2,668.3c-.863-8.322,3.492-15.582,9.723-16.223s11.971,5.566,12.834,13.879-3.492,15.582-9.723,16.223S369.064,676.613,368.2,668.3Z" transform="translate(-199.936 -299.572)" fill="#062449"/>
            <path id="Trazado_272" data-name="Trazado 272" d="M394.682,671.308q-.036-.57-.1-1.14a26.447,26.447,0,0,0-2.169-8.147c-2.1-4.656-5.455-8.195-9.335-9.8a12.021,12.021,0,0,0-5.922-.9c-5.217.546-9.461,4.5-11.67,10.1a24.113,24.113,0,0,0-1.607,7.371,27.073,27.073,0,0,0,2.3,12.795c3.135,6.857,9,11.251,15.217,10.6C389.568,691.348,395.355,682.108,394.682,671.308ZM370.645,667.9c.6-6.587,4.521-11.8,9.754-12.343,6.223-.649,11.971,5.566,12.834,13.88.016.134.024.269.031.4.689,8.155-3.626,15.186-9.754,15.819-6.223.649-11.971-5.566-12.834-13.879a20.556,20.556,0,0,1-.032-3.88Z" transform="translate(-202.411 -303.048)" fill="#4dbcfb"/>
            <path id="Trazado_273" data-name="Trazado 273" d="M394.584,665.789c-1.172-11.29-8.97-19.73-17.426-18.852-5.218.547-9.461,4.5-11.671,10.1a25.029,25.029,0,0,0-1.607,10.847c.016.356.048.713.087,1.069a26.494,26.494,0,0,0,2.209,8.25c3.135,6.857,9,11.251,15.217,10.6,7.276-.752,12.668-8.155,13.286-17.4a27.4,27.4,0,0,0-.1-4.616Zm-11.077,18.962c-6.223.649-11.971-5.566-12.834-13.879a20.568,20.568,0,0,1-.032-3.88c-.689-8.155,3.626-15.186,9.755-15.819a8.689,8.689,0,0,1,2.684.143c4.125.863,7.712,4.648,9.335,9.8a19.487,19.487,0,0,1,.816,3.935,20.536,20.536,0,0,1,.032,3.879C393.951,677.087,389.636,684.118,383.508,684.751Z" transform="translate(-202.409 -302.144)" fill="#231f20" opacity="0.24" style="mix-blend-mode: soft-light;isolation: isolate"/>
            <path id="Trazado_274" data-name="Trazado 274" d="M392.842,670.925c.509,6.031-2.682,11.23-7.214,11.7-4.6.48-8.853-4.116-9.491-10.264a15.2,15.2,0,0,1-.023-2.869c-.509-6.031,2.682-11.23,7.213-11.7a6.418,6.418,0,0,1,1.985.105c3.051.638,5.7,3.437,6.9,7.248a14.4,14.4,0,0,1,.6,2.91,15.184,15.184,0,0,1,.024,2.869Z" transform="translate(-204.934 -304.389)" fill="#021c41"/>
            <path id="Trazado_275" data-name="Trazado 275" d="M386.674,662.179s-2.779,16.555-21.781,15.067c-.364-.032-.72-.063-1.069-.1-18.036-1.789-20.562-12.058-15.9-19.881,2.929-4.917,16.991-1.9,27.331,1.14C381.686,660.287,386.674,662.179,386.674,662.179Z" transform="translate(-198.71 -303.75)" fill="#1595d1"/>
            <path id="Trazado_276" data-name="Trazado 276" d="M404.671,644.456s-7.342.123-17.451-.091c-18.729-.4-46.935-1.953-55.333-7.6-12.919-8.684-.262-57.482,24.05-69.331a45.3,45.3,0,0,1,4.4-1.87c25.123-9.313,66.662-3.276,71.925,21.42C437.837,613.188,404.671,644.456,404.671,644.456Z" transform="translate(-194.762 -284.515)" fill="#231f20" opacity="0.24" style="mix-blend-mode: soft-light;isolation: isolate"/>
            <path id="Trazado_277" data-name="Trazado 277" d="M375.257,658.4c-1.029,3.531-4.663,14.347-11.433,18.741-18.036-1.789-20.562-12.058-15.9-19.881C350.855,652.345,364.917,655.362,375.257,658.4Z" transform="translate(-198.71 -303.75)" fill="#17a6e9"/>
            <path id="Trazado_278" data-name="Trazado 278" d="M395.346,646.748s-7.34.119-17.45-.1c-13.286-.277-31.329-1.14-43.7-3.642-5.075-1.021-9.192-2.312-11.639-3.959-12.921-8.685-.261-57.481,24.053-69.334a47.12,47.12,0,0,1,4.4-1.869c18.844-6.983,46.927-5.336,62,6.358.23.182.459.357.689.539a26.842,26.842,0,0,1,7.538,9.461,22.092,22.092,0,0,1,1.283,3.444c.158.531.293,1.069.412,1.623a29.219,29.219,0,0,1,.475,2.985C426.058,617.785,395.346,646.748,395.346,646.748Z" transform="translate(-192.838 -284.988)" fill="#208bbe"/>
            <path id="Trazado_279" data-name="Trazado 279" d="M465.317,615.371s-15.754,19.723-5.792,31.184,54.312,8.061,54.312,8.061Z" transform="translate(-221.471 -295.646)" fill="#231f20" opacity="0.24" style="mix-blend-mode: soft-light;isolation: isolate"/>
            <path id="Trazado_280" data-name="Trazado 280" d="M499.607,674.729l-82.642-14.208-23.354,6.105,86.539,14.8Z" transform="translate(-208.556 -304.959)" fill="#002c42"/>
            <path id="Trazado_281" data-name="Trazado 281" d="M539.749,624.454,532.2,639.695s-32.921-4.924-51.757-10.34c-.475-.135-.942-.277-1.4-.412a17.265,17.265,0,0,1-6.88-3.848c-3.167-2.937-4.964-7.015-5.677-11.734-.982-6.469.095-14.149,2.534-21.726a77.369,77.369,0,0,1,6.413-14.481c11.092-19.358,6.1-45.542,6.1-45.542a.987.987,0,0,1,.142-.039c1.869-.523,21.552-5.772,21.116,6.112-.135,3.61-1.781,9.81-3.689,17.276-4.7,18.329-10.99,44.259-.38,58.083,2.708,3.531,6.912,6.041,11.971,7.8C519,623.725,529.6,624.557,539.749,624.454Z" transform="translate(-223.514 -278.03)" fill="#026ea0"/>
            <path id="Trazado_282" data-name="Trazado 282" d="M487.231,640.447c-2.66,3.4-9.8,5.439-14.972,5.5-3.167-2.938-4.965-7.015-5.677-11.734a7.872,7.872,0,0,1,1.75-.348c8.828-.887,13.7,6.96,17.031,4.22,3.214-2.637,1.33-6.73,1.2-7.015C486.8,631.279,491.2,635.38,487.231,640.447Z" transform="translate(-223.608 -298.885)" fill="#fff" opacity="0.31" style="mix-blend-mode: soft-light;isolation: isolate"/>
            <path id="Trazado_283" data-name="Trazado 283" d="M503.55,537.686c-.134,3.61-1.781,9.81-3.689,17.276-5.993-3.84-6.793,5.234-14.149,15.312-9.24,12.66-15.93,21.369-15.93,21.369l-.008-.008a77.383,77.383,0,0,1,6.413-14.481c11.092-19.358,6.1-45.542,6.1-45.542a.969.969,0,0,1,.143-.039C484.3,531.051,503.986,525.8,503.55,537.686Z" transform="translate(-224.266 -278.03)" fill="#231f20" opacity="0.55" style="mix-blend-mode: soft-light;isolation: isolate"/>
            <path id="Trazado_284" data-name="Trazado 284" d="M543.471,648.07l-7.545,15.241s-32.921-4.924-51.757-10.34c4.252-1.132,12.739-1.346,20.087-.411,13.119,1.654,9.5-.531,8.82-5.527a2.753,2.753,0,0,1,1.346-2.573C522.719,647.342,533.32,648.173,543.471,648.07Z" transform="translate(-227.235 -301.646)" fill="#231f20" opacity="0.55" style="mix-blend-mode: soft-light;isolation: isolate"/>
            <g id="Grupo_75" data-name="Grupo 75" transform="translate(258.872 311.368)" opacity="0.55" style="mix-blend-mode: soft-light;isolation: isolate">
              <path id="Trazado_285" data-name="Trazado 285" d="M487.659,608.471c.712.106,1.41-.618,1.559-1.617s-.307-1.9-1.019-2-1.41.617-1.56,1.617S486.946,608.365,487.659,608.471Z" transform="translate(-486.611 -604.842)" fill="#231f20"/>
              <path id="Trazado_286" data-name="Trazado 286" d="M491.992,614.775a.691.691,0,0,0-.649.382,2.915,2.915,0,0,1-2.1.313c.03-.877-.4-1.616-1.041-1.711-.712-.106-1.41.618-1.56,1.617s.307,1.9,1.019,2a1.212,1.212,0,0,0,1.1-.534,3.178,3.178,0,0,0,2.938-.114c.385.057.761-.333.842-.873S492.377,614.832,491.992,614.775Z" transform="translate(-486.611 -606.679)" fill="#231f20"/>
            </g>
            <path id="Trazado_287" data-name="Trazado 287" d="M489.177,603.929c0,1.01-.583,1.829-1.3,1.829s-1.3-.819-1.3-1.829.584-1.829,1.3-1.829S489.177,602.918,489.177,603.929Z" transform="translate(-227.731 -292.908)" fill="#021c41"/>
            <path id="Trazado_288" data-name="Trazado 288" d="M489.177,613.256c0,1.01-.583,1.829-1.3,1.829s-1.3-.819-1.3-1.829.584-1.83,1.3-1.83S489.177,612.246,489.177,613.256Z" transform="translate(-227.731 -294.832)" fill="#021c41"/>
            <path id="Trazado_289" data-name="Trazado 289" d="M488.383,612.642s1.534,1.38,3.708-.653v1.975a3.027,3.027,0,0,1-3.538.205S487.648,613.716,488.383,612.642Z" transform="translate(-228.045 -294.948)" fill="#0a335b"/>
            <ellipse id="Elipse_559" data-name="Elipse 559" cx="0.704" cy="0.987" rx="0.704" ry="0.987" transform="translate(263.342 317.041)" fill="#021c41"/>
            <path id="Trazado_290" data-name="Trazado 290" d="M638.586,513.015q-1.742-4.805-3.356-9.276c-12.794-35.408-18.184-49.839-23.136-51.4-1.393-.438-3.694-1.079-6.3-1.781a22.079,22.079,0,0,1-.052,2.447c2.351.634,4.392,1.206,5.644,1.6,4.028,1.267,11.405,21.682,21.616,49.938q1.615,4.47,3.356,9.278c4.124,11.38,5.4,25.657,4.627,40.138a23.8,23.8,0,0,1,2.437,1.074C644.29,540.006,642.958,525.078,638.586,513.015Z" transform="translate(-252.312 -261.65)" fill="#002c42"/>
            <path id="Trazado_291" data-name="Trazado 291" d="M594.937,623.028c-19.453,10.4-92.294,12.668-92.294,12.668s14.481-4.07,33.483-37.553c5.13-9.05,8.155-19.9,9.675-31.227A155.062,155.062,0,0,0,547.02,542.4c-.578-22.557-5.3-43.309-9.311-51.931-7.466-16.057-9.05-40.261,1.354-44.164,4.988-1.868,11.852-1.948,17.656-1.52a.135.135,0,0,1,.055.008,94.836,94.836,0,0,1,11.3,1.512s17.363,4.355,22.4,5.938c4.125,1.3,9.944,16.381,19.113,41.662q3.052,8.408,6.619,18.281C629.322,548.382,614.39,612.625,594.937,623.028Z" transform="translate(-231.046 -260.413)" fill="#026ea0"/>
            <path id="Trazado_292" data-name="Trazado 292" d="M594.937,635.849c-19.453,10.4-92.294,12.668-92.294,12.668s14.481-4.07,33.483-37.553c5.13-9.05,8.155-19.9,9.675-31.227.863-1.283,1.37-2.051,1.465-2.177-.3.958-9.944,31.8.008,41.06,10.111,9.406,25.4-10.95,25.724-29.279s39.548-32,41.321-33.475,1.805-5.115-1.773-25.518c-1.354-7.7-2.3-16.128-2.961-23.626q3.052,8.408,6.619,18.282C629.322,561.2,614.39,625.446,594.937,635.849Z" transform="translate(-231.046 -273.234)" fill="#231f20" opacity="0.55" style="mix-blend-mode: soft-light;isolation: isolate"/>
            <path id="Trazado_293" data-name="Trazado 293" d="M602.336,472.069s9.051,30.839,6.11,39.435a288.548,288.548,0,0,0-8.822,34.3c-2.941,14.336,1.593,16.505-1.918,24.582s-.3,22.3-.3,22.3-21.222,34.907-14.93,43.372,34.342-58.495,34.342-58.495l2.218-58.59Z" transform="translate(-247.273 -266.086)" fill="#231f20" opacity="0.55" style="mix-blend-mode: soft-light;isolation: isolate"/>
            <path id="Trazado_294" data-name="Trazado 294" d="M654.024,569.975c-.349.942-2.621,1.093-7.332.8-1.813-.111-3.99-.293-6.564-.515a24.8,24.8,0,0,0-12.114,2.55c-11.037,4.956-20.728,15.265-20.728,15.265-4.236-4.172,1.868-19.7.776-32.454s8.891-26.658,10.895-37.457-11.575-46.191-11.575-46.191c1.528-.8,3.024-.277,4.481,1.227v.008c8.432,8.67,15.724,50.039,21.116,58.431,6.326,9.841,12.621,28.535,18.186,34.1C653.272,567.845,654.333,569.191,654.024,569.975Z" transform="translate(-252.319 -265.989)" fill="#0f88c1"/>
            <path id="Trazado_295" data-name="Trazado 295" d="M655.552,570.393l-7.332.8-18.678,2.035-1.75.19s2.352-18.63.689-25.17-3.658-34.956-6.382-45.977-10.277-24.37-8.709-28.646c8.432,8.67,15.724,50.039,21.116,58.431,6.326,9.842,12.621,28.535,18.186,34.1C654.8,568.263,655.861,569.609,655.552,570.393Z" transform="translate(-253.847 -266.407)" fill="#fff" opacity="0.31" style="mix-blend-mode: soft-light;isolation: isolate"/>
            <path id="Trazado_296" data-name="Trazado 296" d="M642.3,547.428c-2.112-5.6-6.923-8.97-10.747-7.528s-5.211,7.15-3.1,12.75,6.923,8.97,10.747,7.528S644.415,553.027,642.3,547.428Z" transform="translate(-256.795 -280.009)" fill="#edccc4"/>
            <path id="Trazado_297" data-name="Trazado 297" d="M642.79,547.986c1.891,5.013.649,10.123-2.774,11.414s-7.73-1.727-9.621-6.74-.649-10.123,2.774-11.414S640.9,542.974,642.79,547.986Z" transform="translate(-257.216 -280.294)" fill="#d61c0d"/>
            <path id="Trazado_298" data-name="Trazado 298" d="M632.456,547.5s5.655-3.04,8.2-2.234S633.842,547.231,632.456,547.5Z" transform="translate(-257.824 -281.157)" fill="#fff" opacity="0.633" style="mix-blend-mode: soft-light;isolation: isolate"/>
            <path id="Trazado_299" data-name="Trazado 299" d="M635.663,557.011s5.655-3.04,8.2-2.234S637.048,556.743,635.663,557.011Z" transform="translate(-258.485 -283.119)" fill="#fff" opacity="0.633" style="mix-blend-mode: soft-light;isolation: isolate"/>
            <path id="Trazado_300" data-name="Trazado 300" d="M632.578,552.46s6.973-3.748,10.11-2.754S634.287,552.129,632.578,552.46Z" transform="translate(-257.849 -282.066)" fill="#fff" opacity="0.633" style="mix-blend-mode: soft-light;isolation: isolate"/>
            <path id="Trazado_301" data-name="Trazado 301" d="M723.75,680.1a72.522,72.522,0,0,0-8.741-27.957,61.886,61.886,0,0,0-24.061-24.362h-.008a51.128,51.128,0,0,0-15.574-5.495,48,48,0,0,0-13.373-.475c-1.5.158-2.993.38-4.45.673a.008.008,0,0,1,0,.006l-.006,0q-2.2.428-4.307,1.061h-.016a51.753,51.753,0,0,0-23.9,15.518c0,.008,0,.008-.008.008h-.008a64.282,64.282,0,0,0-13.919,26.595,72.964,72.964,0,0,0-1.876,25.851c3.539,34.164,29.492,59.69,58.708,58.518.008,0,.024-.008.032-.008,1.006-.032,2.011-.111,3.017-.214C705.707,746.659,727.416,715.449,723.75,680.1Zm-97.433,10.839c-2.027-19.54,9.976-36.8,26.809-38.542s32.122,12.684,34.149,32.232-9.984,36.8-26.817,38.542-32.121-12.684-34.14-32.232Z" transform="translate(-253.829 -296.92)" fill="#021c41"/>
            <path id="Trazado_302" data-name="Trazado 302" d="M708.846,682.58a72.6,72.6,0,0,0-9.081-28.559c-10.309-18.028-27.9-29.794-47.173-29.992-.808-.008-1.623,0-2.438.031h-.016c-1.013.04-2.027.119-3.048.222-18.107,1.884-33.127,13.682-41.551,30.372a65.715,65.715,0,0,0-4.655,11.979,72.81,72.81,0,0,0-2.3,27.371c3.666,35.344,31.314,61.448,61.765,58.3a47.882,47.882,0,0,0,8.78-1.75c.008,0,.024-.008.032-.008C694.864,742.887,712.14,714.416,708.846,682.58Zm-51.464,41.1c-16.833,1.742-32.122-12.684-34.141-32.232s9.976-36.8,26.809-38.542,32.121,12.684,34.148,32.232S674.215,721.938,657.383,723.679Z" transform="translate(-250.753 -297.431)" fill="#062449"/>
            <path id="Trazado_303" data-name="Trazado 303" d="M694.878,690.276c-2.407-23.222-20.562-40.364-40.561-38.289s-34.259,22.573-31.852,45.787,20.57,40.363,40.561,38.289S697.285,713.49,694.878,690.276Zm-32.541,39.136c-16.833,1.742-32.121-12.684-34.141-32.232s9.976-36.8,26.809-38.542,32.121,12.684,34.148,32.232S679.17,727.67,662.338,729.412Z" transform="translate(-255.708 -303.164)" fill="#4dbcfb"/>
            <path id="Trazado_304" data-name="Trazado 304" d="M664.523,726.981c-14.149,1.465-27-10.665-28.7-27.094s8.385-30.942,22.541-32.406,27.007,10.665,28.709,27.094S678.679,725.516,664.523,726.981Z" transform="translate(-258.479 -306.37)" fill="#1595d1"/>
            <path id="Trazado_305" data-name="Trazado 305" d="M623.691,629.644c1.131,1.131,26.674,54.065,26.674,54.065l8.615-6.334-20.6-56.327Z" transform="translate(-256.015 -296.817)" fill="#021c41"/>
            <path id="Trazado_306" data-name="Trazado 306" d="M628.838,629.644c1.131,1.131,26.674,54.065,26.674,54.065l8.615-6.334-20.6-56.327Z" transform="translate(-257.077 -296.817)" fill="#081839" opacity="0.38"/>
            <ellipse id="Elipse_560" data-name="Elipse 560" cx="14.601" cy="16.953" rx="14.601" ry="16.953" transform="matrix(0.995, -0.103, 0.103, 0.995, 386.696, 375.504)" fill="#021c41"/>
            <path id="Trazado_307" data-name="Trazado 307" d="M675.815,700.773c.689,6.656-3.4,12.534-9.132,13.127s-10.94-4.32-11.629-10.977,3.4-12.534,9.132-13.128S675.125,694.117,675.815,700.773Z" transform="translate(-262.469 -310.988)" fill="#062449"/>
            <path id="Trazado_308" data-name="Trazado 308" d="M657.35,702.724a14.872,14.872,0,0,1-9.89-2.892C631.034,687.9,631.574,643.1,631.6,641.193a1.3,1.3,0,0,1,2.6.043c-.008.451-.553,45.354,14.783,56.49,3.682,2.677,7.912,3.14,12.924,1.416a1.3,1.3,0,1,1,.844,2.463A20.409,20.409,0,0,1,657.35,702.724Z" transform="translate(-257.646 -300.709)" fill="#062449"/>
            <path id="Trazado_309" data-name="Trazado 309" d="M656.637,708.347a14.872,14.872,0,0,1-9.89-2.892c-16.425-11.929-15.885-56.736-15.855-58.639a1.3,1.3,0,1,1,2.6.044c-.007.451-.553,45.354,14.783,56.49,3.683,2.677,7.912,3.14,12.924,1.416a1.3,1.3,0,1,1,.845,2.463A20.416,20.416,0,0,1,656.637,708.347Z" transform="translate(-257.499 -301.868)" fill="#081839" opacity="0.38"/>
            <path id="Trazado_310" data-name="Trazado 310" d="M693.512,687.412a4.187,4.187,0,0,0-6.858-3.246l-23.224,8.443a8.768,8.768,0,0,0-1.2.435h0a8.788,8.788,0,1,0,7.3,15.987h0a8.824,8.824,0,0,0,3.482-2.908L690.651,691.4l0-.015a4.2,4.2,0,0,0,2.863-3.969Z" transform="translate(-262.906 -309.638)" fill="#4dbcfb"/>
            <circle id="Elipse_561" data-name="Elipse 561" cx="6.129" cy="6.129" r="6.129" transform="translate(394.261 391.425) rotate(-45)" fill="#0f88c1"/>
            <ellipse id="Elipse_562" data-name="Elipse 562" cx="2.648" cy="2.648" rx="2.648" ry="2.648" transform="translate(423.749 375.126)" fill="#0f88c1"/>
            <path id="Trazado_311" data-name="Trazado 311" d="M712.637,651.477a8.862,8.862,0,0,1-3.413,1.045,44.845,44.845,0,0,1-8.757.324c-4.727-.3-6.872-1.108-14.521,2.162-11.108,4.751-25.851-1.132-32.731-1.583-4.458-.293-25.875,8.527-40.213,11.583-5.012,1.061-9.153,1.425-11.417.451a65.694,65.694,0,0,1,4.655-11.979c5.138-4.656,12.731-9.984,20.68-15.067h.008c.008,0,.008,0,.008-.008,9.5-6.073,19.5-11.789,26.357-15.55.649-.364,1.275-.7,1.869-1.029l.006,0a.008.008,0,0,0,0-.006c3.872-2.1,6.4-3.389,6.682-3.476.491-.15,5.012,1.219,11.14,3.278,4.624,1.56,10.158,3.5,15.574,5.495h.008a61.885,61.885,0,0,1,24.061,24.362Z" transform="translate(-251.456 -296.256)" fill="#081839" opacity="0.38"/>
            <path id="Trazado_312" data-name="Trazado 312" d="M715.732,619.18l-12.3,2.462-10.19,2.035c-33.943-4.909-56.032.823-69.183,10.222-12.438,8.9-29.492,24.038-37.869,26.326a8.267,8.267,0,0,1-1.338.262c-7.783.823,8.187-23.721,17.7-49.9,4.45-12.256,11.528-20.119,21.528-24.671,11.362-5.186,26.5-6.1,45.85-4.37C706.326,584.826,715.732,619.18,715.732,619.18Z" transform="translate(-247.576 -288.504)" fill="#026ea0"/>
            <path id="Trazado_313" data-name="Trazado 313" d="M726.464,619.18l-12.3,2.462-10.19,2.035s-3.246-15.091-21.757-26.191a.024.024,0,0,0-.016-.008c-8.171-4.9-19.311-9.026-34.449-10.736a.122.122,0,0,0-.032-.008c-4.014-.451-8.313-.736-12.913-.816a52.62,52.62,0,0,1,12.518-3.8c.95-.174,1.932-.332,2.922-.475,8.685-1.219,18.788-1.14,30.411-.095A50.127,50.127,0,0,1,711.8,595.514a57.976,57.976,0,0,1,14.663,23.665Z" transform="translate(-258.308 -288.504)" fill="#026ea0" opacity="0.54"/>
            <path id="Trazado_314" data-name="Trazado 314" d="M609.032,640.059c1.868-2.049,3.827-3.971,5.841-5.857s4.1-3.688,6.257-5.416a75.06,75.06,0,0,1,13.961-9.08c.618-.332,1.274-.595,1.922-.873s1.292-.573,1.957-.811c1.336-.458,2.662-.96,4.038-1.3,1.358-.411,2.752-.661,4.14-.955,1.4-.21,2.8-.446,4.217-.545a49.76,49.76,0,0,1,8.511-.025c1.418.121,2.835.286,4.244.539a35.08,35.08,0,0,1,4.289.993,2.08,2.08,0,1,1-1.218,3.977l-.086-.029-.083-.03a31.9,31.9,0,0,0-3.668-1.022c-1.274-.291-2.573-.5-3.876-.677a46.13,46.13,0,0,0-7.892-.345c-1.322.028-2.633.19-3.949.322-1.3.216-2.618.385-3.9.711-1.3.253-2.56.667-3.835,1.036-.634.192-1.246.453-1.871.675s-1.25.449-1.854.739a72.894,72.894,0,0,0-13.924,8.166A110.276,110.276,0,0,0,609.819,640.8l-.011.011a.539.539,0,0,1-.776-.747Z" transform="translate(-252.963 -295.575)" fill="#002c42"/>
            <path id="Trazado_315" data-name="Trazado 315" d="M693.734,625.235c-33.943-4.909-56.032.823-69.183,10.221-12.438,8.9-29.493,24.038-37.87,26.326l-1.5-1.314c9.754-5.424,27.909-25.8,48.217-37.006s47.56-6.429,47.56-6.429c-3.008-17.039-42.224-28.385-43.443-28.732C686.988,593.889,693.734,625.235,693.734,625.235Z" transform="translate(-248.071 -290.062)" fill="#231f20" opacity="0.55" style="mix-blend-mode: soft-light;isolation: isolate"/>
            <path id="Trazado_316" data-name="Trazado 316" d="M584.971,671.645a1.583,1.583,0,0,1-.164-3.158c5.1-.535,16.329-9.289,26.235-17.013,4.338-3.382,8.436-6.576,12.218-9.283,10.94-7.826,31.972-16,70.063-10.547l22.223-4.441a1.583,1.583,0,1,1,.62,3.105L693.677,634.8a1.6,1.6,0,0,1-.537.014c-37.216-5.374-57.544,2.443-68.037,9.95-3.73,2.669-7.8,5.844-12.114,9.2-11.237,8.761-21.85,17.035-27.852,17.665Q585.053,671.645,584.971,671.645Z" transform="translate(-247.702 -298.08)" fill="#002c42"/>
            <path id="Trazado_317" data-name="Trazado 317" d="M692.645,593.478c-.024-.008-.041-.016-.065-.024-2.219-.737-11.522-8.907-44.571-10.578.983-.174,2-.332,3.022-.475,11.554-.222,33.7.443,43.187,8.163a1.686,1.686,0,0,1-1.572,2.914Z" transform="translate(-261.032 -288.838)" fill="#231f20" opacity="0.55" style="mix-blend-mode: soft-light;isolation: isolate"/>
            <path id="Trazado_318" data-name="Trazado 318" d="M693.732,592.943l-.063-.024c-2.146-.736-11.14-8.907-43.095-10.578.95-.174,1.932-.332,2.921-.475,11.172-.222,32.58.443,41.757,8.163a1.679,1.679,0,0,1-1.52,2.914Z" transform="translate(-261.561 -288.728)" fill="#231f20" opacity="0.55" style="mix-blend-mode: soft-light;isolation: isolate"/>
            <path id="Trazado_319" data-name="Trazado 319" d="M738.786,623.018l-12.3,2.462-10.19,2.035s-3.246-15.091-21.757-26.191c.57.229,18.994,7.791,23.23,14.03,4.3,6.334,9.952,5.653,9.272,0-.594-5.012-5.8-9.374-2.914-16A57.978,57.978,0,0,1,738.786,623.018Z" transform="translate(-270.629 -292.342)" fill="#fff" opacity="0.31" style="mix-blend-mode: soft-light;isolation: isolate"/>
            <path id="Trazado_320" data-name="Trazado 320" d="M575.7,482.532c7.846,26.9-6.476,71.638-21.132,59.864-.578-22.557-5.3-43.309-9.311-51.931-7.466-16.057-9.05-40.261,1.354-44.164,4.988-1.869,11.853-1.948,17.656-1.52a.135.135,0,0,1,.055.008c7.427.879,13.642,3.507,15.344,9.485C584.607,471.669,566.793,451.994,575.7,482.532Z" transform="translate(-238.594 -260.413)" fill="#fff" opacity="0.31" style="mix-blend-mode: soft-light;isolation: isolate"/>
            <path id="Trazado_321" data-name="Trazado 321" d="M591.545,452.021c-.2.625-1.207.282-1.841.088-4.942-1.559-22.056-4.924-22.232-4.968a95.276,95.276,0,0,0-11.09-1.48.358.358,0,0,1-.1-.009c-7.25-.529-13.16-.026-17.115,1.453-2.087.784-3.726,2.59-4.862,5.365-3.444,8.412-1.612,24.752,4.166,37.18,4.254,9.152,8.852,30.081,9.425,52.41.405,16.111-1.18,38.969-11.046,56.356-1.145,2.017-2.273,3.92-3.382,5.734-2.422,3.964-4.766,7.452-6.994,10.508h-.009c-13.715,18.815-23.316,21.73-23.818,21.871a1.307,1.307,0,0,1-.317.044,1.19,1.19,0,0,1-.326-2.334c.123-.035,8.993-2.836,21.783-19.977,2.387-3.206,4.915-6.906,7.549-11.187,1.128-1.841,2.281-3.779,3.444-5.831,9.6-16.921,11.143-39.321,10.737-55.132-.555-21.766-5.153-42.756-9.2-51.459-6.13-13.177-7.936-29.984-4.219-39.092,1.4-3.409,3.5-5.655,6.227-6.685,4.343-1.621,10.456-2.158,18.163-1.594.026.009.061.009.1.018a94.342,94.342,0,0,1,11.416,1.533c.749.185,17.5,4.387,22.505,5.963C591.148,450.99,591.738,451.4,591.545,452.021Z" transform="translate(-230.736 -260.103)" fill="#002c42"/>
            <path id="Trazado_322" data-name="Trazado 322" d="M365.915,547.771c9.786-5.518,63.95-12.13,85.145-14.544-28.3,4.149-83.617,19.7-88.09,22.375-2.153,1.283-3.032-.008-3.341-1.892A17.573,17.573,0,0,1,365.915,547.771Z" transform="translate(-201.546 -278.701)" fill="#fff" opacity="0.31" style="mix-blend-mode: soft-light;isolation: isolate"/>
            <path id="Trazado_323" data-name="Trazado 323" d="M485.545,531.729a.947.947,0,0,1,.142-.04,48.4,48.4,0,0,1,5.455-1.156C491.816,531.024,490.319,531.452,485.545,531.729Z" transform="translate(-227.519 -278.146)" fill="#231f20"/>
            <path id="Trazado_324" data-name="Trazado 324" d="M442.071,594.873c-3.927,3.151-12.122,6.223-22.494,2.9-17.981-5.764-9.9-17.094-9.9-17.094s13.412-5.962,22-3.856a27.107,27.107,0,0,1,8.226,10H429.079s6.429,3.032,12.106,3.444c.158.531.293,1.069.412,1.623A29.261,29.261,0,0,1,442.071,594.873Z" transform="translate(-211.495 -287.601)" fill="#fff" opacity="0.31" style="mix-blend-mode: soft-light;isolation: isolate"/>
            <path id="Trazado_325" data-name="Trazado 325" d="M377.9,647.671c-.562-.008-1.124-.024-1.7-.039-.135,0-.269-.008-.412-.008-15.7-.4-36.9-1.615-48.067-5.234-.087-.031-.174-.055-.261-.087a20.29,20.29,0,0,1-4.893-2.233c-12.921-8.686-.261-57.481,24.053-69.333a47.043,47.043,0,0,1,4.4-1.869c29.6-2.027,44.861,9.6,52.952,28.234C411.648,614.79,385.235,640.886,377.9,647.671Z" transform="translate(-192.838 -286.006)" fill="#026ea0"/>
            <path id="Trazado_326" data-name="Trazado 326" d="M393.654,617.507a43.581,43.581,0,0,0-15.46-12.975,45.112,45.112,0,0,0-9.489-3.452,59.2,59.2,0,0,0-10-1.616c-.84-.1-1.687-.136-2.533-.172s-1.692-.094-2.54-.108h-2.545c-.857-.007-1.687,0-2.506.072a19.756,19.756,0,0,0-4.84,1,26.955,26.955,0,0,0-4.511,2.136,40.561,40.561,0,0,0-7.946,6.251,62.228,62.228,0,0,0-6.612,7.8c3.5-5.862,8-11.341,13.913-15.109a25.221,25.221,0,0,1,4.69-2.389,21.179,21.179,0,0,1,5.168-1.186,23.532,23.532,0,0,1,2.624-.107l2.59-.02c.864.008,1.728.062,2.592.091s1.728.061,2.589.159a50.557,50.557,0,0,1,19.917,5.551,39.273,39.273,0,0,1,8.407,6.069A41.114,41.114,0,0,1,393.654,617.507Z" transform="translate(-194.336 -291.988)" fill="#021c41"/>
            <path id="Trazado_327" data-name="Trazado 327" d="M336.648,624.477q9.252,1.383,18.543,2.438c3.1.337,6.194.647,9.293.875a59.872,59.872,0,0,0,9.224.122l.043,0a.807.807,0,0,1,.817.837.9.9,0,0,1-.728.981h-.017a60.413,60.413,0,0,1-9.465-.363c-3.114-.312-6.215-.7-9.311-1.124q-9.284-1.295-18.515-2.929a.408.408,0,0,1-.292-.478A.383.383,0,0,1,336.648,624.477Z" transform="translate(-196.719 -297.524)" fill="#021c41"/>
            <path id="Trazado_328" data-name="Trazado 328" d="M336.033,633.705q9.252,1.383,18.543,2.438c3.1.337,6.194.647,9.293.875a59.879,59.879,0,0,0,9.224.122l.043,0a.807.807,0,0,1,.817.836.9.9,0,0,1-.729.981h-.017a60.392,60.392,0,0,1-9.465-.363c-3.114-.312-6.214-.7-9.311-1.124q-9.284-1.295-18.515-2.929a.407.407,0,0,1-.292-.478A.383.383,0,0,1,336.033,633.705Z" transform="translate(-196.592 -299.428)" fill="#021c41"/>
            <path id="Trazado_329" data-name="Trazado 329" d="M335.418,642.933q9.251,1.383,18.543,2.438c3.1.337,6.194.647,9.293.876a59.842,59.842,0,0,0,9.225.122l.043,0a.807.807,0,0,1,.817.836.9.9,0,0,1-.729.981h-.017a60.413,60.413,0,0,1-9.465-.363c-3.114-.312-6.215-.7-9.311-1.124q-9.284-1.294-18.515-2.929a.407.407,0,0,1-.292-.478A.382.382,0,0,1,335.418,642.933Z" transform="translate(-196.466 -301.331)" fill="#021c41"/>
            <path id="Trazado_330" data-name="Trazado 330" d="M372.8,586.8c0,1.437-.8,2.6-1.792,2.6s-1.792-1.165-1.792-2.6.8-2.6,1.792-2.6S372.8,585.366,372.8,586.8Z" transform="translate(-203.523 -289.216)" fill="#231f20" opacity="0.55" style="mix-blend-mode: soft-light;isolation: isolate"/>
            <path id="Trazado_331" data-name="Trazado 331" d="M371.8,585.9c0,1.437-.8,2.6-1.792,2.6s-1.792-1.165-1.792-2.6.8-2.6,1.792-2.6S371.8,584.46,371.8,585.9Z" transform="translate(-203.317 -289.03)" fill="#021c41"/>
            <path id="Trazado_332" data-name="Trazado 332" d="M384.527,599.093,378.8,653.913c-.134,0-.269-.008-.412-.008l2.114-37.363-46.032-4.529-4.149,36.658c-.087-.032-.174-.055-.261-.087.871-13.824,3.231-49.492,3.231-49.492l.7,11.631,46.515,3.642Z" transform="translate(-195.447 -292.288)" fill="#021c41" opacity="0.05"/>
            <path id="Trazado_333" data-name="Trazado 333" d="M342.431,668.394c.309-.008.475-.024.475-.024a.979.979,0,0,1-.475.024Z" transform="translate(-197.998 -306.578)" fill="#021c41"/>
            <path id="Trazado_334" data-name="Trazado 334" d="M413.706,574.746c-2.2,10.039-10.467,20.823-17.07,19.429-11.077-2.328-13.642-.657-34.52,6.4s-11.021-17.458-15.977-16.12S329.8,605.292,331.38,626.946c.618,8.385,1.71,13.254,2.819,16.065-5.075-1.021-9.192-2.312-11.639-3.959-12.921-8.685-.261-57.481,24.053-69.334a47.109,47.109,0,0,1,4.4-1.869c18.844-6.983,46.927-5.336,62,6.358C413.247,574.39,413.477,574.564,413.706,574.746Z" transform="translate(-192.838 -284.988)" fill="#231f20" opacity="0.28" style="mix-blend-mode: soft-light;isolation: isolate"/>
            <path id="Trazado_335" data-name="Trazado 335" d="M493.679,673.049s-.032.024-.1.087a79.651,79.651,0,0,1-9.232,6.081c-1.576.855-8.955-.151-18.313-1.94-18.646-3.579-45.138-10.309-49.16-11.71-6.033-2.114,9.952-4.489,9.952-4.489a.921.921,0,0,0,.1.016l.127.024.2.04Z" transform="translate(-213.073 -305.074)" fill="#153257"/>
            <path id="Trazado_336" data-name="Trazado 336" d="M476.218,674.545a10.193,10.193,0,0,1,2.169.863C477.263,674.988,476.448,674.648,476.218,674.545Z" transform="translate(-225.595 -307.852)" fill="#231f20" opacity="0.55" style="mix-blend-mode: soft-light;isolation: isolate"/>
            <path id="Trazado_337" data-name="Trazado 337" d="M496.628,673.157a79.612,79.612,0,0,1-9.232,6.081c-1.576.855-8.955-.15-18.313-1.94-2.795-.99-3.579-1.829-1.164-2.565,2.391-.737,1.964-1.512,1-2.083,3.428,1.283,9.707,3.27,10.768,1.148,1.386-2.779-44.433-11.671-49.381-12.621Z" transform="translate(-216.124 -305.095)" fill="#231f20" opacity="0.55" style="mix-blend-mode: soft-light;isolation: isolate"/>
            <path id="Trazado_338" data-name="Trazado 338" d="M534.613,643.32c-2.634,4.281-5.162,7.981-7.549,11.187-1.268-.185-2.977-.423-5.4-.775-2.634-.388-4.73-2.255-4.651-4.783.15-4.308.15-6.36,1.189-8.4a4.525,4.525,0,0,1,3.259-2.387c-.053.229-.115.449-.176.669.168.088-1.374,2.457,3.444,3.885,4.95,1.462,6.157-.555,6.157-.555s.053-.211.158-.625C532.155,642.087,533.362,642.686,534.613,643.32Z" transform="translate(-234.01 -300.347)" fill="#021c41"/>
            <path id="Trazado_339" data-name="Trazado 339" d="M525.545,369.272c0,4.378-3.183,7.918-7.118,7.918a6.408,6.408,0,0,1-2.652-.57,7.954,7.954,0,0,1-4.466-7.347c0-4.37,3.191-7.917,7.118-7.917.135,0,.261,0,.388.008C522.568,361.592,525.545,365.044,525.545,369.272Z" transform="translate(-232.833 -243.248)" fill="#021c41"/>
            <path id="Trazado_340" data-name="Trazado 340" d="M523.28,368.71c0,4.37-3.191,7.917-7.118,7.917-.135,0-.261,0-.388-.008a7.953,7.953,0,0,1-4.465-7.347c0-4.37,3.191-7.917,7.118-7.917.135,0,.261,0,.388.008A7.97,7.97,0,0,1,523.28,368.71Z" transform="translate(-232.833 -243.248)" fill="#092a51"/>
            <path id="Trazado_341" data-name="Trazado 341" d="M545.587,401.733a.824.824,0,0,1-.523.285,1.484,1.484,0,0,1-1.061-.285l-4.157-21.9-15.978-8.147.293-.515.341-.61,16.1,8.25Z" transform="translate(-235.425 -245.147)" fill="#021c41"/>
            <path id="Trazado_342" data-name="Trazado 342" d="M545.065,402.177a1.483,1.483,0,0,1-1.061-.285l-4.157-21.9-15.978-8.147.293-.514,15.977,8.195Z" transform="translate(-235.425 -245.306)" fill="#092a51"/>
            <path id="Trazado_343" data-name="Trazado 343" d="M548.38,407.345l.283,2.432a3.889,3.889,0,0,0,2.884-.622l-.9-2.375A1.843,1.843,0,0,0,548.38,407.345Z" transform="translate(-240.481 -252.582)" fill="#021c41"/>
            <path id="Trazado_344" data-name="Trazado 344" d="M526.11,371.286a1.584,1.584,0,1,1-1.583-1.583,1.583,1.583,0,0,1,1.583,1.583Z" transform="translate(-235.234 -244.97)" fill="#021c41"/>
            <path id="Trazado_345" data-name="Trazado 345" d="M436.188,479.736s13.7-23.818,52.746-4.17c12.711,6.4,22.385,39.077,27.455,58.709,4.239,16.415-31.328.96-31.328.96S436.372,506.556,436.188,479.736Z" transform="translate(-217.338 -265.205)" fill="#ac2419"/>
            <path id="Trazado_346" data-name="Trazado 346" d="M459.326,323.288c-2.418-1.174-5.53-1.4-9.492-.186-16.712,5.18-22.8,42.031-22.8,42.031,2.079,1.894,11.159,4.478,19.023,6.453,6.625,1.656,12.389,2.89,12.389,2.89s7.627-21.3,8.647-28.666C467.811,340.548,467.131,327.079,459.326,323.288Z" transform="translate(-215.45 -235.191)" fill="url(#radial-gradient)"/>
            <path id="Trazado_347" data-name="Trazado 347" d="M449.318,259.372l55.735-12.14s-9.533-28.125-36.242-21.65S449.318,259.372,449.318,259.372Z" transform="translate(-219.863 -215.041)" fill="#d61c0d"/>
            <path id="Trazado_348" data-name="Trazado 348" d="M449.954,261.685s10.993-2.626,16.621-6.136,25.448-17.779,34.213-13.694.547,7.508.547,7.508l-32.418,9.474Z" transform="translate(-220.178 -218.448)" fill="#231f20" opacity="0.55" style="mix-blend-mode: soft-light;isolation: isolate"/>
            <path id="Trazado_349" data-name="Trazado 349" d="M466.451,231.119s15.206-2.706,19.879,1.967,10.806,2.483,8.178,0S484.54,223.31,466.451,231.119Z" transform="translate(-223.581 -215.659)" fill="#fff" opacity="0.621" style="mix-blend-mode: soft-light;isolation: isolate"/>
            <path id="Trazado_350" data-name="Trazado 350" d="M522.979,249.7l-.31.077-24.851,5.852-18.854,2.432-6.627.853c8.225-5.92,15.162-15.279,34.869-17.178S522.979,249.7,522.979,249.7Z" transform="translate(-224.795 -218.523)" fill="#e01303"/>
            <path id="Trazado_351" data-name="Trazado 351" d="M449.185,265.668s-.9,1.012-.194,1.366,32.418-5.4,34.748-7.406S449.185,265.668,449.185,265.668Z" transform="translate(-219.923 -222.198)" fill="#860b01"/>
            <path id="Trazado_352" data-name="Trazado 352" d="M524.391,250.933l-24.851,5.852-18.854,2.432c6.249-5.106,13.835-10.483,28.242-11.868C519.237,246.36,523.073,248.579,524.391,250.933Z" transform="translate(-226.517 -219.681)" fill="#860b01"/>
            <path id="Trazado_353" data-name="Trazado 353" d="M498.551,640.445l-6.8,20.361-11.128,1.825,5.936-21.648Z" transform="translate(-226.503 -300.818)" fill="#f6b691"/>
            <path id="Trazado_354" data-name="Trazado 354" d="M497.565,667.753l-3.447-7.97L481.691,658.7s-2.788,6.857-.451,11.249c2.349,4.371,6.192,3.6,6.192,3.6Z" transform="translate(-226.439 -304.583)" fill="#0e203a"/>
            <path id="Trazado_355" data-name="Trazado 355" d="M489.284,675.346s.595-8.292,10.219-7.906,7.711,8.625,7.711,8.625Z" transform="translate(-228.29 -306.384)" fill="#232750"/>
            <path id="Trazado_356" data-name="Trazado 356" d="M482.17,628.542s1.731-69.321,16.249-85.813,23.782-6.285,27.455,5.222-14.907,64.04-29.017,83.169C494.623,634.151,482.17,628.542,482.17,628.542Z" transform="translate(-226.823 -278.882)" fill="#ac2419"/>
            <path id="Trazado_357" data-name="Trazado 357" d="M484.645,632.795s1.462-58.516,13.716-72.437,20.075-5.306,23.175,4.408-12.583,54.058-24.494,70.206C495.156,637.529,484.645,632.795,484.645,632.795Z" transform="translate(-227.333 -282.795)" fill="#fff" opacity="0.2" style="mix-blend-mode: soft-light;isolation: isolate"/>
            <path id="Trazado_358" data-name="Trazado 358" d="M484.044,521.565c-9.895-7.08-36.458-32.021-24.455-42.076s34.517-7.193,41.022,4.211,20.688,46.842,11.975,48.049S490.2,525.973,484.044,521.565Z" transform="translate(-221.535 -266.346)" fill="#fff" opacity="0.2" style="mix-blend-mode: soft-light;isolation: isolate"/>
            <g id="Grupo_76" data-name="Grupo 76" transform="translate(278.33 444.301)" opacity="0.5">
              <path id="Trazado_359" data-name="Trazado 359" d="M663.777,778.919s-71.062,25.348-132.436,26.287S558.205,754.412,663.777,778.919Z" transform="translate(-511.126 -772.322)" opacity="0.74" fill="url(#linear-gradient-2)" style="mix-blend-mode: multiply;isolation: isolate"/>
            </g>
            <g id="Grupo_77" data-name="Grupo 77" transform="translate(108.81 395.683)" opacity="0.5">
              <path id="Trazado_360" data-name="Trazado 360" d="M312.642,730.595c47.843-.732,77-16.089,77-16.089C341.791,701.092,264.8,731.327,312.642,730.595Z" transform="translate(-297.551 -711.069)" opacity="0.74" fill="url(#linear-gradient-3)" style="mix-blend-mode: multiply;isolation: isolate"/>
            </g>
            <g id="Grupo_79" data-name="Grupo 79" transform="translate(0 330.422)">
              <path id="Trazado_377" data-name="Trazado 377" d="M179.177,653.857a3.694,3.694,0,1,0,0,5.218A3.694,3.694,0,0,0,179.177,653.857Zm-.4,4.815a3.125,3.125,0,1,1,0-4.413A3.125,3.125,0,0,1,178.775,658.673Z" transform="translate(-163.021 -633.783)" fill="#fff" opacity="0.5"/>
              <path id="Trazado_378" data-name="Trazado 378" d="M186.768,635.834l2.5,2.5,2.5-2.5.329.328-2.5,2.5,2.5,2.5-.329.328-2.5-2.5-2.5,2.5-.328-.328,2.5-2.5-2.5-2.5Z" transform="translate(-165.82 -630.289)" fill="#fff" opacity="0.5"/>
              <path id="Trazado_379" data-name="Trazado 379" d="M165.567,628.848v4.514h4.514v.592h-4.514v4.515h-.592v-4.515h-4.513v-.592h4.513v-4.514Z" transform="translate(-160.462 -628.848)" fill="#fff" opacity="0.5"/>
            </g>
            <g id="Grupo_80" data-name="Grupo 80" transform="translate(72.976 389.611)">
              <path id="Trazado_380" data-name="Trazado 380" d="M268.124,728a4.488,4.488,0,1,0,0,6.346A4.488,4.488,0,0,0,268.124,728Zm-.48,5.853a3.8,3.8,0,1,1,1.115-2.687A3.795,3.795,0,0,1,267.644,733.857Z" transform="translate(-254.066 -708.219)" fill="#fff" opacity="0.5"/>
              <path id="Trazado_381" data-name="Trazado 381" d="M257.342,703.419v4.366h4.365v.573h-4.365v4.366h-.572v-4.366H252.4v-.573h4.366v-4.366Z" transform="translate(-252.404 -703.419)" fill="#fff" opacity="0.5"/>
            </g>
            <g id="Grupo_770" data-name="Grupo 770" transform="translate(158.73 172.252) rotate(2)">
              <g id="Grupo_2" data-name="Grupo 2" transform="translate(1.011 1.193) rotate(-3)">
                <path id="Trazado_1" data-name="Trazado 1" d="M0,0,14.208.121s3.148-.178,4.8,1.806c0,0,1.254.735,1.187,3.6s-2.3,3.269-3.524,3.649c0,0-1.562.227-2.417.239l-4.217-.036A3.2,3.2,0,0,1,7.06,6.507S3.692,6.292,3.55,3.225C3.55,3.225.029,2.973,0,0" transform="translate(1.296 0.476)" fill="#fff"/>
                <path id="Trazado_2" data-name="Trazado 2" d="M28.443.692,18.7.61A7.786,7.786,0,0,0,16.3.116h0L.573,0A.5.5,0,0,0,.036.418.512.512,0,0,0,.014.5L0,.733A2.952,2.952,0,0,0,1.123,3a5.1,5.1,0,0,0,2.6,1.04,4.221,4.221,0,0,0,3.357,3.4.705.705,0,0,0,.109.01l.4,0a3.6,3.6,0,0,0,1.906,2.64l-.652,2.224a.806.806,0,0,0,.861.716l16.167.135a.768.768,0,0,0,.84-.7L29.293,1.408a.807.807,0,0,0-.85-.717M8.7,7.462l6.981.061h0a.5.5,0,0,0,.548-.458.525.525,0,0,0-.558-.467L7.241,6.523A3.169,3.169,0,0,1,4.875,4.129c.043,0,.1.006.142.006.185,0,.382,0,.569-.009l5.971.017a.5.5,0,0,0,.548-.461.523.523,0,0,0-.558-.464h0l-6-.017A5.422,5.422,0,0,1,1.9,2.359,2.135,2.135,0,0,1,1.108.929l15.2.112c.181,0,4.331.084,4.9,4.09a3.439,3.439,0,0,1-1.051,3.251,7.823,7.823,0,0,1-5.119,1.474L11.621,9.82c-.257-.03-2.559-.341-2.921-2.358" transform="translate(0 0)" fill="#e90000"/>
              </g>
            </g>
          </g>
        </g>
      </g>
    </g>
  </g>
</svg>
