<svg xmlns="http://www.w3.org/2000/svg" width="467.928" height="443.315" viewBox="0 0 467.928 443.315"><g transform="translate(-103.661 -438.813)"><g transform="translate(103.661 438.814)"><circle cx="211.938" cy="211.938" r="211.938" transform="translate(39.361 19.439)" fill="#adebfb"/><circle cx="11.438" cy="11.438" r="11.438" transform="translate(445.053 71.648)" fill="#adebfb"/><circle cx="11.438" cy="11.438" r="11.438" transform="translate(26.895 33.214)" fill="#adebfb"/><circle cx="5.719" cy="5.719" r="5.719" transform="translate(370.096 10.096)" fill="#adebfb"/><circle cx="5.719" cy="5.719" r="5.719" transform="translate(0 112.38)" fill="#adebfb"/><circle cx="5.719" cy="5.719" r="5.719" transform="translate(427.896)" fill="#adebfb"/><circle cx="7.975" cy="7.975" r="7.975" transform="translate(35.161 90.123)" fill="#adebfb"/><path d="M471.212,466.458H143.492a9.939,9.939,0,0,0-9.938,9.942V785.058a1.7,1.7,0,0,0,1.7,1.7H479.457a1.7,1.7,0,0,0,1.7-1.7V476.4A9.941,9.941,0,0,0,471.212,466.458Z" transform="translate(-40.51 -380.413)" fill="#adebfb" opacity="0.3" style="mix-blend-mode:multiply;isolation:isolate"/><g transform="translate(78.149 71.768)"><path d="M467.94,462.373H138.288a8.983,8.983,0,0,0-8.974,8.974v28.48a1.7,1.7,0,0,0,1.7,1.7H475.217a1.7,1.7,0,0,0,1.7-1.7v-28.48A8.983,8.983,0,0,0,467.94,462.373Z" transform="translate(-127.617 -460.81)" fill="#adebfb"/><rect width="347.599" height="273.778" rx="0.545" transform="translate(1.697 44.104)" fill="#fff"/><g transform="translate(1.4 17.165)"><g transform="translate(0 25.378)"><line x2="348.194" fill="#fff" stroke="#17a6e9" stroke-linecap="round" stroke-linejoin="round" stroke-width="2"/></g><g transform="translate(17.873)"><circle cx="5.354" cy="5.354" r="5.354" fill="#fff"/><circle cx="5.354" cy="5.354" r="5.354" transform="translate(20.525)" fill="#fff"/><circle cx="5.354" cy="5.354" r="5.354" transform="translate(41.05)" fill="#fff"/></g></g><g transform="translate(0.001)"><path d="M128.769,528.343v-55.8a10.671,10.671,0,0,1,10.67-10.673H469.091a10.672,10.672,0,0,1,10.67,10.673V781.585H128.769V624.216" transform="translate(-128.769 -461.871)" fill="none" stroke="#17a6e9" stroke-linecap="round" stroke-linejoin="round" stroke-width="2"/></g><line y1="2.48" transform="translate(0 76.085)" fill="none" stroke="#17a6e9" stroke-linecap="round" stroke-linejoin="round" stroke-width="2"/></g><g transform="translate(11.437 164.196)"><g transform="translate(0.003)"><path d="M186.758,491.566a27.325,27.325,0,0,1,0,54.651h-24.1a17.3,17.3,0,0,1-12.522-5.407l-6.4-6.586a2.889,2.889,0,0,1-.775-2.353l.311-2.481-2.353-.84a10.981,10.981,0,0,1-4.32-3.01l-10.872-10.533a3,3,0,0,1-.815-2.113l.025-2.639-2.6-.454a17.323,17.323,0,0,1-9.549-5.1l-4.51-8.021-.128-.23-.168-.209a2.867,2.867,0,0,1,2.225-4.672h76.554" transform="translate(-107.336 -491.566)" fill="#fff"/></g><path d="M149.112,497.513H115.835a2.866,2.866,0,0,0-2.082,4.837l11.056,10.723c3.246,3.433,5.976,3.667,10.7,3.667" transform="translate(-95.449 -479.003)" fill="none" stroke="#17a6e9" stroke-linecap="round" stroke-linejoin="round" stroke-width="2"/><path d="M182.384,529.362H145.8a2.866,2.866,0,0,0-2.082,4.837l6.449,6.639a17.2,17.2,0,0,0,12.494,5.379h24.1a27.323,27.323,0,0,0,27.325-27.325h0a27.325,27.325,0,0,0-27.325-27.325H110.207a2.867,2.867,0,0,0-2.082,4.837l4.663,8.3a17.2,17.2,0,0,0,12.494,5.378h10.3" transform="translate(-107.335 -491.566)" fill="none" stroke="#17a6e9" stroke-linecap="round" stroke-linejoin="round" stroke-width="2"/></g></g><g transform="translate(209.46 578.227)"><g transform="translate(0 130.034)"><path d="M437.24,613.24c0-.977-.04-32.209-.109-87.634l.109.131-299.389.09h-.019l.184-.221c0,30.018,0,59.347,0,87.634l-.181-.215,299.4.215-299.4.218h-.18v-.218c0-28.287,0-57.617,0-87.638v-.221h.2l299.389.09h.109v.131C437.28,581.031,437.24,612.268,437.24,613.24Z" transform="translate(-137.652 -525.381)" fill="#adebfb"/></g><g transform="translate(0.666)"><path d="M282.809,606.5s-.009-.763-.016-2.232-.009-3.648-.016-6.486c-.009-5.684-.022-14.035-.04-24.714-.019-21.343-.044-51.99-.078-89.247l.149.177-144.747.041h-.012l.184-.218c-.006,43.884-.012,85.543-.016,122.673l-.168-.2,104.4.1,29.734.053,7.9.025,2.033.013c.461,0,.7.012.7.012s-.224.006-.675.013l-2.017.009-7.862.025-29.7.053-104.508.1h-.168v-.2c0-37.133-.009-78.792-.016-122.673V483.6h.2l144.747.04h.149v.181c-.034,37.3-.059,67.988-.078,89.356-.019,10.661-.031,19-.037,24.673-.009,2.826-.012,4.99-.019,6.453S282.809,606.5,282.809,606.5Z" transform="translate(-137.866 -483.604)" fill="#adebfb"/><g transform="translate(15.834 45.606)"><path d="M142.953,552.349,153.377,534.2c2.1-3.648,6.259-4.563,9.291-2.036l.087.072,1.463,1.261c3,2.58,7.171,1.746,9.316-1.861a8.683,8.683,0,0,0,.887-2.076l5.064-17.826c1.192-4.2,4.986-6.44,8.475-5.005a7.489,7.489,0,0,1,4.158,5.005l2.45,8.625c1.192,4.2,4.99,6.44,8.479,5.005a7.324,7.324,0,0,0,3.947-4.348l2.123-5.768c1.494-4.059,5.438-5.889,8.812-4.09a7.14,7.14,0,0,1,2.8,2.811h0c2.082,3.664,6.238,4.6,9.282,2.1a8.044,8.044,0,0,0,2.549-4.034l2.369-8.339c2.176-7.66,11.336-7.078,12.83.812l9.061,47.85S143.27,551.966,142.953,552.349Z" transform="translate(-142.953 -498.256)" fill="#17a6e9"/></g><g transform="translate(15.541 65.033)"><path d="M142.859,539.634l8.469-29.825c1.164-4.1,4.874-6.29,8.283-4.887a7.261,7.261,0,0,1,4.006,4.706l4.059,13.213c1.248,4.068,5,6.144,8.379,4.641a6.68,6.68,0,0,0,2.82-2.443l3.287-4.918c2.185-3.271,6.122-3.894,8.933-1.416l7.657,6.736a5.821,5.821,0,0,0,3.85,1.516h9.742a5.823,5.823,0,0,1,3.85,1.513l7.249,6.381c2.9,2.562,6.988,1.8,9.117-1.7.04-.065.081-.134.118-.206l6.8-11.974c.087-.153.177-.3.271-.445,2.73-4.155,8.2-3.281,10.184,1.453l7.28,17.374S142.859,539.07,142.859,539.634Z" transform="translate(-142.859 -504.498)" fill="#adebfb"/></g><g transform="translate(28.891 30.799)"><path d="M165.241,493.72c0,.121-4.053.221-9.048.221s-9.045-.1-9.045-.221,4.049-.221,9.045-.221S165.241,493.6,165.241,493.72Z" transform="translate(-147.148 -493.499)" fill="#17a6e9"/></g><g transform="translate(23.818 29.157)"><rect width="3.096" height="3.726" fill="#3293ce"/></g><g transform="translate(63.017 30.799)"><path d="M176.205,493.72c0,.121-4.05.221-9.045.221s-9.048-.1-9.048-.221,4.049-.221,9.048-.221S176.205,493.6,176.205,493.72Z" transform="translate(-158.112 -493.499)" fill="#17a6e9"/></g><g transform="translate(57.949 29.157)"><rect width="3.096" height="3.726" fill="#3293ce"/></g><g transform="translate(97.153 30.799)"><path d="M187.172,493.72c0,.121-4.053.221-9.045.221s-9.048-.1-9.048-.221,4.049-.221,9.048-.221S187.172,493.6,187.172,493.72Z" transform="translate(-169.079 -493.499)" fill="#17a6e9"/></g><g transform="translate(92.08 29.157)"><rect width="3.096" height="3.726" fill="#3293ce"/></g></g><g transform="translate(116.36 143.034)"><path d="M175.036,589.432l7.452-12.783a2.4,2.4,0,0,1,3.716-.787l.078.065,3.919,3.564a2.387,2.387,0,0,0,3.741-.629c.065-.106.124-.215.181-.33l11.3-23.565a2.441,2.441,0,0,1,3.648-1.176,2.888,2.888,0,0,1,.759.794l7.062,10.773a2.377,2.377,0,0,0,3.748.532,3.076,3.076,0,0,0,.6-.8l5.158-9.755a2.416,2.416,0,0,1,3.682-.99,3.007,3.007,0,0,1,.881,1.108l4.261,8.877a2.438,2.438,0,0,0,3.645,1.177,2.969,2.969,0,0,0,.918-1.055l14.564-27.471a2.418,2.418,0,0,1,3.685-.981,3,3,0,0,1,.784.924l24.06,43.315a2.41,2.41,0,0,0,3.7.887,2.942,2.942,0,0,0,.492-.51l14.62-19.366a2.365,2.365,0,0,1,3.769-.218l.1.109,11.629,14.047a2.366,2.366,0,0,0,3.776.006,3.132,3.132,0,0,0,.426-.669l20.8-43.361a2.439,2.439,0,0,1,3.645-1.177,3.372,3.372,0,0,1,1.335,2.783v56.671Z" transform="translate(-175.036 -529.557)" fill="#3293ce"/><g transform="translate(0.454 62.564)"><path d="M346.436,554.053a1.65,1.65,0,0,1-.012-.249c0-.18-.009-.43-.012-.763-.006-.7-.016-1.743-.025-3.162l.05.056c-9.942.1-44.525.165-85.6.165s-75.667-.068-85.608-.165l.05-.056c-.012,1.422-.019,2.459-.025,3.162l-.012.763a1.654,1.654,0,0,1-.012.249,2.177,2.177,0,0,1-.013-.249c0-.18-.006-.43-.009-.763-.006-.7-.016-1.74-.025-3.162v-.059h.047c9.942-.094,44.522-.162,85.608-.162s75.657.068,85.6.162h.047v.059c-.009,1.419-.019,2.459-.022,3.162l-.012.763A2.178,2.178,0,0,1,346.436,554.053Z" transform="translate(-175.182 -549.658)" fill="#3293ce"/></g><g transform="translate(19.342 64.874)"><path d="M181.434,552.156c-.1,0-.184-.392-.184-.878s.084-.878.184-.878.184.392.184.878S181.536,552.156,181.434,552.156Z" transform="translate(-181.25 -550.4)" fill="#3293ce"/></g><g transform="translate(38.366 64.874)"><path d="M187.546,552.156c-.1,0-.184-.392-.184-.878s.081-.878.184-.878.184.392.184.878S187.645,552.156,187.546,552.156Z" transform="translate(-187.362 -550.4)" fill="#3293ce"/></g><g transform="translate(57.387 64.874)"><path d="M193.657,552.156c-.1,0-.184-.392-.184-.878s.084-.878.184-.878.184.392.184.878S193.759,552.156,193.657,552.156Z" transform="translate(-193.473 -550.4)" fill="#3293ce"/></g><g transform="translate(76.411 64.874)"><path d="M199.769,552.156c-.1,0-.184-.392-.184-.878s.081-.878.184-.878.184.392.184.878S199.868,552.156,199.769,552.156Z" transform="translate(-199.585 -550.4)" fill="#3293ce"/></g><g transform="translate(95.435 64.874)"><path d="M205.884,552.156c-.1,0-.187-.392-.187-.878s.084-.878.187-.878.181.392.181.878S205.98,552.156,205.884,552.156Z" transform="translate(-205.697 -550.4)" fill="#3293ce"/></g><g transform="translate(114.455 64.874)"><path d="M211.992,552.156c-.1,0-.184-.392-.184-.878s.081-.878.184-.878.184.392.184.878S212.091,552.156,211.992,552.156Z" transform="translate(-211.808 -550.4)" fill="#3293ce"/></g><g transform="translate(133.48 64.874)"><path d="M218.1,552.156c-.1,0-.181-.392-.181-.878s.081-.878.181-.878.184.392.184.878S218.2,552.156,218.1,552.156Z" transform="translate(-217.92 -550.4)" fill="#3293ce"/></g><g transform="translate(152.5 64.874)"><path d="M224.215,552.156c-.1,0-.184-.392-.184-.878s.081-.878.184-.878.184.392.184.878S224.317,552.156,224.215,552.156Z" transform="translate(-224.031 -550.4)" fill="#3293ce"/></g></g><g transform="translate(155.588 11.296)"><path d="M332.582,570.734s-.009-.51-.012-1.488-.009-2.431-.016-4.326c-.009-3.8-.019-9.4-.034-16.6-.016-14.389-.04-35.191-.072-60.87l.137.162-144.75.059h-.012l.184-.221c0,29.321-.006,57.5-.009,83.28l-.174-.209,103.975.1,30,.059,8.009.025,2.07.013c.464.006.71.012.71.012s-.23.009-.688.013l-2.051.015-7.974.025-29.959.056-104.091.1h-.174v-.209c0-25.785-.006-53.959-.009-83.28v-.221h.2l144.75.056h.134v.162c-.031,25.722-.056,46.558-.072,60.969-.016,7.187-.025,12.768-.034,16.562-.006,1.886-.009,3.324-.012,4.3S332.582,570.734,332.582,570.734Z" transform="translate(-187.639 -487.233)" fill="#adebfb"/><g transform="translate(10.797 16.693)"><g transform="translate(0 15.84)" opacity="0.3" style="mix-blend-mode:multiply;isolation:isolate"><path d="M292.491,501.685H192.77a2.034,2.034,0,0,1,0-4h99.721a2.034,2.034,0,0,1,0,4Z" transform="translate(-191.108 -497.685)" fill="#adebfb"/></g><g opacity="0.3" style="mix-blend-mode:multiply;isolation:isolate"><path d="M292.491,496.6H192.77a2.036,2.036,0,0,1,0-4h99.721a2.036,2.036,0,0,1,0,4Z" transform="translate(-191.108 -492.596)" fill="#adebfb"/></g><g transform="translate(0 15.84)"><path d="M237.831,501.685H192.77a2.034,2.034,0,0,1,0-4h45.061a2.034,2.034,0,0,1,0,4Z" transform="translate(-191.108 -497.685)" fill="#17a6e9"/></g></g><g transform="translate(10.795 47.19)"><g transform="translate(0.002 0.012)" opacity="0.3" style="mix-blend-mode:multiply;isolation:isolate"><path d="M292.491,506.4H192.77a2.034,2.034,0,0,1,0-4h99.721a2.034,2.034,0,0,1,0,4Z" transform="translate(-191.108 -502.398)" fill="#adebfb"/></g><path d="M252.511,506.406H192.874a1.657,1.657,0,0,1-1.755-1.637,2.029,2.029,0,0,1-.006-.364c0-1.1.523-2,1.173-2h59.637a1.841,1.841,0,0,1,1.9,1.855c0,.047.006.1.006.143A1.97,1.97,0,0,1,252.511,506.406Z" transform="translate(-191.107 -502.394)" fill="#17a6e9"/></g><g transform="translate(10.797 61.52)"><path d="M292.491,511H192.77a2.034,2.034,0,0,1,0-4h99.721a2.034,2.034,0,0,1,0,4Z" transform="translate(-191.108 -506.998)" fill="#adebfb" opacity="0.3" style="mix-blend-mode:multiply;isolation:isolate"/><path d="M229.81,511H192.77a2.034,2.034,0,0,1,0-4h37.04a2.034,2.034,0,0,1,0,4Z" transform="translate(-191.108 -506.998)" fill="#17a6e9"/></g><g transform="translate(10.797 16.693)"><path d="M258.788,496.6H192.77a2.036,2.036,0,0,1,0-4h66.018a2.036,2.036,0,0,1,0,4Z" transform="translate(-191.108 -492.596)" fill="#17a6e9"/></g></g><g transform="translate(156.419 103.104)"><path d="M296.93,516.95c0,.121-24.409.221-54.51.221s-54.514-.1-54.514-.221,24.4-.221,54.514-.221S296.93,516.832,296.93,516.95Z" transform="translate(-187.906 -516.729)" fill="#adebfb"/></g><g transform="translate(156.419 110.885)"><path d="M296.93,519.45c0,.125-24.409.221-54.51.221s-54.514-.1-54.514-.221,24.4-.221,54.514-.221S296.93,519.328,296.93,519.45Z" transform="translate(-187.906 -519.229)" fill="#adebfb"/></g><g transform="translate(156.419 117.923)"><path d="M296.93,521.711c0,.122-24.409.221-54.51.221s-54.514-.1-54.514-.221,24.4-.221,54.514-.221S296.93,521.589,296.93,521.711Z" transform="translate(-187.906 -521.49)" fill="#adebfb"/></g><g transform="translate(18.153 148.871)"><path d="M145.442,580.394h0a2.184,2.184,0,0,1-1.958-2.356V533.792a2.185,2.185,0,0,1,1.958-2.359h0a2.189,2.189,0,0,1,1.961,2.359h0v44.242a2.187,2.187,0,0,1-1.958,2.359Z" transform="translate(-143.484 -531.433)" fill="#adebfb"/><g transform="translate(0 15.93)"><path d="M145.442,569.787h0a2.185,2.185,0,0,1-1.958-2.359v-28.52a2.184,2.184,0,0,1,1.958-2.356h0a2.186,2.186,0,0,1,1.961,2.356v28.52A2.187,2.187,0,0,1,145.442,569.787Z" transform="translate(-143.484 -536.551)" fill="#3293ce"/></g><g transform="translate(7.831)"><path d="M147.961,580.394h0A2.186,2.186,0,0,1,146,578.038V533.792a2.187,2.187,0,0,1,1.961-2.359h0a2.187,2.187,0,0,1,1.958,2.359v44.242a2.185,2.185,0,0,1-1.955,2.359Z" transform="translate(-146 -531.433)" fill="#adebfb"/><g transform="translate(0 6.947)"><path d="M147.961,575.884h0A2.187,2.187,0,0,1,146,573.525v-37.5a2.186,2.186,0,0,1,1.961-2.356h0a2.186,2.186,0,0,1,1.958,2.356v37.5A2.187,2.187,0,0,1,147.961,575.884Z" transform="translate(-146 -533.665)" fill="#3293ce"/></g></g><g transform="translate(15.666)"><path d="M150.475,580.394h0a2.186,2.186,0,0,1-1.958-2.356V533.792a2.187,2.187,0,0,1,1.958-2.359h0a2.187,2.187,0,0,1,1.961,2.359v44.242a2.187,2.187,0,0,1-1.958,2.359Z" transform="translate(-148.517 -531.433)" fill="#adebfb"/><g transform="translate(0 22.666)"><path d="M150.475,565.215h0a2.185,2.185,0,0,1-1.958-2.359V541.074a2.187,2.187,0,0,1,1.958-2.359h0a2.187,2.187,0,0,1,1.961,2.359v21.782A2.187,2.187,0,0,1,150.475,565.215Z" transform="translate(-148.517 -538.715)" fill="#3293ce"/></g></g><g transform="translate(23.497)"><path d="M152.994,580.394h0a2.186,2.186,0,0,1-1.961-2.356V533.792a2.187,2.187,0,0,1,1.961-2.359h0a2.187,2.187,0,0,1,1.958,2.359v44.242A2.182,2.182,0,0,1,153,580.394Z" transform="translate(-151.033 -531.433)" fill="#adebfb"/><g transform="translate(0 6.947)"><path d="M152.994,575.884h0a2.187,2.187,0,0,1-1.961-2.359v-37.5a2.186,2.186,0,0,1,1.961-2.356h0a2.186,2.186,0,0,1,1.958,2.356v37.5A2.187,2.187,0,0,1,152.994,575.884Z" transform="translate(-151.033 -533.665)" fill="#3293ce"/></g></g><g transform="translate(31.331)"><path d="M155.508,580.394h0a2.186,2.186,0,0,1-1.958-2.356V533.792a2.187,2.187,0,0,1,1.958-2.359h0a2.187,2.187,0,0,1,1.961,2.359v44.242a2.187,2.187,0,0,1-1.958,2.359Z" transform="translate(-153.55 -531.433)" fill="#adebfb"/><g transform="translate(0 14.134)"><path d="M155.508,571.006h0a2.187,2.187,0,0,1-1.958-2.359V538.33a2.186,2.186,0,0,1,1.958-2.356h0a2.186,2.186,0,0,1,1.961,2.356v30.316A2.187,2.187,0,0,1,155.508,571.006Z" transform="translate(-153.55 -535.974)" fill="#3293ce"/></g></g><g transform="translate(39.158)"><g transform="translate(0.004)"><path d="M158.027,580.394h0a2.186,2.186,0,0,1-1.961-2.356V533.792a2.187,2.187,0,0,1,1.961-2.359h0a2.187,2.187,0,0,1,1.958,2.359v44.242a2.185,2.185,0,0,1-1.955,2.359Z" transform="translate(-156.066 -531.433)" fill="#adebfb"/></g><g transform="translate(0 22.457)"><path d="M158.03,565.152h0A2.112,2.112,0,0,1,156.069,563V541.216a2.3,2.3,0,0,1,1.871-2.562l.09-.006h0a2.189,2.189,0,0,1,1.958,2.359v21.785a2.185,2.185,0,0,1-1.955,2.359Z" transform="translate(-156.065 -538.648)" fill="#3293ce"/></g></g><g transform="translate(46.997)"><path d="M160.541,580.394h0a2.186,2.186,0,0,1-1.958-2.356V533.792a2.187,2.187,0,0,1,1.958-2.359h0a2.187,2.187,0,0,1,1.961,2.359v44.242a2.187,2.187,0,0,1-1.958,2.359Z" transform="translate(-158.583 -531.433)" fill="#adebfb"/><g transform="translate(0 4.7)"><path d="M160.541,577.409h0a2.187,2.187,0,0,1-1.958-2.359V535.3a2.187,2.187,0,0,1,1.958-2.359h0A2.187,2.187,0,0,1,162.5,535.3V575.05A2.187,2.187,0,0,1,160.541,577.409Z" transform="translate(-158.583 -532.943)" fill="#3293ce"/></g></g><g transform="translate(54.828)"><path d="M163.057,580.394h0a2.186,2.186,0,0,1-1.958-2.356V533.792a2.187,2.187,0,0,1,1.958-2.359h0a2.187,2.187,0,0,1,1.961,2.359v44.242a2.187,2.187,0,0,1-1.958,2.359Z" transform="translate(-161.099 -531.433)" fill="#adebfb"/><g transform="translate(0 27.16)"><path d="M163.057,562.165h0a2.187,2.187,0,0,1-1.958-2.359v-17.29a2.184,2.184,0,0,1,1.958-2.356h0a2.186,2.186,0,0,1,1.961,2.356v17.293A2.186,2.186,0,0,1,163.057,562.165Z" transform="translate(-161.099 -540.159)" fill="#3293ce"/></g></g><g transform="translate(62.658)"><g transform="translate(0.004)"><path d="M165.574,580.394h0a2.186,2.186,0,0,1-1.958-2.356h0V533.792a2.187,2.187,0,0,1,1.958-2.359h0a2.187,2.187,0,0,1,1.961,2.359v44.242a2.185,2.185,0,0,1-1.955,2.359Z" transform="translate(-163.616 -531.433)" fill="#adebfb"/></g><g transform="translate(0 38.182)"><path d="M165.577,554.479h0a2.112,2.112,0,0,1-1.958-2.148v-6.063a2.3,2.3,0,0,1,1.871-2.562l.087-.006h0a2.187,2.187,0,0,1,1.961,2.359v6.063A2.186,2.186,0,0,1,165.577,554.479Z" transform="translate(-163.615 -543.7)" fill="#3293ce"/></g></g><g transform="translate(70.49)"><g transform="translate(0.004)"><path d="M168.093,580.394h0a2.186,2.186,0,0,1-1.961-2.356V533.792a2.187,2.187,0,0,1,1.961-2.359h0a2.185,2.185,0,0,1,1.958,2.359v44.242a2.183,2.183,0,0,1-1.955,2.359Z" transform="translate(-166.132 -531.433)" fill="#adebfb"/></g><g transform="translate(0 22.457)"><path d="M168.1,565.152h0A2.112,2.112,0,0,1,166.135,563V541.216a2.3,2.3,0,0,1,1.874-2.562l.087-.006h0a2.187,2.187,0,0,1,1.958,2.359v21.785a2.182,2.182,0,0,1-1.955,2.359Z" transform="translate(-166.131 -538.648)" fill="#3293ce"/></g></g></g><g transform="translate(106.655 142.039)"><path d="M172.1,594.275c-.1,0-.181-14.56-.181-32.517s.081-32.52.181-32.52.184,14.557.184,32.52S172.2,594.275,172.1,594.275Z" transform="translate(-171.918 -529.238)" fill="#adebfb"/></g></g></g></svg>